<svg id="fb0f8304-0a4b-48ea-8b3f-960f381ba720" data-name="Layer 1" xmlns="http://www.w3.org/2000/svg" width="895.92879" height="532.79274" viewBox="0 0 895.92879 532.79274"><path d="M609.57418,250.4248c-8.366-13.83661-18.2793-28.61-33.80439-33.128-17.97912-5.23218-36.44818,5.16174-52.11419,15.41839a1518.60593,1518.60593,0,0,0-135.14685,99.57453l.04724.5371q50.42431-3.47735,100.84851-6.95465c24.28772-1.67492,49.40985-3.58087,70.87347-15.07049,8.14472-4.35987,16.08405-10.18378,25.31336-10.5896,11.46655-.50415,21.46466,7.50409,29.32178,15.87085,46.47741,49.49212,59.92706,125.17743,112.07006,168.66A1654.78648,1654.78648,0,0,0,609.57418,250.4248Z" transform="translate(-152.0356 -183.60363)" fill="#f2f2f2"/><path d="M277,244.39539c-.54678.39449-1.09356.789-1.64034,1.1745-4.02576,2.02623-7.97972,4.187-11.9153,6.3656q-11.08179,6.13246-21.876,12.80283-21.47736,13.27356-41.60945,28.57334-10.43628,7.93458-20.44181,16.38913c-.48374-.529-.9504-1.07589-1.40744-1.63175-.10769-.1345-.22414-.269-.32264-.41244a59.17924,59.17924,0,1,1,97.95784-65.664c.063.10759.12565.22414.17949.33173Q276.48913,243.34644,277,244.39539Z" transform="translate(-152.0356 -183.60363)" fill="#e55812"/><path d="M282.7489,585.54934a546.939,546.939,0,0,1,72.65675,6.85278,564.48691,564.48691,0,0,1,204.10394,75.73644,547.25747,547.25747,0,0,1,59.58427,42.16658q3.47651,2.82975,6.90566,5.7168c1.46854,1.23511,3.60133-.87657,2.12133-2.12132a553.00055,553.00055,0,0,0-59.24922-43.45452,562.43552,562.43552,0,0,0-64.37581-35.23161,571.34984,571.34984,0,0,0-68.49011-26.67322,563.48239,563.48239,0,0,0-71.25295-17.57576,553.18977,553.18977,0,0,0-72.75558-8.08829q-4.62268-.20357-9.24828-.32788c-1.93119-.05292-1.92982,2.94712,0,3Z" transform="translate(-152.0356 -183.60363)" fill="#e4e4e4"/><path d="M276.99537,490.72354c43.57864,3.04831,87.17376,6.14693,130.57957,11.15859,43.45037,5.0168,86.7481,11.98466,129.16983,22.75251C574.248,534.154,610.98787,546.68743,645.9521,563.324c32.6901,15.55448,63.87635,34.52362,92.02911,57.33048,27.7587,22.48763,52.57889,48.73789,72.43508,78.48619q3.75251,5.62194,7.26646,11.39684c1.00392,1.64576,3.59951.1401,2.59041-1.51416a350.70489,350.70489,0,0,0-69.84252-81.82987c-27.41613-23.79126-58.03329-43.7733-90.34862-60.24533A571.83618,571.83618,0,0,0,554.3541,526.22549C512.127,514.40757,468.87516,506.643,425.41429,501.05618c-43.85013-5.63689-87.94566-9.05395-132.034-12.18056q-8.1921-.581-16.3849-1.15208c-1.92675-.13478-1.91833,2.86581,0,3Z" transform="translate(-152.0356 -183.60363)" fill="#e4e4e4"/><path d="M898.26407,675.20788q-7.70947-9.735-15.30957-19.56Q821.0341,575.563,766.55411,490.06793q-37.00488-58.065-70.33984-118.36-15.87012-28.665-30.87012-57.78-11.63966-22.575-22.75977-45.42c-2.12011-4.35-4.18017-8.72-6.23-13.1-4.83008-10.3-9.57031-20.65-14.66015-30.81-5.79981-11.58-12.85987-23.72-23.51026-31.5a32.07589,32.07589,0,0,0-16.71-6.43c-8.66992-.56-16.66992,3.02-24.18994,6.93-55.02,28.69-106.52979,64.66-153.11963,105.59a797.15622,797.15622,0,0,0-124.40039,138.09c-1.09961,1.57-3.69971.07-2.58984-1.51q6.55516-9.27007,13.37011-18.34a801.56168,801.56168,0,0,1,204.63965-190.88q19.90576-12.9,40.56006-24.59c6.93994-3.93,13.91016-7.81,21-11.45,6.9502-3.57,14.33008-6.78,22.27-6.9,27.02-.42,41.01025,30.18,50.62012,50.77q4.53,9.72,9.16992,19.38,17.53491,36.67493,36.41992,72.68,11.655,22.23,23.82031,44.2,37.85962,68.415,80.48,134.06,56.46021,86.955,120.85987,168.39C901.56436,674.58789,899.4545,676.7279,898.26407,675.20788Z" transform="translate(-152.0356 -183.60363)" fill="#e4e4e4"/><path d="M401.49405,284.07794c-1.56982-1.75-3.12988-3.5-4.71-5.25-12.46-13.78-25.82959-27.4-42.93994-35.3a62.29758,62.29758,0,0,0-26.1001-6.05c-9.33984.03-18.46973,2.48-27.09961,5.91-4.08008,1.63-8.07031,3.48-12,5.45-4.49023,2.26-8.90039,4.67-13.29,7.1q-12.36034,6.84-24.3999,14.28-23.95533,14.805-46.41016,31.87-11.64038,8.85-22.80029,18.28-10.37988,8.75994-20.33984,17.99c-1.41993,1.31-3.54-.81-2.12012-2.12,1.75-1.63,3.52-3.25,5.29-4.85q7.5-6.78,15.24023-13.3,14.11451-11.91,28.96-22.9,23.08521-17.1,47.75977-31.88,12.33032-7.38,25-14.14c2.55029-1.36,5.13037-2.69,7.74023-3.95a123.38928,123.38928,0,0,1,18.39991-7.49,65.45682,65.45682,0,0,1,27.79-2.73,72.35175,72.35175,0,0,1,25.64013,8.87c16.79981,9.39,29.82959,23.91,42.50977,38.08C404.89444,283.38793,402.78409,285.51794,401.49405,284.07794Z" transform="translate(-152.0356 -183.60363)" fill="#e4e4e4"/><path d="M745.71746,426.87543l40.25674-14.72409,19.9876-7.31056c6.50963-2.38093,13.00361-5.09143,19.733-6.79629,5.94967-1.50731,11.99508-1.754,17.86079.22758a41.165,41.165,0,0,1,13.931,8.63575,113.05253,113.05253,0,0,1,11.42633,12.20251c4.35168,5.22973,8.63907,10.51428,12.94569,15.78113q26.66141,32.606,52.97414,65.495,26.31214,32.88848,52.27245,66.05639,26.02377,33.249,51.68959,66.77606,3.14411,4.10719,6.28283,8.2185c1.15606,1.51417,3.76281.0214,2.59041-1.51416q-25.85515-33.86421-52.07076-67.4512-26.28006-33.66725-52.9233-67.04891-26.64273-33.381-53.64552-66.4725-6.7272-8.24407-13.47662-16.47c-3.79558-4.62592-7.54837-9.30173-11.71148-13.60733-7.6417-7.90325-17.189-14.88761-28.61729-15.07711-6.71922-.11142-13.222,2.02075-19.46484,4.2792-6.73008,2.43471-13.444,4.915-20.16548,7.37337l-40.53824,14.82706-10.13457,3.70676c-1.7985.65781-1.02157,3.55818.79752,2.89284Z" transform="translate(-152.0356 -183.60363)" fill="#e4e4e4"/><path d="M287.81843,227.05864l-2.39287,1.80918a72.50848,72.50848,0,0,0-129.93828,51.71091,71.7641,71.7641,0,0,0,20.32635,42.76441l-2.13917,2.10364a74.73613,74.73613,0,0,1-21.16878-44.53536,75.50839,75.50839,0,0,1,135.31275-53.85278Z" transform="translate(-152.0356 -183.60363)" fill="#e4e4e4"/><path d="M516.80274,419.17215a6.871,6.871,0,0,1-1.63629-10.408l-8.929-89.60106,14.90956.98936,4.13039,88.22976a6.90824,6.90824,0,0,1-8.47469,10.79Z" transform="translate(-152.0356 -183.60363)" fill="#9e616a"/><path d="M527.18721,315.84429l-3.90892,29.70882.54263,18.20805-16.3981,1.50139-3.28652-15.14384-1.81064-40.092a11.9643,11.9643,0,0,1,10.57038-12.424h0a11.96429,11.96429,0,0,1,13.2427,10.31532Z" transform="translate(-152.0356 -183.60363)" fill="#2f2e41"/><polygon points="312.353 393.642 302.406 393.642 297.674 355.274 312.355 355.275 312.353 393.642" fill="#9e616a"/><path d="M466.92557,586.888l-32.07368-.00119v-.40568a12.48465,12.48465,0,0,1,12.484-12.48377h.00079l19.58951.00079Z" transform="translate(-152.0356 -183.60363)" fill="#2f2e41"/><polygon points="394.489 393.642 384.542 393.642 379.809 355.274 394.49 355.275 394.489 393.642" fill="#9e616a"/><path d="M549.061,586.888l-32.07368-.00119v-.40568a12.48464,12.48464,0,0,1,12.484-12.48377h.00079l19.58951.00079Z" transform="translate(-152.0356 -183.60363)" fill="#2f2e41"/><circle cx="355.80799" cy="78.31059" r="21.56632" fill="#9e616a"/><path d="M505.0569,292.23609l14.96655,1.71046,0,0A39.82721,39.82721,0,0,1,525.116,329.9098l-11.293,32.669s15.67661,31.42737,15.67661,60.60613,29.8552,133.33193,29.8552,133.33193l-42.02416,4.3836L498.99415,449.94769,473.72552,560.45328,444.879,555.75734,460.767,410.87264l10.49876-47.688.44724-23.25608s-4.46406-17.45033,6.70848-28.62287L492.062,292.2983Z" transform="translate(-152.0356 -183.60363)" fill="#2f2e41"/><path d="M482.70367,254.21223h31.691v-13.814c-6.95581-2.76342-13.76244-5.11356-17.877,0a13.8141,13.8141,0,0,0-13.814,13.814Z" transform="translate(-152.0356 -183.60363)" fill="#2f2e41"/><path d="M516.14919,237.96044c18.94548,0,24.24834,23.74741,24.24834,37.14452,0,7.47142-3.37891,10.14368-8.68852,11.04788l-1.87515-10.0007L525.442,286.58319c-1.49146.00744-3.05832-.02143-4.6827-.05158l-1.48909-3.06616-3.32059,3.01115c-13.2994.01979-24.04836,1.95847-24.04836-11.37164C491.90125,261.70785,496.55182,237.96044,516.14919,237.96044Z" transform="translate(-152.0356 -183.60363)" fill="#2f2e41"/><polygon points="336.096 185.524 335.295 150.737 333.17 135.294 327.917 150.592 336.096 185.524" opacity="0.2"/><path d="M527.98917,364.48791H504.17423v-70h23.81494A17.20442,17.20442,0,0,1,545.17423,311.673v35.62988A17.20442,17.20442,0,0,1,527.98917,364.48791Z" transform="translate(-152.0356 -183.60363)" fill="#e55812"/><path d="M524.67423,326.98791a3.00328,3.00328,0,0,1-3-3v-26h6v26A3.00328,3.00328,0,0,1,524.67423,326.98791Z" transform="translate(-152.0356 -183.60363)" fill="#3f3d56"/><path d="M531.88687,358.98791H514.46158a3.79182,3.79182,0,0,1-3.78735-3.7876v-10.4248a3.79182,3.79182,0,0,1,3.78735-3.7876h17.42529a3.79183,3.79183,0,0,1,3.78736,3.7876v10.4248A3.79183,3.79183,0,0,1,531.88687,358.98791Z" transform="translate(-152.0356 -183.60363)" fill="#3f3d56"/><path d="M482.27139,337.69494c-4.51025-5.32129-7.09716-13.05127-7.09716-21.207,0-15.43945,9.19629-28,20.5-28,6.0686,0,11.78588,3.627,15.686,9.95068l-1.70215,1.04981c-3.52783-5.71973-8.62475-9.00049-13.98388-9.00049-10.20093,0-18.5,11.66357-18.5,26,0,7.68994,2.41406,14.94824,6.623,19.91406Z" transform="translate(-152.0356 -183.60363)" fill="#e55812"/><path d="M491.99179,422.79272a7.52837,7.52837,0,0,1-1.17145-11.48425L486.37819,312.749l16.25311,1.96876-.72626,96.774a7.56916,7.56916,0,0,1-9.91325,11.301Z" transform="translate(-152.0356 -183.60363)" fill="#9e616a"/><path d="M509.4957,310.36344,503.453,342.63422l-.48877,19.95291-18.02973.66777-2.69536-16.76362.40248-43.97062a13.10892,13.10892,0,0,1,12.30319-12.96419l0,0a13.10892,13.10892,0,0,1,13.875,12.07282Z" transform="translate(-152.0356 -183.60363)" fill="#2f2e41"/><ellipse cx="530" cy="609" rx="7" ry="20" transform="translate(-376.94494 711.56572) rotate(-69.72823)" fill="#e6e6e6"/><ellipse cx="596" cy="609" rx="7" ry="20" transform="translate(-381.44508 637.04751) rotate(-60)" fill="#e6e6e6"/><ellipse cx="627" cy="653" rx="7" ry="20" transform="translate(-393.3557 725.43976) rotate(-62.59298)" fill="#e6e6e6"/><ellipse cx="691" cy="668" rx="7" ry="20" transform="translate(-372.13183 790.35171) rotate(-62.59298)" fill="#e6e6e6"/><path d="M348.54647,260.86736c-20.45758-10.51416-46.65638-8.45489-65.45545,4.681a933.58479,933.58479,0,0,1,106.21491,24.79C374.81685,281.8474,363.48293,268.544,348.54647,260.86736Z" transform="translate(-152.0356 -183.60363)" fill="#f2f2f2"/><path d="M282.88967,265.51214l-3.93836,3.20117c1.33216-1.12042,2.717-2.1709,4.13971-3.165C283.02382,265.53674,282.95687,265.52373,282.88967,265.51214Z" transform="translate(-152.0356 -183.60363)" fill="#f2f2f2"/><path d="M855.97078,427.02251c-3.96277-4.82373-8.24719-9.87445-14.1745-11.83374l-5.53387.21827a627.704,627.704,0,0,0,167.18884,191.13617Q929.711,516.78289,855.97078,427.02251Z" transform="translate(-152.0356 -183.60363)" fill="#f2f2f2"/></svg>