<svg width="379" height="325" viewBox="0 0 379 325" fill="none" xmlns="http://www.w3.org/2000/svg">
<line x1="59.5" y1="61" x2="59.5" y2="293" stroke="black"/>
<line x1="379" y1="291.5" x2="59" y2="291.5" stroke="black"/>
<rect x="109" y="142" width="37" height="149" fill="#4FA232"/>
<rect x="182" y="91" width="36" height="200" fill="#4FA232"/>
<rect x="243" y="50" width="37" height="241" fill="#4FA232"/>
<path d="M57.7217 12.7588L61.3779 2.20312H63.2236L58.4775 15H56.9834L52.2461 2.20312H54.083L57.7217 12.7588ZM70.1582 15C70.0645 14.8125 69.9883 14.4785 69.9297 13.998C69.1738 14.7832 68.2715 15.1758 67.2227 15.1758C66.2852 15.1758 65.5146 14.9121 64.9111 14.3848C64.3135 13.8516 64.0146 13.1777 64.0146 12.3633C64.0146 11.373 64.3896 10.6055 65.1396 10.0605C65.8955 9.50977 66.9561 9.23438 68.3213 9.23438H69.9033V8.4873C69.9033 7.91895 69.7334 7.46777 69.3936 7.13379C69.0537 6.79395 68.5527 6.62402 67.8906 6.62402C67.3105 6.62402 66.8242 6.77051 66.4316 7.06348C66.0391 7.35645 65.8428 7.71094 65.8428 8.12695H64.208C64.208 7.65234 64.375 7.19531 64.709 6.75586C65.0488 6.31055 65.5059 5.95898 66.0801 5.70117C66.6602 5.44336 67.2959 5.31445 67.9873 5.31445C69.083 5.31445 69.9414 5.58984 70.5625 6.14062C71.1836 6.68555 71.5059 7.43848 71.5293 8.39941V12.7764C71.5293 13.6494 71.6406 14.3438 71.8633 14.8594V15H70.1582ZM67.46 13.7607C67.9697 13.7607 68.4531 13.6289 68.9102 13.3652C69.3672 13.1016 69.6982 12.7588 69.9033 12.3369V10.3857H68.6289C66.6367 10.3857 65.6406 10.9688 65.6406 12.1348C65.6406 12.6445 65.8105 13.043 66.1504 13.3301C66.4902 13.6172 66.9268 13.7607 67.46 13.7607ZM73.6914 10.166C73.6914 8.68359 74.0342 7.50586 74.7197 6.63281C75.4053 5.75391 76.3135 5.31445 77.4443 5.31445C78.6045 5.31445 79.5098 5.72461 80.1602 6.54492L80.2393 5.49023H81.7246V14.7715C81.7246 16.002 81.3584 16.9717 80.626 17.6807C79.8994 18.3896 78.9209 18.7441 77.6904 18.7441C77.0049 18.7441 76.334 18.5977 75.6777 18.3047C75.0215 18.0117 74.5205 17.6104 74.1748 17.1006L75.0186 16.125C75.7158 16.9863 76.5684 17.417 77.5762 17.417C78.3672 17.417 78.9824 17.1943 79.4219 16.749C79.8672 16.3037 80.0898 15.6768 80.0898 14.8682V14.0508C79.4395 14.8008 78.5518 15.1758 77.4268 15.1758C76.3135 15.1758 75.4111 14.7275 74.7197 13.8311C74.0342 12.9346 73.6914 11.7129 73.6914 10.166ZM75.3262 10.3506C75.3262 11.4229 75.5459 12.2666 75.9854 12.8818C76.4248 13.4912 77.04 13.7959 77.8311 13.7959C78.8564 13.7959 79.6094 13.3301 80.0898 12.3984V8.05664C79.5918 7.14844 78.8447 6.69434 77.8486 6.69434C77.0576 6.69434 76.4395 7.00195 75.9941 7.61719C75.5488 8.23242 75.3262 9.14355 75.3262 10.3506ZM90.0566 15C89.9629 14.8125 89.8867 14.4785 89.8281 13.998C89.0723 14.7832 88.1699 15.1758 87.1211 15.1758C86.1836 15.1758 85.4131 14.9121 84.8096 14.3848C84.2119 13.8516 83.9131 13.1777 83.9131 12.3633C83.9131 11.373 84.2881 10.6055 85.0381 10.0605C85.7939 9.50977 86.8545 9.23438 88.2197 9.23438H89.8018V8.4873C89.8018 7.91895 89.6318 7.46777 89.292 7.13379C88.9521 6.79395 88.4512 6.62402 87.7891 6.62402C87.209 6.62402 86.7227 6.77051 86.3301 7.06348C85.9375 7.35645 85.7412 7.71094 85.7412 8.12695H84.1064C84.1064 7.65234 84.2734 7.19531 84.6074 6.75586C84.9473 6.31055 85.4043 5.95898 85.9785 5.70117C86.5586 5.44336 87.1943 5.31445 87.8857 5.31445C88.9814 5.31445 89.8398 5.58984 90.4609 6.14062C91.082 6.68555 91.4043 7.43848 91.4277 8.39941V12.7764C91.4277 13.6494 91.5391 14.3438 91.7617 14.8594V15H90.0566ZM87.3584 13.7607C87.8682 13.7607 88.3516 13.6289 88.8086 13.3652C89.2656 13.1016 89.5967 12.7588 89.8018 12.3369V10.3857H88.5273C86.5352 10.3857 85.5391 10.9688 85.5391 12.1348C85.5391 12.6445 85.709 13.043 86.0488 13.3301C86.3887 13.6172 86.8252 13.7607 87.3584 13.7607ZM99.5137 12.4775C99.5137 12.0381 99.3467 11.6982 99.0127 11.458C98.6846 11.2119 98.1074 11.001 97.2812 10.8252C96.4609 10.6494 95.8076 10.4385 95.3213 10.1924C94.8408 9.94629 94.4834 9.65332 94.249 9.31348C94.0205 8.97363 93.9062 8.56934 93.9062 8.10059C93.9062 7.32129 94.2344 6.66211 94.8906 6.12305C95.5527 5.58398 96.3965 5.31445 97.4219 5.31445C98.5 5.31445 99.373 5.59277 100.041 6.14941C100.715 6.70605 101.052 7.41797 101.052 8.28516H99.417C99.417 7.83984 99.2266 7.45605 98.8457 7.13379C98.4707 6.81152 97.9961 6.65039 97.4219 6.65039C96.8301 6.65039 96.3672 6.7793 96.0332 7.03711C95.6992 7.29492 95.5322 7.63184 95.5322 8.04785C95.5322 8.44043 95.6875 8.73633 95.998 8.93555C96.3086 9.13477 96.8682 9.3252 97.6768 9.50684C98.4912 9.68848 99.1504 9.90527 99.6543 10.1572C100.158 10.4092 100.53 10.7139 100.771 11.0713C101.017 11.4229 101.14 11.8535 101.14 12.3633C101.14 13.2129 100.8 13.8955 100.12 14.4111C99.4404 14.9209 98.5586 15.1758 97.4746 15.1758C96.7129 15.1758 96.0391 15.041 95.4531 14.7715C94.8672 14.502 94.4072 14.127 94.0732 13.6465C93.7451 13.1602 93.5811 12.6357 93.5811 12.0732H95.207C95.2363 12.6182 95.4531 13.0518 95.8574 13.374C96.2676 13.6904 96.8066 13.8486 97.4746 13.8486C98.0898 13.8486 98.582 13.7256 98.9512 13.4795C99.3262 13.2275 99.5137 12.8936 99.5137 12.4775ZM107.292 10.1572C107.292 9.22559 107.474 8.3877 107.837 7.64355C108.206 6.89941 108.716 6.3252 109.366 5.9209C110.022 5.5166 110.77 5.31445 111.607 5.31445C112.902 5.31445 113.948 5.7627 114.745 6.65918C115.548 7.55566 115.949 8.74805 115.949 10.2363V10.3506C115.949 11.2764 115.771 12.1084 115.413 12.8467C115.062 13.5791 114.555 14.1504 113.893 14.5605C113.236 14.9707 112.48 15.1758 111.625 15.1758C110.336 15.1758 109.29 14.7275 108.487 13.8311C107.69 12.9346 107.292 11.748 107.292 10.2715V10.1572ZM108.927 10.3506C108.927 11.4053 109.17 12.252 109.656 12.8906C110.148 13.5293 110.805 13.8486 111.625 13.8486C112.451 13.8486 113.107 13.5264 113.594 12.8818C114.08 12.2314 114.323 11.3232 114.323 10.1572C114.323 9.11426 114.074 8.27051 113.576 7.62598C113.084 6.97559 112.428 6.65039 111.607 6.65039C110.805 6.65039 110.157 6.96973 109.665 7.6084C109.173 8.24707 108.927 9.16113 108.927 10.3506ZM118.788 15V6.74707H117.285V5.49023H118.788V4.51465C118.788 3.49512 119.061 2.70703 119.605 2.15039C120.15 1.59375 120.921 1.31543 121.917 1.31543C122.292 1.31543 122.664 1.36523 123.033 1.46484L122.945 2.7832C122.67 2.73047 122.377 2.7041 122.066 2.7041C121.539 2.7041 121.132 2.85938 120.845 3.16992C120.558 3.47461 120.414 3.91406 120.414 4.48828V5.49023H122.444V6.74707H120.414V15H118.788ZM127.981 15.1758C126.692 15.1758 125.644 14.7539 124.835 13.9102C124.026 13.0605 123.622 11.9268 123.622 10.5088V10.21C123.622 9.2666 123.801 8.42578 124.158 7.6875C124.521 6.94336 125.025 6.36328 125.67 5.94727C126.32 5.52539 127.023 5.31445 127.779 5.31445C129.016 5.31445 129.977 5.72168 130.662 6.53613C131.348 7.35059 131.69 8.5166 131.69 10.0342V10.7109H125.248C125.271 11.6484 125.544 12.4072 126.065 12.9873C126.593 13.5615 127.261 13.8486 128.069 13.8486C128.644 13.8486 129.13 13.7314 129.528 13.4971C129.927 13.2627 130.275 12.9521 130.574 12.5654L131.567 13.3389C130.771 14.5635 129.575 15.1758 127.981 15.1758ZM127.779 6.65039C127.123 6.65039 126.572 6.89062 126.127 7.37109C125.682 7.8457 125.406 8.51367 125.301 9.375H130.064V9.25195C130.018 8.42578 129.795 7.78711 129.396 7.33594C128.998 6.87891 128.459 6.65039 127.779 6.65039ZM138.177 6.94922C137.931 6.9082 137.664 6.8877 137.377 6.8877C136.311 6.8877 135.587 7.3418 135.206 8.25V15H133.58V5.49023H135.162L135.188 6.58887C135.722 5.73926 136.478 5.31445 137.456 5.31445C137.772 5.31445 138.013 5.35547 138.177 5.4375V6.94922ZM142.325 3.1875V5.49023H144.101V6.74707H142.325V12.6445C142.325 13.0254 142.404 13.3125 142.562 13.5059C142.721 13.6934 142.99 13.7871 143.371 13.7871C143.559 13.7871 143.816 13.752 144.145 13.6816V15C143.717 15.1172 143.301 15.1758 142.896 15.1758C142.17 15.1758 141.622 14.9561 141.253 14.5166C140.884 14.0771 140.699 13.4531 140.699 12.6445V6.74707H138.968V5.49023H140.699V3.1875H142.325ZM151.879 15C151.785 14.8125 151.709 14.4785 151.65 13.998C150.895 14.7832 149.992 15.1758 148.943 15.1758C148.006 15.1758 147.235 14.9121 146.632 14.3848C146.034 13.8516 145.735 13.1777 145.735 12.3633C145.735 11.373 146.11 10.6055 146.86 10.0605C147.616 9.50977 148.677 9.23438 150.042 9.23438H151.624V8.4873C151.624 7.91895 151.454 7.46777 151.114 7.13379C150.774 6.79395 150.273 6.62402 149.611 6.62402C149.031 6.62402 148.545 6.77051 148.152 7.06348C147.76 7.35645 147.563 7.71094 147.563 8.12695H145.929C145.929 7.65234 146.096 7.19531 146.43 6.75586C146.77 6.31055 147.227 5.95898 147.801 5.70117C148.381 5.44336 149.017 5.31445 149.708 5.31445C150.804 5.31445 151.662 5.58984 152.283 6.14062C152.904 6.68555 153.227 7.43848 153.25 8.39941V12.7764C153.25 13.6494 153.361 14.3438 153.584 14.8594V15H151.879ZM149.181 13.7607C149.69 13.7607 150.174 13.6289 150.631 13.3652C151.088 13.1016 151.419 12.7588 151.624 12.3369V10.3857H150.35C148.357 10.3857 147.361 10.9688 147.361 12.1348C147.361 12.6445 147.531 13.043 147.871 13.3301C148.211 13.6172 148.647 13.7607 149.181 13.7607ZM155.403 10.166C155.403 8.70703 155.749 7.53516 156.44 6.65039C157.132 5.75977 158.037 5.31445 159.156 5.31445C160.27 5.31445 161.151 5.69531 161.802 6.45703V1.5H163.428V15H161.934L161.854 13.9805C161.204 14.7773 160.299 15.1758 159.139 15.1758C158.037 15.1758 157.138 14.7246 156.44 13.8223C155.749 12.9199 155.403 11.7422 155.403 10.2891V10.166ZM157.029 10.3506C157.029 11.4287 157.252 12.2725 157.697 12.8818C158.143 13.4912 158.758 13.7959 159.543 13.7959C160.574 13.7959 161.327 13.333 161.802 12.4072V8.03906C161.315 7.14258 160.568 6.69434 159.561 6.69434C158.764 6.69434 158.143 7.00195 157.697 7.61719C157.252 8.23242 157.029 9.14355 157.029 10.3506ZM171.83 15C171.736 14.8125 171.66 14.4785 171.602 13.998C170.846 14.7832 169.943 15.1758 168.895 15.1758C167.957 15.1758 167.187 14.9121 166.583 14.3848C165.985 13.8516 165.687 13.1777 165.687 12.3633C165.687 11.373 166.062 10.6055 166.812 10.0605C167.567 9.50977 168.628 9.23438 169.993 9.23438H171.575V8.4873C171.575 7.91895 171.405 7.46777 171.065 7.13379C170.726 6.79395 170.225 6.62402 169.562 6.62402C168.982 6.62402 168.496 6.77051 168.104 7.06348C167.711 7.35645 167.515 7.71094 167.515 8.12695H165.88C165.88 7.65234 166.047 7.19531 166.381 6.75586C166.721 6.31055 167.178 5.95898 167.752 5.70117C168.332 5.44336 168.968 5.31445 169.659 5.31445C170.755 5.31445 171.613 5.58984 172.234 6.14062C172.855 6.68555 173.178 7.43848 173.201 8.39941V12.7764C173.201 13.6494 173.312 14.3438 173.535 14.8594V15H171.83ZM169.132 13.7607C169.642 13.7607 170.125 13.6289 170.582 13.3652C171.039 13.1016 171.37 12.7588 171.575 12.3369V10.3857H170.301C168.309 10.3857 167.312 10.9688 167.312 12.1348C167.312 12.6445 167.482 13.043 167.822 13.3301C168.162 13.6172 168.599 13.7607 169.132 13.7607ZM181.287 12.4775C181.287 12.0381 181.12 11.6982 180.786 11.458C180.458 11.2119 179.881 11.001 179.055 10.8252C178.234 10.6494 177.581 10.4385 177.095 10.1924C176.614 9.94629 176.257 9.65332 176.022 9.31348C175.794 8.97363 175.68 8.56934 175.68 8.10059C175.68 7.32129 176.008 6.66211 176.664 6.12305C177.326 5.58398 178.17 5.31445 179.195 5.31445C180.273 5.31445 181.146 5.59277 181.814 6.14941C182.488 6.70605 182.825 7.41797 182.825 8.28516H181.19C181.19 7.83984 181 7.45605 180.619 7.13379C180.244 6.81152 179.77 6.65039 179.195 6.65039C178.604 6.65039 178.141 6.7793 177.807 7.03711C177.473 7.29492 177.306 7.63184 177.306 8.04785C177.306 8.44043 177.461 8.73633 177.771 8.93555C178.082 9.13477 178.642 9.3252 179.45 9.50684C180.265 9.68848 180.924 9.90527 181.428 10.1572C181.932 10.4092 182.304 10.7139 182.544 11.0713C182.79 11.4229 182.913 11.8535 182.913 12.3633C182.913 13.2129 182.573 13.8955 181.894 14.4111C181.214 14.9209 180.332 15.1758 179.248 15.1758C178.486 15.1758 177.812 15.041 177.227 14.7715C176.641 14.502 176.181 14.127 175.847 13.6465C175.519 13.1602 175.354 12.6357 175.354 12.0732H176.98C177.01 12.6182 177.227 13.0518 177.631 13.374C178.041 13.6904 178.58 13.8486 179.248 13.8486C179.863 13.8486 180.355 13.7256 180.725 13.4795C181.1 13.2275 181.287 12.8936 181.287 12.4775ZM193.442 15.1758C192.153 15.1758 191.104 14.7539 190.296 13.9102C189.487 13.0605 189.083 11.9268 189.083 10.5088V10.21C189.083 9.2666 189.262 8.42578 189.619 7.6875C189.982 6.94336 190.486 6.36328 191.131 5.94727C191.781 5.52539 192.484 5.31445 193.24 5.31445C194.477 5.31445 195.438 5.72168 196.123 6.53613C196.809 7.35059 197.151 8.5166 197.151 10.0342V10.7109H190.709C190.732 11.6484 191.005 12.4072 191.526 12.9873C192.054 13.5615 192.722 13.8486 193.53 13.8486C194.104 13.8486 194.591 13.7314 194.989 13.4971C195.388 13.2627 195.736 12.9521 196.035 12.5654L197.028 13.3389C196.231 14.5635 195.036 15.1758 193.442 15.1758ZM193.24 6.65039C192.584 6.65039 192.033 6.89062 191.588 7.37109C191.143 7.8457 190.867 8.51367 190.762 9.375H195.525V9.25195C195.479 8.42578 195.256 7.78711 194.857 7.33594C194.459 6.87891 193.92 6.65039 193.24 6.65039ZM200.57 5.49023L200.614 6.54492C201.312 5.72461 202.252 5.31445 203.436 5.31445C204.766 5.31445 205.671 5.82422 206.151 6.84375C206.468 6.38672 206.878 6.01758 207.382 5.73633C207.892 5.45508 208.492 5.31445 209.184 5.31445C211.27 5.31445 212.33 6.41895 212.365 8.62793V15H210.739V8.72461C210.739 8.04492 210.584 7.53809 210.273 7.2041C209.963 6.86426 209.441 6.69434 208.709 6.69434C208.105 6.69434 207.604 6.87598 207.206 7.23926C206.808 7.59668 206.576 8.08008 206.512 8.68945V15H204.877V8.76855C204.877 7.38574 204.2 6.69434 202.847 6.69434C201.78 6.69434 201.051 7.14844 200.658 8.05664V15H199.032V5.49023H200.57ZM227.509 15H219.124V13.8311L223.554 8.90918C224.21 8.16504 224.661 7.56152 224.907 7.09863C225.159 6.62988 225.285 6.14648 225.285 5.64844C225.285 4.98047 225.083 4.43262 224.679 4.00488C224.274 3.57715 223.735 3.36328 223.062 3.36328C222.253 3.36328 221.623 3.59473 221.172 4.05762C220.727 4.51465 220.504 5.15332 220.504 5.97363H218.878C218.878 4.7959 219.256 3.84375 220.012 3.11719C220.773 2.39062 221.79 2.02734 223.062 2.02734C224.251 2.02734 225.191 2.34082 225.883 2.96777C226.574 3.58887 226.92 4.41797 226.92 5.45508C226.92 6.71484 226.117 8.21484 224.512 9.95508L221.084 13.6729H227.509V15ZM237.256 9.54199C237.256 11.4463 236.931 12.8613 236.28 13.7871C235.63 14.7129 234.613 15.1758 233.23 15.1758C231.865 15.1758 230.854 14.7246 230.198 13.8223C229.542 12.9141 229.202 11.5605 229.179 9.76172V7.59082C229.179 5.70996 229.504 4.3125 230.154 3.39844C230.805 2.48438 231.824 2.02734 233.213 2.02734C234.59 2.02734 235.604 2.46973 236.254 3.35449C236.904 4.2334 237.238 5.59277 237.256 7.43262V9.54199ZM235.63 7.31836C235.63 5.94141 235.437 4.93945 235.05 4.3125C234.663 3.67969 234.051 3.36328 233.213 3.36328C232.381 3.36328 231.774 3.67676 231.394 4.30371C231.013 4.93066 230.816 5.89453 230.805 7.19531V9.79688C230.805 11.1797 231.004 12.2021 231.402 12.8643C231.807 13.5205 232.416 13.8486 233.23 13.8486C234.033 13.8486 234.628 13.5381 235.015 12.917C235.407 12.2959 235.612 11.3174 235.63 9.98145V7.31836ZM247.724 15H239.339V13.8311L243.769 8.90918C244.425 8.16504 244.876 7.56152 245.122 7.09863C245.374 6.62988 245.5 6.14648 245.5 5.64844C245.5 4.98047 245.298 4.43262 244.894 4.00488C244.489 3.57715 243.95 3.36328 243.276 3.36328C242.468 3.36328 241.838 3.59473 241.387 4.05762C240.941 4.51465 240.719 5.15332 240.719 5.97363H239.093C239.093 4.7959 239.471 3.84375 240.227 3.11719C240.988 2.39062 242.005 2.02734 243.276 2.02734C244.466 2.02734 245.406 2.34082 246.098 2.96777C246.789 3.58887 247.135 4.41797 247.135 5.45508C247.135 6.71484 246.332 8.21484 244.727 9.95508L241.299 13.6729H247.724V15ZM257.471 9.54199C257.471 11.4463 257.146 12.8613 256.495 13.7871C255.845 14.7129 254.828 15.1758 253.445 15.1758C252.08 15.1758 251.069 14.7246 250.413 13.8223C249.757 12.9141 249.417 11.5605 249.394 9.76172V7.59082C249.394 5.70996 249.719 4.3125 250.369 3.39844C251.02 2.48438 252.039 2.02734 253.428 2.02734C254.805 2.02734 255.818 2.46973 256.469 3.35449C257.119 4.2334 257.453 5.59277 257.471 7.43262V9.54199ZM255.845 7.31836C255.845 5.94141 255.651 4.93945 255.265 4.3125C254.878 3.67969 254.266 3.36328 253.428 3.36328C252.596 3.36328 251.989 3.67676 251.608 4.30371C251.228 4.93066 251.031 5.89453 251.02 7.19531V9.79688C251.02 11.1797 251.219 12.2021 251.617 12.8643C252.021 13.5205 252.631 13.8486 253.445 13.8486C254.248 13.8486 254.843 13.5381 255.229 12.917C255.622 12.2959 255.827 11.3174 255.845 9.98145V7.31836ZM264.124 9.80566C264.124 8.48145 264.3 7.20996 264.651 5.99121C265.009 4.77246 265.539 3.66504 266.242 2.66895C266.945 1.67285 267.675 0.969727 268.431 0.55957L268.765 1.63184C267.909 2.28809 267.206 3.29004 266.655 4.6377C266.11 5.98535 265.812 7.49414 265.759 9.16406L265.75 9.91113C265.75 12.1729 266.163 14.1357 266.989 15.7998C267.487 16.7959 268.079 17.5752 268.765 18.1377L268.431 19.1309C267.651 18.6973 266.907 17.9707 266.198 16.9512C264.815 14.959 264.124 12.5771 264.124 9.80566ZM272.289 13.6201H278.354V15H270.593V2.20312H272.289V13.6201ZM281.79 15H280.164V5.49023H281.79V15ZM280.032 2.96777C280.032 2.7041 280.111 2.48145 280.27 2.2998C280.434 2.11816 280.674 2.02734 280.99 2.02734C281.307 2.02734 281.547 2.11816 281.711 2.2998C281.875 2.48145 281.957 2.7041 281.957 2.96777C281.957 3.23145 281.875 3.45117 281.711 3.62695C281.547 3.80273 281.307 3.89062 280.99 3.89062C280.674 3.89062 280.434 3.80273 280.27 3.62695C280.111 3.45117 280.032 3.23145 280.032 2.96777ZM285.938 5.49023L285.991 6.68555C286.718 5.77148 287.667 5.31445 288.839 5.31445C290.849 5.31445 291.862 6.44824 291.88 8.71582V15H290.254V8.70703C290.248 8.02148 290.09 7.51465 289.779 7.18652C289.475 6.8584 288.997 6.69434 288.347 6.69434C287.819 6.69434 287.356 6.83496 286.958 7.11621C286.56 7.39746 286.249 7.7666 286.026 8.22363V15H284.4V5.49023H285.938ZM296.986 10.5967L295.967 11.6602V15H294.341V1.5H295.967V9.66504L296.837 8.61914L299.799 5.49023H301.776L298.076 9.46289L302.207 15H300.3L296.986 10.5967ZM307.226 15.1758C305.937 15.1758 304.888 14.7539 304.079 13.9102C303.271 13.0605 302.866 11.9268 302.866 10.5088V10.21C302.866 9.2666 303.045 8.42578 303.402 7.6875C303.766 6.94336 304.27 6.36328 304.914 5.94727C305.564 5.52539 306.268 5.31445 307.023 5.31445C308.26 5.31445 309.221 5.72168 309.906 6.53613C310.592 7.35059 310.935 8.5166 310.935 10.0342V10.7109H304.492C304.516 11.6484 304.788 12.4072 305.31 12.9873C305.837 13.5615 306.505 13.8486 307.313 13.8486C307.888 13.8486 308.374 13.7314 308.772 13.4971C309.171 13.2627 309.52 12.9521 309.818 12.5654L310.812 13.3389C310.015 14.5635 308.819 15.1758 307.226 15.1758ZM307.023 6.65039C306.367 6.65039 305.816 6.89062 305.371 7.37109C304.926 7.8457 304.65 8.51367 304.545 9.375H309.309V9.25195C309.262 8.42578 309.039 7.78711 308.641 7.33594C308.242 6.87891 307.703 6.65039 307.023 6.65039ZM312.429 10.166C312.429 8.70703 312.774 7.53516 313.466 6.65039C314.157 5.75977 315.062 5.31445 316.182 5.31445C317.295 5.31445 318.177 5.69531 318.827 6.45703V1.5H320.453V15H318.959L318.88 13.9805C318.229 14.7773 317.324 15.1758 316.164 15.1758C315.062 15.1758 314.163 14.7246 313.466 13.8223C312.774 12.9199 312.429 11.7422 312.429 10.2891V10.166ZM314.055 10.3506C314.055 11.4287 314.277 12.2725 314.723 12.8818C315.168 13.4912 315.783 13.7959 316.568 13.7959C317.6 13.7959 318.353 13.333 318.827 12.4072V8.03906C318.341 7.14258 317.594 6.69434 316.586 6.69434C315.789 6.69434 315.168 7.00195 314.723 7.61719C314.277 8.23242 314.055 9.14355 314.055 10.3506ZM324.751 15H323.125V5.49023H324.751V15ZM322.993 2.96777C322.993 2.7041 323.072 2.48145 323.23 2.2998C323.395 2.11816 323.635 2.02734 323.951 2.02734C324.268 2.02734 324.508 2.11816 324.672 2.2998C324.836 2.48145 324.918 2.7041 324.918 2.96777C324.918 3.23145 324.836 3.45117 324.672 3.62695C324.508 3.80273 324.268 3.89062 323.951 3.89062C323.635 3.89062 323.395 3.80273 323.23 3.62695C323.072 3.45117 322.993 3.23145 322.993 2.96777ZM328.899 5.49023L328.952 6.68555C329.679 5.77148 330.628 5.31445 331.8 5.31445C333.81 5.31445 334.823 6.44824 334.841 8.71582V15H333.215V8.70703C333.209 8.02148 333.051 7.51465 332.74 7.18652C332.436 6.8584 331.958 6.69434 331.308 6.69434C330.78 6.69434 330.317 6.83496 329.919 7.11621C329.521 7.39746 329.21 7.7666 328.987 8.22363V15H327.361V5.49023H328.899ZM341.046 9.89355C341.046 11.2002 340.873 12.4541 340.527 13.6553C340.188 14.8506 339.663 15.9551 338.954 16.9688C338.251 17.9824 337.513 18.7031 336.739 19.1309L336.396 18.1377C337.299 17.4463 338.022 16.374 338.567 14.9209C339.118 13.4619 339.399 11.8447 339.411 10.0693V9.78809C339.411 8.55762 339.282 7.41504 339.024 6.36035C338.767 5.2998 338.406 4.35059 337.943 3.5127C337.486 2.6748 336.971 2.02148 336.396 1.55273L336.739 0.55957C337.513 0.987305 338.248 1.70215 338.945 2.7041C339.648 3.70605 340.173 4.81055 340.519 6.01758C340.87 7.22461 341.046 8.5166 341.046 9.89355ZM343.498 14.1475C343.498 13.8662 343.58 13.6318 343.744 13.4443C343.914 13.2568 344.166 13.1631 344.5 13.1631C344.834 13.1631 345.086 13.2568 345.256 13.4443C345.432 13.6318 345.52 13.8662 345.52 14.1475C345.52 14.417 345.432 14.6426 345.256 14.8242C345.086 15.0059 344.834 15.0967 344.5 15.0967C344.166 15.0967 343.914 15.0059 343.744 14.8242C343.58 14.6426 343.498 14.417 343.498 14.1475ZM343.507 6.38672C343.507 6.10547 343.589 5.87109 343.753 5.68359C343.923 5.49609 344.175 5.40234 344.509 5.40234C344.843 5.40234 345.095 5.49609 345.265 5.68359C345.44 5.87109 345.528 6.10547 345.528 6.38672C345.528 6.65625 345.44 6.88184 345.265 7.06348C345.095 7.24512 344.843 7.33594 344.509 7.33594C344.175 7.33594 343.923 7.24512 343.753 7.06348C343.589 6.88184 343.507 6.65625 343.507 6.38672Z" fill="black"/>
<path d="M105.016 310.669L106.315 309.578L112.14 316.52C112.927 317.458 113.26 318.429 113.139 319.433C113.022 320.434 112.495 321.328 111.557 322.115C110.583 322.932 109.615 323.319 108.654 323.277C107.693 323.234 106.836 322.764 106.082 321.867L107.375 320.782C107.846 321.343 108.366 321.653 108.935 321.711C109.508 321.765 110.086 321.547 110.67 321.058C111.204 320.609 111.494 320.08 111.539 319.468C111.589 318.853 111.361 318.24 110.857 317.63L105.016 310.669ZM121.045 313.924C120.853 313.841 120.58 313.634 120.226 313.303C120.151 314.391 119.713 315.271 118.909 315.945C118.191 316.548 117.431 316.841 116.63 316.825C115.829 316.801 115.167 316.477 114.644 315.853C114.007 315.094 113.801 314.265 114.025 313.366C114.25 312.458 114.886 311.565 115.932 310.688L117.144 309.671L116.663 309.099C116.298 308.663 115.878 308.427 115.403 308.39C114.924 308.348 114.431 308.539 113.924 308.965C113.48 309.338 113.201 309.763 113.089 310.24C112.976 310.716 113.054 311.114 113.321 311.433L112.069 312.484C111.764 312.12 111.598 311.663 111.571 311.111C111.545 310.552 111.67 309.989 111.944 309.422C112.222 308.852 112.627 308.344 113.156 307.9C113.996 307.195 114.83 306.855 115.66 306.877C116.486 306.896 117.217 307.265 117.852 307.986L120.666 311.339C121.227 312.008 121.759 312.468 122.261 312.72L122.351 312.828L121.045 313.924ZM118.181 314.709C118.572 314.381 118.857 313.97 119.038 313.474C119.219 312.978 119.252 312.503 119.138 312.048L117.884 310.553L116.907 311.372C115.381 312.653 114.993 313.74 115.743 314.633C116.07 315.023 116.456 315.219 116.901 315.221C117.346 315.222 117.773 315.052 118.181 314.709ZM119.113 303.131L119.922 304.012C119.891 302.845 120.324 301.885 121.222 301.132C122.762 299.84 124.267 300.057 125.738 301.783L129.777 306.596L128.532 307.642L124.487 302.821C124.042 302.3 123.595 302.013 123.146 301.961C122.702 301.906 122.23 302.087 121.732 302.505C121.328 302.844 121.064 303.249 120.939 303.721C120.815 304.192 120.814 304.675 120.938 305.168L125.293 310.359L124.048 311.404L117.935 304.119L119.113 303.131Z" fill="black"/>
<path d="M174.509 313.148L184.426 318.457L180.919 307.769L182.595 306.363L190.821 316.166L189.528 317.25L186.325 313.433L182.989 309.211L186.431 319.849L185.442 320.68L175.586 315.457L179.155 319.449L182.358 323.267L181.065 324.352L172.84 314.549L174.509 313.148ZM197.406 310.64C197.213 310.557 196.94 310.35 196.587 310.02C196.512 311.107 196.073 311.988 195.27 312.662C194.552 313.265 193.792 313.558 192.991 313.542C192.19 313.518 191.528 313.193 191.005 312.57C190.368 311.811 190.162 310.982 190.386 310.082C190.611 309.175 191.247 308.282 192.293 307.404L193.504 306.387L193.024 305.815C192.659 305.38 192.239 305.143 191.764 305.106C191.285 305.064 190.792 305.256 190.285 305.682C189.84 306.054 189.562 306.479 189.45 306.956C189.337 307.433 189.415 307.831 189.682 308.149L188.43 309.2C188.125 308.836 187.959 308.379 187.932 307.828C187.906 307.268 188.03 306.705 188.305 306.138C188.583 305.568 188.987 305.061 189.517 304.616C190.356 303.912 191.191 303.571 192.021 303.594C192.847 303.612 193.578 303.982 194.213 304.703L197.027 308.056C197.588 308.724 198.12 309.185 198.622 309.437L198.712 309.544L197.406 310.64ZM194.542 311.425C194.933 311.098 195.218 310.686 195.399 310.19C195.58 309.695 195.613 309.219 195.499 308.764L194.245 307.269L193.268 308.089C191.742 309.369 191.354 310.456 192.103 311.349C192.431 311.74 192.817 311.936 193.262 311.937C193.707 311.939 194.134 311.768 194.542 311.425ZM201.762 306.985L200.516 308.03L194.404 300.745L195.649 299.7L201.762 306.985ZM192.681 298.898C192.512 298.696 192.429 298.474 192.434 298.234C192.443 297.989 192.568 297.765 192.811 297.562C193.053 297.358 193.295 297.273 193.538 297.307C193.78 297.341 193.986 297.459 194.156 297.661C194.325 297.863 194.404 298.084 194.391 298.324C194.378 298.564 194.251 298.786 194.008 298.989C193.766 299.192 193.525 299.279 193.287 299.25C193.052 299.217 192.851 299.1 192.681 298.898Z" fill="black"/>
<path d="M252.287 313.63C250.911 314.242 249.775 314.529 248.88 314.492C247.986 314.447 247.252 314.084 246.68 313.401C246.032 312.629 245.805 311.734 245.998 310.715C246.192 309.688 246.782 308.761 247.77 307.932C248.443 307.367 249.152 306.994 249.895 306.814C250.643 306.63 251.353 306.646 252.024 306.863C252.7 307.076 253.266 307.454 253.722 307.997L252.422 309.088C251.925 308.495 251.347 308.189 250.687 308.169C250.024 308.144 249.349 308.42 248.662 308.996C248.025 309.531 247.645 310.09 247.524 310.674C247.403 311.25 247.551 311.787 247.969 312.285C248.304 312.685 248.757 312.882 249.327 312.878C249.898 312.866 250.686 312.633 251.69 312.18C252.699 311.724 253.549 311.443 254.241 311.337C254.933 311.223 255.543 311.257 256.072 311.441C256.605 311.62 257.081 311.959 257.499 312.458C258.166 313.252 258.391 314.149 258.174 315.149C257.954 316.145 257.326 317.078 256.289 317.948C255.616 318.513 254.88 318.912 254.082 319.146C253.28 319.375 252.531 319.399 251.836 319.218C251.145 319.032 250.56 318.655 250.082 318.085L251.381 316.994C251.879 317.587 252.49 317.873 253.215 317.854C253.941 317.826 254.67 317.505 255.402 316.891C256.084 316.318 256.49 315.74 256.62 315.157C256.75 314.574 256.614 314.042 256.211 313.562C255.808 313.081 255.329 312.852 254.774 312.874C254.215 312.892 253.386 313.144 252.287 313.63ZM264.193 311.315C263.206 312.144 262.131 312.495 260.969 312.368C259.804 312.237 258.765 311.629 257.854 310.542L257.662 310.313C257.055 309.591 256.652 308.832 256.451 308.036C256.251 307.233 256.264 306.465 256.49 305.732C256.717 304.99 257.12 304.377 257.7 303.891C258.647 303.096 259.644 302.791 260.693 302.974C261.742 303.157 262.754 303.83 263.729 304.993L264.164 305.511L259.229 309.652C259.85 310.355 260.546 310.761 261.319 310.87C262.092 310.971 262.788 310.762 263.407 310.242C263.847 309.873 264.144 309.471 264.299 309.035C264.454 308.599 264.521 308.137 264.501 307.649L265.759 307.603C265.936 309.053 265.414 310.291 264.193 311.315ZM258.558 304.914C258.056 305.336 257.788 305.874 257.756 306.529C257.72 307.178 257.938 307.867 258.411 308.595L262.06 305.533L261.981 305.438C261.414 304.836 260.833 304.49 260.238 304.4C259.639 304.306 259.079 304.478 258.558 304.914ZM262.466 297.115L263.946 298.879L265.306 297.738L266.114 298.701L264.754 299.842L268.545 304.359C268.79 304.651 269.035 304.82 269.28 304.867C269.522 304.909 269.789 304.807 270.08 304.562C270.224 304.442 270.399 304.249 270.605 303.985L271.453 304.994C271.2 305.359 270.919 305.671 270.609 305.931C270.053 306.398 269.492 306.582 268.927 306.483C268.361 306.383 267.819 306.024 267.299 305.405L263.508 300.887L262.182 302L261.374 301.037L262.701 299.924L261.22 298.16L262.466 297.115Z" fill="black"/>
<path d="M3.42773 151.811H4.64941C5.41699 151.799 6.02051 151.597 6.45996 151.204C6.89941 150.812 7.11914 150.281 7.11914 149.613C7.11914 148.113 6.37207 147.363 4.87793 147.363C4.1748 147.363 3.6123 147.565 3.19043 147.97C2.77441 148.368 2.56641 148.898 2.56641 149.561H0.94043C0.94043 148.547 1.30957 147.706 2.04785 147.038C2.79199 146.364 3.73535 146.027 4.87793 146.027C6.08496 146.027 7.03125 146.347 7.7168 146.985C8.40234 147.624 8.74512 148.512 8.74512 149.648C8.74512 150.205 8.56348 150.744 8.2002 151.266C7.84277 151.787 7.35352 152.177 6.73242 152.435C7.43555 152.657 7.97754 153.026 8.3584 153.542C8.74512 154.058 8.93848 154.688 8.93848 155.432C8.93848 156.58 8.56348 157.491 7.81348 158.165C7.06348 158.839 6.08789 159.176 4.88672 159.176C3.68555 159.176 2.70703 158.851 1.95117 158.2C1.20117 157.55 0.826172 156.691 0.826172 155.625H2.46094C2.46094 156.299 2.68066 156.838 3.12012 157.242C3.55957 157.646 4.14844 157.849 4.88672 157.849C5.67188 157.849 6.27246 157.644 6.68848 157.233C7.10449 156.823 7.3125 156.234 7.3125 155.467C7.3125 154.723 7.08398 154.151 6.62695 153.753C6.16992 153.354 5.51074 153.149 4.64941 153.138H3.42773V151.811ZM19.1953 153.542C19.1953 155.446 18.8701 156.861 18.2197 157.787C17.5693 158.713 16.5527 159.176 15.1699 159.176C13.8047 159.176 12.7939 158.725 12.1377 157.822C11.4814 156.914 11.1416 155.561 11.1182 153.762V151.591C11.1182 149.71 11.4434 148.312 12.0938 147.398C12.7441 146.484 13.7637 146.027 15.1523 146.027C16.5293 146.027 17.543 146.47 18.1934 147.354C18.8438 148.233 19.1777 149.593 19.1953 151.433V153.542ZM17.5693 151.318C17.5693 149.941 17.376 148.939 16.9893 148.312C16.6025 147.68 15.9902 147.363 15.1523 147.363C14.3203 147.363 13.7139 147.677 13.333 148.304C12.9521 148.931 12.7559 149.895 12.7441 151.195V153.797C12.7441 155.18 12.9434 156.202 13.3418 156.864C13.7461 157.521 14.3555 157.849 15.1699 157.849C15.9727 157.849 16.5674 157.538 16.9541 156.917C17.3467 156.296 17.5518 155.317 17.5693 153.981V151.318ZM21.1377 148.664C21.1377 147.896 21.3809 147.264 21.8672 146.766C22.3594 146.268 22.9893 146.019 23.7568 146.019C24.5361 146.019 25.166 146.271 25.6465 146.774C26.1328 147.272 26.376 147.92 26.376 148.717V149.341C26.376 150.114 26.1299 150.747 25.6377 151.239C25.1514 151.726 24.5303 151.969 23.7744 151.969C23.0127 151.969 22.3828 151.726 21.8848 151.239C21.3867 150.747 21.1377 150.094 21.1377 149.279V148.664ZM22.3506 149.341C22.3506 149.798 22.4795 150.176 22.7373 150.475C22.9951 150.768 23.3408 150.914 23.7744 150.914C24.1904 150.914 24.5244 150.771 24.7764 150.483C25.0342 150.196 25.1631 149.804 25.1631 149.306V148.664C25.1631 148.207 25.0371 147.829 24.7852 147.53C24.5332 147.231 24.1904 147.082 23.7568 147.082C23.3232 147.082 22.9805 147.231 22.7285 147.53C22.4766 147.829 22.3506 148.219 22.3506 148.699V149.341ZM27.3691 155.862C27.3691 155.095 27.6123 154.465 28.0986 153.973C28.5908 153.475 29.2207 153.226 29.9883 153.226C30.7559 153.226 31.3857 153.472 31.8779 153.964C32.3701 154.456 32.6162 155.109 32.6162 155.924V156.548C32.6162 157.315 32.3701 157.948 31.8779 158.446C31.3916 158.938 30.7676 159.185 30.0059 159.185C29.2441 159.185 28.6143 158.941 28.1162 158.455C27.6182 157.963 27.3691 157.31 27.3691 156.495V155.862ZM28.582 156.548C28.582 157.011 28.7109 157.392 28.9688 157.69C29.2266 157.983 29.5723 158.13 30.0059 158.13C30.4277 158.13 30.7646 157.986 31.0166 157.699C31.2686 157.406 31.3945 157.011 31.3945 156.513V155.862C31.3945 155.399 31.2656 155.021 31.0078 154.729C30.7559 154.436 30.416 154.289 29.9883 154.289C29.5723 154.289 29.2324 154.436 28.9688 154.729C28.7109 155.016 28.582 155.405 28.582 155.897V156.548ZM24.1436 158.033L23.2207 157.453L29.4697 147.451L30.3926 148.031L24.1436 158.033Z" fill="black"/>
<path d="M1.81055 101.584L2.46094 95.2031H9.01758V96.7061H3.84082L3.4541 100.195C4.08105 99.8262 4.79297 99.6416 5.58984 99.6416C6.75586 99.6416 7.68164 100.028 8.36719 100.802C9.05273 101.569 9.39551 102.609 9.39551 103.922C9.39551 105.24 9.03809 106.28 8.32324 107.042C7.61426 107.798 6.62109 108.176 5.34375 108.176C4.21289 108.176 3.29004 107.862 2.5752 107.235C1.86035 106.608 1.45312 105.741 1.35352 104.634H2.8916C2.99121 105.366 3.25195 105.92 3.67383 106.295C4.0957 106.664 4.65234 106.849 5.34375 106.849C6.09961 106.849 6.69141 106.591 7.11914 106.075C7.55273 105.56 7.76953 104.848 7.76953 103.939C7.76953 103.084 7.53516 102.398 7.06641 101.883C6.60352 101.361 5.98535 101.101 5.21191 101.101C4.50293 101.101 3.94629 101.256 3.54199 101.566L3.11133 101.918L1.81055 101.584ZM19.1953 102.542C19.1953 104.446 18.8701 105.861 18.2197 106.787C17.5693 107.713 16.5527 108.176 15.1699 108.176C13.8047 108.176 12.7939 107.725 12.1377 106.822C11.4814 105.914 11.1416 104.561 11.1182 102.762V100.591C11.1182 98.71 11.4434 97.3125 12.0938 96.3984C12.7441 95.4844 13.7637 95.0273 15.1523 95.0273C16.5293 95.0273 17.543 95.4697 18.1934 96.3545C18.8438 97.2334 19.1777 98.5928 19.1953 100.433V102.542ZM17.5693 100.318C17.5693 98.9414 17.376 97.9395 16.9893 97.3125C16.6025 96.6797 15.9902 96.3633 15.1523 96.3633C14.3203 96.3633 13.7139 96.6768 13.333 97.3037C12.9521 97.9307 12.7559 98.8945 12.7441 100.195V102.797C12.7441 104.18 12.9434 105.202 13.3418 105.864C13.7461 106.521 14.3555 106.849 15.1699 106.849C15.9727 106.849 16.5674 106.538 16.9541 105.917C17.3467 105.296 17.5518 104.317 17.5693 102.981V100.318ZM21.1377 97.6641C21.1377 96.8965 21.3809 96.2637 21.8672 95.7656C22.3594 95.2676 22.9893 95.0186 23.7568 95.0186C24.5361 95.0186 25.166 95.2705 25.6465 95.7744C26.1328 96.2725 26.376 96.9199 26.376 97.7168V98.3408C26.376 99.1143 26.1299 99.7471 25.6377 100.239C25.1514 100.726 24.5303 100.969 23.7744 100.969C23.0127 100.969 22.3828 100.726 21.8848 100.239C21.3867 99.7471 21.1377 99.0938 21.1377 98.2793V97.6641ZM22.3506 98.3408C22.3506 98.7979 22.4795 99.1758 22.7373 99.4746C22.9951 99.7676 23.3408 99.9141 23.7744 99.9141C24.1904 99.9141 24.5244 99.7705 24.7764 99.4834C25.0342 99.1963 25.1631 98.8037 25.1631 98.3057V97.6641C25.1631 97.207 25.0371 96.8291 24.7852 96.5303C24.5332 96.2314 24.1904 96.082 23.7568 96.082C23.3232 96.082 22.9805 96.2314 22.7285 96.5303C22.4766 96.8291 22.3506 97.2188 22.3506 97.6992V98.3408ZM27.3691 104.862C27.3691 104.095 27.6123 103.465 28.0986 102.973C28.5908 102.475 29.2207 102.226 29.9883 102.226C30.7559 102.226 31.3857 102.472 31.8779 102.964C32.3701 103.456 32.6162 104.109 32.6162 104.924V105.548C32.6162 106.315 32.3701 106.948 31.8779 107.446C31.3916 107.938 30.7676 108.185 30.0059 108.185C29.2441 108.185 28.6143 107.941 28.1162 107.455C27.6182 106.963 27.3691 106.31 27.3691 105.495V104.862ZM28.582 105.548C28.582 106.011 28.7109 106.392 28.9688 106.69C29.2266 106.983 29.5723 107.13 30.0059 107.13C30.4277 107.13 30.7646 106.986 31.0166 106.699C31.2686 106.406 31.3945 106.011 31.3945 105.513V104.862C31.3945 104.399 31.2656 104.021 31.0078 103.729C30.7559 103.436 30.416 103.289 29.9883 103.289C29.5723 103.289 29.2324 103.436 28.9688 103.729C28.7109 104.016 28.582 104.405 28.582 104.897V105.548ZM24.1436 107.033L23.2207 106.453L29.4697 96.4512L30.3926 97.0312L24.1436 107.033Z" fill="black"/>
<path d="M7.44434 54.1943V55.5742H7.14551C5.87988 55.5977 4.87207 55.9727 4.12207 56.6992C3.37207 57.4258 2.93848 58.4482 2.82129 59.7666C3.49512 58.9932 4.41504 58.6064 5.58105 58.6064C6.69434 58.6064 7.58203 58.999 8.24414 59.7842C8.91211 60.5693 9.24609 61.583 9.24609 62.8252C9.24609 64.1436 8.88574 65.1982 8.16504 65.9893C7.4502 66.7803 6.48926 67.1758 5.28223 67.1758C4.05762 67.1758 3.06445 66.707 2.30273 65.7695C1.54102 64.8262 1.16016 63.6133 1.16016 62.1309V61.5068C1.16016 59.1514 1.66113 57.3525 2.66309 56.1104C3.6709 54.8623 5.16797 54.2236 7.1543 54.1943H7.44434ZM5.30859 59.96C4.75195 59.96 4.23926 60.127 3.77051 60.4609C3.30176 60.7949 2.97656 61.2139 2.79492 61.7178V62.3154C2.79492 63.3701 3.03223 64.2197 3.50684 64.8643C3.98145 65.5088 4.57324 65.8311 5.28223 65.8311C6.01465 65.8311 6.58887 65.5615 7.00488 65.0225C7.42676 64.4834 7.6377 63.7773 7.6377 62.9043C7.6377 62.0254 7.42383 61.3164 6.99609 60.7773C6.57422 60.2324 6.01172 59.96 5.30859 59.96ZM11.918 60.584L12.5684 54.2031H19.125V55.7061H13.9482L13.5615 59.1953C14.1885 58.8262 14.9004 58.6416 15.6973 58.6416C16.8633 58.6416 17.7891 59.0283 18.4746 59.8018C19.1602 60.5693 19.5029 61.6094 19.5029 62.9219C19.5029 64.2402 19.1455 65.2803 18.4307 66.042C17.7217 66.7979 16.7285 67.1758 15.4512 67.1758C14.3203 67.1758 13.3975 66.8623 12.6826 66.2354C11.9678 65.6084 11.5605 64.7412 11.4609 63.6338H12.999C13.0986 64.3662 13.3594 64.9199 13.7812 65.2949C14.2031 65.6641 14.7598 65.8486 15.4512 65.8486C16.207 65.8486 16.7988 65.5908 17.2266 65.0752C17.6602 64.5596 17.877 63.8477 17.877 62.9395C17.877 62.084 17.6426 61.3984 17.1738 60.8828C16.7109 60.3613 16.0928 60.1006 15.3193 60.1006C14.6104 60.1006 14.0537 60.2559 13.6494 60.5664L13.2188 60.918L11.918 60.584ZM21.1377 56.6641C21.1377 55.8965 21.3809 55.2637 21.8672 54.7656C22.3594 54.2676 22.9893 54.0186 23.7568 54.0186C24.5361 54.0186 25.166 54.2705 25.6465 54.7744C26.1328 55.2725 26.376 55.9199 26.376 56.7168V57.3408C26.376 58.1143 26.1299 58.7471 25.6377 59.2393C25.1514 59.7256 24.5303 59.9688 23.7744 59.9688C23.0127 59.9688 22.3828 59.7256 21.8848 59.2393C21.3867 58.7471 21.1377 58.0938 21.1377 57.2793V56.6641ZM22.3506 57.3408C22.3506 57.7979 22.4795 58.1758 22.7373 58.4746C22.9951 58.7676 23.3408 58.9141 23.7744 58.9141C24.1904 58.9141 24.5244 58.7705 24.7764 58.4834C25.0342 58.1963 25.1631 57.8037 25.1631 57.3057V56.6641C25.1631 56.207 25.0371 55.8291 24.7852 55.5303C24.5332 55.2314 24.1904 55.082 23.7568 55.082C23.3232 55.082 22.9805 55.2314 22.7285 55.5303C22.4766 55.8291 22.3506 56.2188 22.3506 56.6992V57.3408ZM27.3691 63.8623C27.3691 63.0947 27.6123 62.4648 28.0986 61.9727C28.5908 61.4746 29.2207 61.2256 29.9883 61.2256C30.7559 61.2256 31.3857 61.4717 31.8779 61.9639C32.3701 62.4561 32.6162 63.1094 32.6162 63.9238V64.5479C32.6162 65.3154 32.3701 65.9482 31.8779 66.4463C31.3916 66.9385 30.7676 67.1846 30.0059 67.1846C29.2441 67.1846 28.6143 66.9414 28.1162 66.4551C27.6182 65.9629 27.3691 65.3096 27.3691 64.4951V63.8623ZM28.582 64.5479C28.582 65.0107 28.7109 65.3916 28.9688 65.6904C29.2266 65.9834 29.5723 66.1299 30.0059 66.1299C30.4277 66.1299 30.7646 65.9863 31.0166 65.6992C31.2686 65.4062 31.3945 65.0107 31.3945 64.5127V63.8623C31.3945 63.3994 31.2656 63.0215 31.0078 62.7285C30.7559 62.4355 30.416 62.2891 29.9883 62.2891C29.5723 62.2891 29.2324 62.4355 28.9688 62.7285C28.7109 63.0156 28.582 63.4053 28.582 63.8975V64.5479ZM24.1436 66.0332L23.2207 65.4531L29.4697 55.4512L30.3926 56.0312L24.1436 66.0332Z" fill="black"/>
</svg>
