<svg width="351" height="138" viewBox="0 0 351 138" fill="none" xmlns="http://www.w3.org/2000/svg">
<line y1="-0.1" x2="110.428" y2="-0.1" transform="matrix(0.554546 -0.832153 0.837963 0.545727 289.015 106.713)" stroke="black" stroke-width="0.2"/>
<line y1="-0.15" x2="82.8341" y2="-0.15" transform="matrix(0.651295 0.758825 -0.766162 0.642648 222.542 42.9044)" stroke="black" stroke-width="0.3"/>
<ellipse rx="8.09519" ry="7.70704" transform="matrix(0.0146298 0.999893 -0.999898 0.0142974 102.619 47.0573)" fill="#C4C4C4"/>
<path d="M101.247 55.2566L127.648 133.856" stroke="black" stroke-width="0.2"/>
<line y1="-0.1" x2="180.916" y2="-0.1" transform="matrix(0.681604 0.731721 -0.73948 0.673178 0 4.8092)" stroke="black" stroke-width="0.2"/>
<line y1="-0.1" x2="110.428" y2="-0.1" transform="matrix(0.554546 -0.832153 0.837963 0.545727 289.015 106.713)" stroke="black" stroke-width="0.2"/>
<ellipse cx="216.861" cy="37.5" rx="8" ry="8.5" fill="#C4C4C4"/>
<line y1="-0.15" x2="82.8341" y2="-0.15" transform="matrix(0.651295 0.758825 -0.766162 0.642648 222.542 42.9044)" stroke="black" stroke-width="0.3"/>
<ellipse rx="8.09519" ry="7.70704" transform="matrix(0.0146298 0.999893 -0.999898 0.0142974 102.619 47.0573)" fill="#C4C4C4"/>
<line y1="-0.1" x2="101.953" y2="-0.1" transform="matrix(0.911201 0.411961 -0.419868 0.907585 2.89062 1)" stroke="black" stroke-width="0.2"/>
<path d="M101.247 55.2566L127.802 134.304" stroke="black" stroke-width="0.2"/>
<line y1="-0.1" x2="180.916" y2="-0.1" transform="matrix(0.681604 0.731721 -0.73948 0.673178 0 4.8092)" stroke="black" stroke-width="0.2"/>
</svg>
