<svg width="312" height="135" viewBox="0 0 312 135" fill="none" xmlns="http://www.w3.org/2000/svg">
<ellipse rx="5.68809" ry="5.35419" transform="matrix(0.0136135 0.999907 -0.999882 0.0153648 107.778 8.27179)" fill="#C4C4C4" fill-opacity="0.5"/>
<circle cx="244.862" cy="49" r="6" fill="#C4C4C4"/>
<circle cx="196.362" cy="71.5" r="5.5" fill="#C4C4C4" fill-opacity="0.2"/>
<line y1="-0.1" x2="61.2836" y2="-0.1" transform="matrix(0.773428 0.633884 -0.587573 0.809171 192.698 7.479)" stroke="black" stroke-opacity="0.2" stroke-width="0.2"/>
<line y1="-0.1" x2="80.7249" y2="-0.1" transform="matrix(0.526998 -0.849866 0.819276 0.573399 199.39 122.664)" stroke="black" stroke-opacity="0.2" stroke-width="0.2"/>
<line y1="-0.1" x2="64.0807" y2="-0.1" transform="matrix(0.945607 -0.325312 0.274097 0.961702 248.971 45.6528)" stroke="black" stroke-opacity="0.2" stroke-width="0.2"/>
<line y1="-0.1" x2="55.9618" y2="-0.1" transform="matrix(0.131248 0.99135 -0.987471 0.157803 188.682 9.67627)" stroke="black" stroke-opacity="0.2" stroke-width="0.2"/>
<path d="M192.862 5.5C192.862 8.53757 190.399 11 187.362 11C184.324 11 181.862 8.53757 181.862 5.5C181.862 2.46243 184.324 0 187.362 0C190.399 0 192.862 2.46243 192.862 5.5Z" fill="#C4C4C4"/>
<line y1="-0.1" x2="120.579" y2="-0.1" transform="matrix(0.988263 0.152761 -0.135687 0.990752 192.698 4.63477)" stroke="black" stroke-opacity="0.2" stroke-width="0.2"/>
<ellipse cx="149.362" cy="71" rx="5.5" ry="6" fill="#C4C4C4"/>
<ellipse cx="114.862" cy="29.5" rx="5" ry="5.5" fill="#C4C4C4"/>
<line y1="-0.1" x2="68.5439" y2="-0.1" transform="matrix(0.412489 -0.910962 0.89045 0.455082 83.6072 97.0674)" stroke="black" stroke-opacity="0.2" stroke-width="0.2"/>
<line y1="-0.1" x2="66.4411" y2="-0.1" transform="matrix(0.949258 -0.314498 0.281655 0.959516 118.92 26.2412)" stroke="black" stroke-opacity="0.2" stroke-width="0.2"/>
<line y1="-0.1" x2="134.045" y2="-0.1" transform="matrix(0.713975 -0.700172 0.655879 0.754866 86.9539 102.045)" stroke="black" stroke-opacity="0.2" stroke-width="0.2"/>
<line y1="-0.15" x2="60.057" y2="-0.15" transform="matrix(0.624055 0.78138 -0.742769 0.669548 153.211 75.0259)" stroke="black" stroke-opacity="0.2" stroke-width="0.3"/>
<ellipse rx="6.0436" ry="5.35419" transform="matrix(0.0136135 0.999907 -0.999882 0.0153648 69.9001 78.1263)" fill="#C4C4C4"/>
<ellipse rx="5.68809" ry="5.35419" transform="matrix(0.0136135 0.999907 -0.999882 0.0153648 48.8826 24.6248)" fill="#C4C4C4" fill-opacity="0.2"/>
<line y1="-0.1" x2="55.6401" y2="-0.1" transform="matrix(-0.682417 0.730963 -0.688378 -0.725352 110.378 32.3643)" stroke="black" stroke-opacity="0.2" stroke-width="0.2"/>
<line y1="-0.1" x2="71.7522" y2="-0.1" transform="matrix(0.899454 0.437015 -0.395397 0.91851 0.618652 43.7407)" stroke="black" stroke-opacity="0.2" stroke-width="0.2"/>
<line y1="-0.1" x2="130.791" y2="-0.1" transform="matrix(0.654981 0.755645 -0.714814 0.699314 0 46.585)" stroke="black" stroke-opacity="0.2" stroke-width="0.2"/>
<line y1="-0.1" x2="52.2469" y2="-0.1" transform="matrix(-0.986345 0.164692 -0.146344 -0.989234 104.355 12.4561)" stroke="black" stroke-opacity="0.2" stroke-width="0.2"/>
<path d="M16 45C16 49.4183 12.4183 53 8 53C3.58172 53 0 49.4183 0 45C0 40.5817 3.58172 37 8 37C12.4183 37 16 40.5817 16 45Z" fill="#C4C4C4"/>
<ellipse rx="5.68809" ry="5.35419" transform="matrix(0.0136135 0.999907 -0.999882 0.0153648 107.778 8.27179)" fill="#C4C4C4" fill-opacity="0.5"/>
<circle cx="244.862" cy="49" r="6" fill="#C4C4C4"/>
<circle cx="196.362" cy="71.5" r="5.5" fill="#C4C4C4" fill-opacity="0.2"/>
<line y1="-0.1" x2="61.2836" y2="-0.1" transform="matrix(0.773428 0.633884 -0.587573 0.809171 192.698 7.479)" stroke="black" stroke-opacity="0.2" stroke-width="0.2"/>
<line y1="-0.1" x2="80.7249" y2="-0.1" transform="matrix(0.526998 -0.849866 0.819276 0.573399 199.39 122.664)" stroke="black" stroke-opacity="0.2" stroke-width="0.2"/>
<line y1="-0.1" x2="55.9618" y2="-0.1" transform="matrix(0.131248 0.99135 -0.987471 0.157803 188.682 9.67627)" stroke="black" stroke-opacity="0.2" stroke-width="0.2"/>
<path d="M192.862 5.5C192.862 8.53757 190.399 11 187.362 11C184.324 11 181.862 8.53757 181.862 5.5C181.862 2.46243 184.324 0 187.362 0C190.399 0 192.862 2.46243 192.862 5.5Z" fill="#C4C4C4"/>
<line y1="-0.1" x2="120.579" y2="-0.1" transform="matrix(0.988263 0.152761 -0.135687 0.990752 192.698 4.63477)" stroke="black" stroke-opacity="0.2" stroke-width="0.2"/>
<ellipse cx="149.362" cy="71" rx="5.5" ry="6" fill="#C4C4C4"/>
<ellipse cx="114.862" cy="29.5" rx="5" ry="5.5" fill="#C4C4C4"/>
<line y1="-0.1" x2="68.5439" y2="-0.1" transform="matrix(0.412489 -0.910962 0.89045 0.455082 83.6072 97.0674)" stroke="black" stroke-opacity="0.2" stroke-width="0.2"/>
<line y1="-0.1" x2="66.4411" y2="-0.1" transform="matrix(0.949258 -0.314498 0.281655 0.959516 118.92 26.2412)" stroke="black" stroke-opacity="0.2" stroke-width="0.2"/>
<line y1="-0.1" x2="134.045" y2="-0.1" transform="matrix(0.713975 -0.700172 0.655879 0.754866 86.9539 102.045)" stroke="black" stroke-opacity="0.2" stroke-width="0.2"/>
<line y1="-0.15" x2="60.057" y2="-0.15" transform="matrix(0.624055 0.78138 -0.742769 0.669548 153.211 75.0259)" stroke="black" stroke-opacity="0.2" stroke-width="0.3"/>
<ellipse rx="6.0436" ry="5.35419" transform="matrix(0.0136135 0.999907 -0.999882 0.0153648 69.9001 78.1263)" fill="#C4C4C4"/>
<ellipse rx="5.68809" ry="5.35419" transform="matrix(0.0136135 0.999907 -0.999882 0.0153648 48.8826 24.6248)" fill="#C4C4C4" fill-opacity="0.2"/>
<line y1="-0.1" x2="55.6401" y2="-0.1" transform="matrix(-0.682417 0.730963 -0.688378 -0.725352 110.378 32.3643)" stroke="black" stroke-opacity="0.2" stroke-width="0.2"/>
<line y1="-0.1" x2="52.2469" y2="-0.1" transform="matrix(-0.986345 0.164692 -0.146344 -0.989234 104.355 12.4561)" stroke="black" stroke-opacity="0.2" stroke-width="0.2"/>
</svg>
