<svg width="90" height="195" viewBox="0 0 90 195" fill="none" xmlns="http://www.w3.org/2000/svg">
<path d="M66.8065 6.00248C65.2594 6.00384 64.0041 4.66181 64.0026 3.00496C64.0012 1.3481 65.2542 0.00384712 66.8013 0.00247836C68.3484 0.0011096 69.6037 1.34315 69.6052 3C69.6066 4.65685 68.3536 6.00111 66.8065 6.00248Z" fill="#FFE4C4"/>
<ellipse rx="3.0859" ry="3.24792" transform="matrix(0.00102964 0.999999 -1 0.000752873 30.2011 53.6989)" fill="#98FB98"/>
<ellipse rx="3.0859" ry="3.24792" transform="matrix(0.00102964 0.999999 -1 0.000752873 15.8358 121.6)" fill="#852541" fill-opacity="0.5"/>
<ellipse rx="3.39449" ry="3.24792" transform="matrix(0.00102964 0.999999 -1 0.000752873 62.781 151.497)" fill="#B0E0E6"/>
<ellipse rx="3.0859" ry="3.24792" transform="matrix(0.00102964 0.999999 -1 0.000752873 49.0375 122.192)" fill="#FF1493" fill-opacity="0.2"/>
<ellipse rx="3.0859" ry="3.24792" transform="matrix(0.00102964 0.999999 -1 0.000752873 3.25111 57.0883)" fill="#FF1493" fill-opacity="0.2"/>
<line y1="-0.1" x2="36.971" y2="-0.1" transform="matrix(-0.638797 0.769376 -0.813779 -0.581175 88.0303 120.21)" stroke="black" stroke-width="0.2"/>
<line y1="-0.1" x2="48.9438" y2="-0.1" transform="matrix(0.85377 0.520651 -0.578346 0.815791 17.9204 124.277)" stroke="black" stroke-width="0.2"/>
<line y1="-0.1" x2="38.4963" y2="-0.1" transform="matrix(0.330593 0.943773 -0.962551 0.271101 64.8281 153.977)" stroke="black" stroke-width="0.2"/>
<line y1="-0.1" x2="34.0545" y2="-0.1" transform="matrix(-0.991501 0.130098 -0.161111 -0.986936 86.6902 117.803)" stroke="black" stroke-width="0.2"/>
<ellipse rx="3.39449" ry="3.6088" transform="matrix(0.00102964 0.999999 -1 0.000752873 49.3695 94.1098)" fill="#98FB98"/>
<ellipse rx="3.0859" ry="2.88704" transform="matrix(0.00102964 0.999999 -1 0.000752873 74.6098 73.4152)" fill="#B0E0E6"/>
<line y1="-0.1" x2="41.6234" y2="-0.1" transform="matrix(0.913562 0.406699 -0.459588 0.888132 33.4299 54.8257)" stroke="black" stroke-width="0.2"/>
<line y1="-0.1" x2="39.9101" y2="-0.1" transform="matrix(0.319674 0.947527 -0.960415 0.278573 76.564 75.9716)" stroke="black" stroke-width="0.2"/>
<line y1="-0.1" x2="80.995" y2="-0.1" transform="matrix(0.706081 0.708131 -0.759093 0.650982 30.4026 56.835)" stroke="black" stroke-width="0.2"/>
<line y1="-0.15" x2="36.3434" y2="-0.15" transform="matrix(-0.785337 0.619069 -0.675681 -0.737194 46.8896 96.5598)" stroke="black" stroke-width="0.3"/>
<ellipse rx="3.0859" ry="3.96968" transform="matrix(0.00102964 0.999999 -1 0.000752873 77.9798 191.911)" fill="#98FB98"/>
<ellipse rx="3.67875" ry="3.21115" transform="matrix(-0.9999 0.0141659 -0.0166239 -0.999862 44.9509 46.5963)" fill="#B0E0E6"/>
<line y1="-0.1" x2="33.6417" y2="-0.1" transform="matrix(-0.736587 -0.676343 0.729828 -0.683631 72.8315 70.8516)" stroke="black" stroke-width="0.2"/>
<line y1="-0.1" x2="43.1516" y2="-0.1" transform="matrix(-0.441403 0.897309 -0.920927 -0.389735 65.8386 5.02979)" stroke="black" stroke-width="0.2"/>
<path d="M41.2246 46.0276L5.51659 57.0544" stroke="black" stroke-width="0.2"/>
<line y1="-0.1" x2="79.1018" y2="-0.1" transform="matrix(-0.759864 0.650081 -0.705231 -0.708978 64.1067 3.82666)" stroke="black" stroke-width="0.2"/>
</svg>
