<svg width="500" height="300" viewBox="0 0 500 300" fill="none" xmlns="http://www.w3.org/2000/svg">
<g clip-path="url(#clip0)">
<path d="M251.604 300C387.184 300 497.092 291.971 497.092 282.068C497.092 272.164 387.184 264.136 251.604 264.136C116.025 264.136 6.1167 272.164 6.1167 282.068C6.1167 291.971 116.025 300 251.604 300Z" fill="#FBE9E0"/>
<path d="M242.195 85.7588C202.199 85.7588 173.482 114.073 173.482 180.138C173.482 255.013 202.199 274.832 242.195 274.832C282.192 274.832 312.62 253.125 312.62 180.138C312.62 102.118 282.192 85.7588 242.195 85.7588ZM242.458 249.979C214.756 249.979 200.283 232.046 200.283 180.187C200.283 134.428 215.348 110.297 243.051 110.297C270.753 110.297 285.819 126.148 285.819 180.187C285.819 230.739 270.161 249.979 242.458 249.979Z" fill="#2F2E41"/>
<path d="M149.532 222.609H132.995V168.877C132.995 166.023 131.967 163.286 130.138 161.268C128.309 159.25 125.829 158.116 123.242 158.116H119.368C118.087 158.116 116.819 158.395 115.635 158.935C114.452 159.476 113.377 160.269 112.471 161.268C111.566 162.267 110.848 163.453 110.357 164.759C109.867 166.065 109.615 167.464 109.615 168.877V222.609H62.97C62.0105 222.609 61.0672 222.335 60.2317 221.814C59.3962 221.294 58.6969 220.543 58.2016 219.636C57.7062 218.73 57.4318 217.697 57.4048 216.639C57.3778 215.58 57.5992 214.532 58.0474 213.596L107.416 110.496C108.032 109.211 108.405 107.801 108.513 106.352C108.621 104.903 108.462 103.445 108.045 102.066C107.628 100.687 106.963 99.4152 106.088 98.3278C105.214 97.2403 104.149 96.3596 102.957 95.7388L100.043 94.2203C97.7802 93.0412 95.193 92.8671 92.817 93.734C90.441 94.6009 88.4579 96.4425 87.2781 98.8777L27.0666 223.16C26.0413 225.277 25.5049 227.639 25.5049 230.039C25.5049 231.955 25.8469 233.853 26.5115 235.623C27.1761 237.393 28.1502 239.002 29.3781 240.357C30.6061 241.712 32.0639 242.787 33.6684 243.52C35.2728 244.253 36.9924 244.631 38.729 244.631H109.615V278.607C109.615 280.301 109.917 281.978 110.505 283.543C111.092 285.108 111.953 286.53 113.039 287.728C114.124 288.926 115.413 289.876 116.831 290.524C118.25 291.172 119.77 291.506 121.305 291.506H121.305C122.84 291.506 124.36 291.172 125.778 290.524C127.197 289.876 128.485 288.926 129.571 287.728C130.656 286.53 131.518 285.108 132.105 283.543C132.692 281.978 132.995 280.301 132.995 278.607V244.631H149.532C152.178 244.631 154.717 243.471 156.588 241.406C158.46 239.341 159.511 236.54 159.511 233.62C159.511 230.699 158.46 227.899 156.588 225.834C154.717 223.769 152.178 222.609 149.532 222.609Z" fill="#0E4749"/>
<path d="M455.75 222.609H439.213V168.877C439.213 166.023 438.185 163.286 436.356 161.268C434.527 159.25 432.047 158.116 429.46 158.116H425.585C424.305 158.116 423.037 158.395 421.853 158.935C420.67 159.476 419.595 160.269 418.689 161.268C417.784 162.267 417.066 163.453 416.575 164.759C416.085 166.065 415.833 167.464 415.833 168.877V222.609H369.188C368.228 222.609 367.285 222.335 366.45 221.814C365.614 221.294 364.915 220.543 364.42 219.636C363.924 218.73 363.65 217.697 363.623 216.639C363.596 215.58 363.817 214.532 364.265 213.596L413.634 110.496C414.249 109.211 414.623 107.801 414.731 106.352C414.839 104.903 414.68 103.445 414.263 102.066C413.846 100.687 413.181 99.4152 412.306 98.3278C411.432 97.2403 410.367 96.3596 409.175 95.7388L406.261 94.2203C403.998 93.0412 401.411 92.8671 399.035 93.734C396.659 94.6009 394.676 96.4425 393.496 98.8777L333.285 223.16C332.259 225.277 331.723 227.639 331.723 230.039C331.723 233.909 333.116 237.62 335.596 240.357C338.076 243.093 341.44 244.631 344.947 244.631H415.833V278.607C415.833 282.028 417.065 285.309 419.257 287.728C421.449 290.147 424.423 291.506 427.523 291.506C430.623 291.506 433.597 290.147 435.789 287.728C437.981 285.309 439.213 282.028 439.213 278.607V244.631H455.75C458.396 244.631 460.935 243.471 462.806 241.406C464.678 239.341 465.729 236.54 465.729 233.62C465.729 230.699 464.678 227.899 462.806 225.834C460.935 223.769 458.396 222.609 455.75 222.609Z" fill="#0E4749"/>
<path d="M154.094 216.317H137.557V162.585C137.557 161.172 137.305 159.773 136.814 158.467C136.324 157.162 135.606 155.975 134.7 154.976C133.795 153.977 132.72 153.184 131.537 152.644C130.353 152.103 129.085 151.824 127.804 151.824H123.93C121.343 151.824 118.862 152.958 117.033 154.976C115.205 156.994 114.177 159.731 114.177 162.585V216.317H67.532C66.5725 216.317 65.6292 216.043 64.7937 215.523C63.9582 215.002 63.2589 214.252 62.7636 213.345C62.2683 212.438 61.9938 211.405 61.9668 210.347C61.9398 209.288 62.1612 208.24 62.6094 207.304L111.978 104.204C112.594 102.919 112.967 101.509 113.075 100.06C113.183 98.6115 113.024 97.1535 112.607 95.7744C112.19 94.3952 111.525 93.1235 110.65 92.036C109.776 90.9485 108.711 90.0678 107.52 89.4471L104.605 87.9286C102.342 86.7495 99.7551 86.5754 97.379 87.4423C95.003 88.3092 93.0199 90.1507 91.8401 92.586L31.6286 216.869C30.6033 218.985 30.0669 221.348 30.0669 223.747V223.747C30.0669 227.617 31.4602 231.329 33.9402 234.065C36.4202 236.802 39.7838 238.339 43.291 238.339H114.177V272.315C114.177 274.009 114.479 275.687 115.067 277.251C115.654 278.816 116.515 280.238 117.601 281.436C118.686 282.634 119.975 283.584 121.393 284.232C122.812 284.88 124.332 285.214 125.867 285.214H125.867C128.967 285.214 131.941 283.855 134.133 281.436C136.325 279.017 137.557 275.736 137.557 272.315V238.339H154.094C155.404 238.339 156.702 238.054 157.913 237.501C159.123 236.947 160.223 236.136 161.15 235.114C162.077 234.091 162.812 232.878 163.313 231.542C163.815 230.206 164.073 228.774 164.073 227.328V227.328C164.073 225.882 163.815 224.45 163.313 223.114C162.812 221.778 162.077 220.565 161.15 219.542C160.223 218.52 159.123 217.709 157.913 217.155C156.702 216.602 155.404 216.317 154.094 216.317V216.317Z" stroke="#3F3D56" stroke-miterlimit="10"/>
<path d="M464.303 216.317H447.766V162.585C447.766 159.731 446.739 156.994 444.91 154.976C443.081 152.958 440.6 151.824 438.014 151.824H434.139C432.858 151.824 431.59 152.103 430.407 152.644C429.224 153.184 428.149 153.977 427.243 154.976C426.337 155.975 425.619 157.162 425.129 158.467C424.639 159.773 424.387 161.172 424.387 162.585V216.317H377.742C376.782 216.317 375.839 216.043 375.003 215.523C374.168 215.002 373.468 214.252 372.973 213.345C372.478 212.438 372.203 211.405 372.176 210.347C372.149 209.288 372.371 208.24 372.819 207.304L422.187 104.204C422.803 102.919 423.176 101.509 423.284 100.06C423.392 98.6115 423.233 97.1535 422.816 95.7744C422.4 94.3952 421.734 93.1235 420.86 92.036C419.985 90.9485 418.92 90.0678 417.729 89.4471L414.815 87.9286C412.552 86.7495 409.965 86.5754 407.588 87.4423C405.212 88.3092 403.229 90.1507 402.05 92.586L341.838 216.869C340.813 218.985 340.276 221.348 340.276 223.747C340.276 227.617 341.67 231.329 344.15 234.065C346.63 236.802 349.993 238.339 353.501 238.339H424.387V272.315C424.387 275.736 425.618 279.017 427.81 281.436C430.003 283.855 432.976 285.214 436.076 285.214V285.214C439.177 285.214 442.15 283.855 444.342 281.436C446.535 279.017 447.766 275.736 447.766 272.315V238.339H464.303C465.614 238.339 466.911 238.054 468.122 237.501C469.333 236.947 470.433 236.136 471.359 235.114C472.286 234.091 473.021 232.878 473.523 231.542C474.024 230.206 474.282 228.774 474.282 227.328V227.328C474.282 224.408 473.231 221.607 471.36 219.542C469.488 217.477 466.95 216.317 464.303 216.317V216.317Z" stroke="#3F3D56" stroke-miterlimit="10"/>
<path d="M251.319 80.0962C211.323 80.0962 182.605 108.41 182.605 174.476C182.605 249.35 211.323 269.17 251.319 269.17C291.316 269.17 321.744 247.462 321.744 174.476C321.744 96.4553 291.316 80.0962 251.319 80.0962ZM251.582 244.316C223.88 244.316 209.407 226.384 209.407 174.524C209.407 128.765 224.472 104.635 252.175 104.635C279.877 104.635 294.943 120.485 294.943 174.524C294.942 225.076 279.285 244.316 251.582 244.316V244.316Z" stroke="#3F3D56" stroke-miterlimit="10"/>
<path d="M268.171 94.5804C267.81 96.2202 266.25 97.5335 264.523 98.4511C260.892 100.38 256.414 100.956 252.07 101.149C250.962 101.223 249.85 101.201 248.745 101.081C246.604 100.853 244.595 99.8339 243.044 98.1896C242.933 98.1099 242.842 98.0006 242.78 97.8719C242.718 97.7431 242.687 97.5991 242.689 97.4532C242.691 97.3074 242.726 97.1645 242.792 97.0379C242.858 96.9113 242.951 96.8051 243.064 96.7293C245.377 93.9262 249.236 92.2074 253.124 90.9699C256.072 90.0315 261.213 87.6009 264.428 87.9289C267.542 88.2466 268.628 92.5099 268.171 94.5804Z" fill="#3F3D56"/>
<path opacity="0.1" d="M219.259 2.74658C219.333 2.74658 219.406 2.74981 219.479 2.75271C217.926 2.81501 216.455 3.5396 215.376 4.77401C214.298 6.00842 213.695 7.65643 213.695 9.37128C213.695 11.0861 214.298 12.7341 215.376 13.9685C216.455 15.203 217.926 15.9275 219.479 15.9898C219.406 15.9927 219.333 15.996 219.259 15.996C217.668 15.9944 216.142 15.2958 215.017 14.0536C213.893 12.8114 213.261 11.1273 213.261 9.37128C213.261 7.61531 213.893 5.93118 215.017 4.68897C216.142 3.44677 217.668 2.74813 219.259 2.74658Z" fill="black"/>
<path opacity="0.1" d="M239.019 20.6812C238.009 21.5217 236.778 21.9766 235.512 21.9773H228.487C227.221 21.9766 225.991 21.5217 224.98 20.6812H239.019Z" fill="black"/>
<path d="M284.387 68.6831C284.387 68.6831 285.9 73.4954 287.286 72.2141L286.181 65.9238L284.387 68.6831Z" fill="#FBBEBE"/>
<path d="M468.574 215.437C469.984 216.002 471.493 216.199 472.983 216.011C474.474 215.823 475.904 215.255 477.162 214.353C478.419 213.451 479.47 212.239 480.231 210.813C480.992 209.386 481.442 207.784 481.545 206.133C481.649 204.482 481.404 202.827 480.83 201.298C480.255 199.769 479.366 198.409 478.233 197.323C477.101 196.238 475.755 195.458 474.303 195.045C472.85 194.631 471.331 194.596 469.864 194.941L470.106 200.441L467.747 195.727C465.433 196.927 463.644 199.092 462.775 201.747C462.467 202.676 462.279 203.65 462.218 204.638C462.069 206.955 462.609 209.263 463.756 211.212C464.903 213.161 466.594 214.644 468.574 215.437Z" fill="#57B894"/>
<path d="M480.244 279.235C479.411 274.557 483.019 270.41 486.583 267.714C490.147 265.019 494.311 262.37 495.527 257.795C497.274 251.22 492.069 245.199 488.017 240.007C485.012 236.153 482.43 231.921 480.328 227.397C479.485 225.583 478.71 223.687 478.488 221.663C478.169 218.749 479.017 215.848 479.872 213.069C482.72 203.808 485.765 194.625 489.007 185.52" stroke="#3F3D56" stroke-miterlimit="10"/>
<path d="M468.973 214.02C470.382 214.586 471.892 214.782 473.382 214.594C474.873 214.406 476.303 213.839 477.561 212.937C478.818 212.035 479.869 210.823 480.63 209.396C481.39 207.97 481.84 206.368 481.944 204.717C482.048 203.066 481.803 201.41 481.228 199.882C480.654 198.353 479.765 196.992 478.632 195.907C477.5 194.822 476.154 194.042 474.702 193.628C473.249 193.215 471.73 193.179 470.263 193.524L470.505 199.025L468.146 194.311C465.831 195.511 464.043 197.676 463.174 200.33C462.866 201.26 462.678 202.233 462.617 203.221C462.468 205.539 463.008 207.847 464.155 209.796C465.302 211.744 466.993 213.228 468.973 214.02V214.02Z" stroke="#3F3D56" stroke-miterlimit="10"/>
<path d="M479.061 183.62C479.614 181.935 480.542 180.432 481.761 179.248C482.979 178.063 484.448 177.236 486.032 176.843L486.829 182.072L488.308 176.58C490.361 176.614 492.351 177.366 493.991 178.729C495.631 180.092 496.836 181.995 497.432 184.162C498.028 186.33 497.984 188.651 497.307 190.79C496.63 192.928 495.354 194.774 493.664 196.06C491.974 197.347 489.957 198.007 487.905 197.947C485.853 197.886 483.871 197.107 482.246 195.723C480.621 194.339 479.437 192.42 478.864 190.245C478.291 188.069 478.36 185.749 479.061 183.62H479.061Z" fill="#57B894"/>
<path d="M479.592 181.731C480.146 180.047 481.074 178.543 482.292 177.359C483.511 176.175 484.98 175.348 486.564 174.955L487.361 180.184L488.84 174.692C490.892 174.725 492.883 175.478 494.522 176.841C496.162 178.204 497.367 180.106 497.963 182.274C498.559 184.442 498.516 186.763 497.839 188.901C497.161 191.04 495.886 192.885 494.196 194.172C492.506 195.458 490.489 196.119 488.437 196.058C486.385 195.998 484.403 195.219 482.778 193.835C481.153 192.45 479.968 190.532 479.396 188.356C478.823 186.181 478.892 183.861 479.592 181.731H479.592Z" stroke="#3F3D56" stroke-miterlimit="10"/>
<path d="M486.317 240.113C488.553 241.008 491.009 240.964 493.217 239.989C495.425 239.014 497.231 237.177 498.29 234.827C499.35 232.478 499.589 229.78 498.961 227.249C498.334 224.718 496.884 222.53 494.889 221.102L493.753 225.322L492.947 220.031C492.939 220.027 492.931 220.024 492.923 220.021C491.727 219.542 490.457 219.327 489.186 219.389C487.915 219.451 486.667 219.789 485.515 220.383C484.362 220.977 483.327 221.817 482.468 222.852C481.609 223.888 480.944 225.101 480.51 226.421C480.076 227.74 479.882 229.142 479.939 230.544C479.996 231.947 480.303 233.323 480.842 234.594C481.382 235.866 482.143 237.008 483.082 237.955C484.022 238.902 485.121 239.635 486.317 240.113H486.317Z" fill="#57B894"/>
<path d="M486.778 238.2C489.014 239.095 491.47 239.051 493.678 238.076C495.886 237.101 497.692 235.264 498.751 232.914C499.811 230.565 500.049 227.867 499.422 225.336C498.795 222.805 497.345 220.617 495.35 219.189L494.214 223.41L493.408 218.119C493.4 218.114 493.392 218.111 493.384 218.108C492.188 217.629 490.918 217.414 489.647 217.476C488.376 217.538 487.128 217.876 485.976 218.47C484.823 219.065 483.788 219.904 482.929 220.94C482.07 221.976 481.405 223.188 480.971 224.508C480.537 225.828 480.343 227.229 480.4 228.631C480.457 230.034 480.764 231.41 481.303 232.682C481.843 233.953 482.604 235.095 483.543 236.042C484.483 236.989 485.582 237.722 486.778 238.2H486.778Z" stroke="#3F3D56" stroke-miterlimit="10"/>
<path d="M476.234 257.861C476.618 260.274 477.743 262.468 479.42 264.075C481.096 265.682 483.223 266.605 485.442 266.687C487.662 266.77 489.84 266.007 491.611 264.528C493.381 263.049 494.638 260.944 495.168 258.564C495.699 256.185 495.472 253.676 494.525 251.459C493.579 249.243 491.97 247.452 489.969 246.389C487.969 245.325 485.697 245.053 483.536 245.618C481.375 246.183 479.456 247.551 478.1 249.492L482.415 256.659L476.519 252.855C476.062 254.474 475.964 256.191 476.234 257.861Z" fill="#57B894"/>
<path d="M476.633 256.444C477.017 258.858 478.142 261.052 479.819 262.659C481.495 264.266 483.622 265.188 485.841 265.271C488.061 265.353 490.239 264.591 492.01 263.112C493.781 261.633 495.037 259.527 495.567 257.148C496.098 254.768 495.871 252.26 494.924 250.043C493.978 247.826 492.369 246.036 490.369 244.972C488.368 243.909 486.096 243.637 483.935 244.202C481.774 244.767 479.855 246.135 478.499 248.076L482.815 255.242L476.918 251.438C476.461 253.058 476.363 254.775 476.633 256.444V256.444Z" stroke="#3F3D56" stroke-miterlimit="10"/>
<path d="M4.19252 241.471C5.11876 241.842 6.11056 241.971 7.08973 241.848C8.0689 241.724 9.00868 241.351 9.83501 240.759C10.6613 240.166 11.3516 239.37 11.8514 238.432C12.3512 237.495 12.6469 236.443 12.7152 235.358C12.7835 234.273 12.6224 233.186 12.2448 232.181C11.8672 231.177 11.2833 230.283 10.5391 229.57C9.79499 228.857 8.91092 228.344 7.95662 228.072C7.00232 227.801 6.00387 227.777 5.03998 228.004L5.19926 231.618L3.64961 228.521C2.12871 229.309 0.953757 230.732 0.382942 232.476C0.180222 233.087 0.056983 233.726 0.0169021 234.375C-0.0809127 235.898 0.273804 237.415 1.0273 238.695C1.78079 239.975 2.89199 240.95 4.19252 241.471Z" fill="#57B894"/>
<path d="M11.8595 283.388C11.3124 280.314 13.6828 277.589 16.0242 275.818C18.3656 274.047 21.1014 272.307 21.9003 269.301C23.0484 264.981 19.6285 261.025 16.9666 257.614C14.9918 255.082 13.2958 252.301 11.9143 249.329C11.3137 248.161 10.9046 246.886 10.7059 245.561C10.496 243.647 11.0535 241.741 11.6152 239.915C13.4863 233.831 15.4868 227.797 17.6168 221.815" stroke="#3F3D56" stroke-miterlimit="10"/>
<path d="M4.45376 240.54C5.38 240.911 6.37179 241.041 7.35096 240.917C8.33013 240.793 9.26991 240.421 10.0962 239.828C10.9226 239.235 11.6128 238.439 12.1126 237.502C12.6125 236.565 12.9081 235.512 12.9764 234.427C13.0447 233.342 12.8837 232.255 12.506 231.25C12.1284 230.246 11.5445 229.352 10.8004 228.639C10.0562 227.926 9.17214 227.414 8.21785 227.142C7.26355 226.87 6.2651 226.847 5.30121 227.074L5.4605 230.688L3.91084 227.59C2.38994 228.379 1.21499 229.801 0.644173 231.545C0.441455 232.156 0.318218 232.796 0.278135 233.445C0.180313 234.967 0.535027 236.484 1.28852 237.764C2.04202 239.045 3.15322 240.019 4.45376 240.54V240.54Z" stroke="#3F3D56" stroke-miterlimit="10"/>
<path d="M11.0818 220.566C11.4453 219.46 12.0554 218.472 12.8558 217.693C13.6563 216.915 14.6213 216.372 15.6621 216.114L16.186 219.549L17.1575 215.941C18.5062 215.963 19.8137 216.457 20.8912 217.353C21.9687 218.248 22.7604 219.498 23.152 220.923C23.5436 222.347 23.5148 223.872 23.0699 225.277C22.625 226.682 21.7868 227.895 20.6766 228.74C19.5663 229.585 18.2413 230.019 16.8928 229.979C15.5444 229.939 14.2424 229.428 13.1746 228.518C12.1069 227.609 11.3288 226.348 10.9526 224.919C10.5765 223.49 10.6217 221.965 11.0818 220.566Z" fill="#57B894"/>
<path d="M11.4314 219.326C11.7949 218.219 12.405 217.231 13.2054 216.453C14.0059 215.675 14.9709 215.132 16.0117 214.873L16.5357 218.309L17.5071 214.7C18.8558 214.723 20.1633 215.217 21.2408 216.112C22.3183 217.008 23.11 218.258 23.5016 219.682C23.8932 221.106 23.8644 222.631 23.4195 224.036C22.9746 225.441 22.1364 226.654 21.0262 227.499C19.9159 228.345 18.5909 228.779 17.2424 228.739C15.894 228.699 14.592 228.187 13.5243 227.278C12.4565 226.368 11.6784 225.108 11.3022 223.678C10.9261 222.249 10.9713 220.725 11.4314 219.326V219.326Z" stroke="#3F3D56" stroke-miterlimit="10"/>
<path d="M15.8498 257.683C17.3187 258.271 18.9324 258.242 20.3831 257.602C21.8339 256.961 23.0204 255.754 23.7164 254.21C24.4124 252.667 24.5693 250.894 24.1572 249.231C23.745 247.568 22.7927 246.131 21.4816 245.193L20.7352 247.966L20.2059 244.489C20.2007 244.487 20.1953 244.484 20.1897 244.483C19.404 244.167 18.5697 244.026 17.7345 244.067C16.8992 244.107 16.0794 244.329 15.322 244.72C14.5645 245.11 13.8842 245.661 13.3199 246.342C12.7556 247.023 12.3184 247.819 12.0333 248.687C11.7482 249.554 11.6207 250.475 11.6583 251.396C11.6958 252.318 11.8975 253.222 12.252 254.058C12.6064 254.893 13.1066 255.643 13.7239 256.265C14.3412 256.887 15.0636 257.369 15.8498 257.683Z" fill="#57B894"/>
<path d="M16.1523 256.427C17.6212 257.015 19.2348 256.986 20.6856 256.345C22.1364 255.705 23.3229 254.498 24.0189 252.954C24.7149 251.41 24.8718 249.638 24.4597 247.975C24.0475 246.312 23.0952 244.874 21.7841 243.936L21.0377 246.709L20.5084 243.233C20.5032 243.23 20.4978 243.228 20.4922 243.226C19.7067 242.912 18.8727 242.771 18.0379 242.812C17.2031 242.853 16.3838 243.076 15.6269 243.466C14.0981 244.255 12.9159 245.682 12.3404 247.432C11.7649 249.183 11.8432 251.114 12.5581 252.8C13.2729 254.487 14.5658 255.792 16.1523 256.427V256.427Z" stroke="#3F3D56" stroke-miterlimit="10"/>
<path d="M9.22471 269.344C9.47728 270.93 10.2163 272.371 11.3179 273.427C12.4195 274.483 13.8166 275.089 15.2749 275.143C16.7333 275.197 18.1641 274.697 19.3276 273.725C20.491 272.753 21.3163 271.37 21.665 269.806C22.0137 268.243 21.8645 266.595 21.2426 265.138C20.6207 263.682 19.5639 262.505 18.2493 261.807C16.9347 261.108 15.4423 260.929 14.0225 261.3C12.6026 261.672 11.3416 262.57 10.451 263.846L13.2862 268.554L9.41223 266.055C9.11185 267.119 9.04754 268.247 9.22471 269.344Z" fill="#57B894"/>
<path d="M9.48692 268.413C9.73949 269.999 10.4785 271.441 11.5801 272.497C12.6817 273.552 14.0788 274.158 15.5371 274.212C16.9955 274.267 18.4263 273.766 19.5898 272.794C20.7533 271.822 21.5785 270.439 21.9272 268.876C22.2759 267.312 22.1268 265.664 21.5048 264.208C20.8829 262.751 19.8261 261.575 18.5115 260.876C17.1969 260.177 15.7045 259.999 14.2847 260.37C12.8648 260.741 11.6038 261.64 10.7132 262.915L13.5484 267.624L9.67443 265.124C9.37406 266.188 9.30975 267.316 9.48692 268.413V268.413Z" stroke="#3F3D56" stroke-miterlimit="10"/>
<path d="M223.822 175.161C228.192 175.161 231.734 170.103 231.734 163.864C231.734 157.625 228.192 152.567 223.822 152.567C219.453 152.567 215.911 157.625 215.911 163.864C215.911 170.103 219.453 175.161 223.822 175.161Z" fill="#2F2E41"/>
<path d="M266.87 175.418C271.239 175.418 274.781 170.36 274.781 164.121C274.781 157.882 271.239 152.824 266.87 152.824C262.501 152.824 258.958 157.882 258.958 164.121C258.958 170.36 262.501 175.418 266.87 175.418Z" fill="#2F2E41"/>
<path d="M260.82 197.498C260.82 202.603 254.361 206.741 246.393 206.741C238.426 206.741 231.967 202.603 231.967 197.498C231.967 193.077 236.811 189.38 243.285 188.476C244.315 188.326 245.354 188.253 246.393 188.256C248.135 188.249 249.872 188.456 251.573 188.872C256.981 190.202 260.82 193.565 260.82 197.498Z" fill="#2F2E41"/>
<path d="M225.684 172.594C230.053 172.594 233.595 167.536 233.595 161.297C233.595 155.058 230.053 150 225.684 150C221.315 150 217.772 155.058 217.772 161.297C217.772 167.536 221.315 172.594 225.684 172.594Z" stroke="#3F3D56" stroke-miterlimit="10"/>
<path d="M268.732 172.851C273.101 172.851 276.643 167.793 276.643 161.554C276.643 155.315 273.101 150.257 268.732 150.257C264.362 150.257 260.82 155.315 260.82 161.554C260.82 167.793 264.362 172.851 268.732 172.851Z" stroke="#3F3D56" stroke-miterlimit="10"/>
<path d="M248.255 204.174C256.223 204.174 262.682 200.036 262.682 194.931C262.682 189.826 256.223 185.688 248.255 185.688C240.287 185.688 233.828 189.826 233.828 194.931C233.828 200.036 240.287 204.174 248.255 204.174Z" stroke="#3F3D56" stroke-miterlimit="10"/>
<path d="M251.745 189.642C251.749 190.288 251.529 190.911 251.131 191.384C250.943 191.61 250.714 191.791 250.46 191.916C250.205 192.04 249.93 192.105 249.651 192.107H244.997C244.424 192.085 243.882 191.813 243.489 191.351C243.097 190.889 242.886 190.275 242.903 189.642C242.901 189.141 243.033 188.651 243.285 188.234C244.315 188.074 245.353 187.996 246.393 187.999C248.137 187.992 249.876 188.213 251.573 188.656C251.688 188.969 251.746 189.304 251.745 189.642Z" fill="white"/>
<path d="M225.684 160.783C226.969 160.783 228.011 159.634 228.011 158.216C228.011 156.798 226.969 155.648 225.684 155.648C224.399 155.648 223.357 156.798 223.357 158.216C223.357 159.634 224.399 160.783 225.684 160.783Z" fill="white"/>
<path d="M268.964 160.783C270.249 160.783 271.291 159.634 271.291 158.216C271.291 156.798 270.249 155.648 268.964 155.648C267.679 155.648 266.637 156.798 266.637 158.216C266.637 159.634 267.679 160.783 268.964 160.783Z" fill="white"/>
<path opacity="0.3" d="M271.291 184.918C272.576 184.918 273.618 183.768 273.618 182.35C273.618 180.932 272.576 179.783 271.291 179.783C270.006 179.783 268.964 180.932 268.964 182.35C268.964 183.768 270.006 184.918 271.291 184.918Z" fill="#6C63FF"/>
<path opacity="0.3" d="M214.515 184.918C215.8 184.918 216.842 183.768 216.842 182.35C216.842 180.932 215.8 179.783 214.515 179.783C213.23 179.783 212.188 180.932 212.188 182.35C212.188 183.768 213.23 184.918 214.515 184.918Z" fill="#6C63FF"/>
</g>
<defs>
<clipPath id="clip0">
<rect width="500" height="300" fill="white"/>
</clipPath>
</defs>
</svg>
