<svg width="1385" height="292" viewBox="0 0 1385 292" fill="none" xmlns="http://www.w3.org/2000/svg">
<path d="M16 142C16 146.418 12.4183 150 8 150C3.58172 150 0 146.418 0 142C0 137.582 3.58172 134 8 134C12.4183 134 16 137.582 16 142Z" fill="#C4C4C4"/>
<ellipse cx="357" cy="8.27246" rx="8" ry="7.5" fill="#C4C4C4" fill-opacity="0.2"/>
<circle cx="290.5" cy="254.272" r="7.5" fill="#C4C4C4" fill-opacity="0.5"/>
<ellipse cx="362.5" cy="150.272" rx="8.5" ry="7.5" fill="#C4C4C4"/>
<circle cx="432.5" cy="68.5" r="7.5" fill="#C4C4C4" fill-opacity="0.2"/>
<line y1="-0.1" x2="111.466" y2="-0.1" transform="matrix(0.549381 -0.835572 0.834579 0.550888 297.154 250.3)" stroke="black" stroke-width="0.2"/>
<line y1="-0.1" x2="91.7008" y2="-0.1" transform="matrix(0.951186 -0.308619 0.28928 0.957245 368.523 145.75)" stroke="black" stroke-width="0.2"/>
<ellipse cx="225" cy="180.272" rx="8" ry="8.5" fill="#C4C4C4"/>
<line y1="-0.15" x2="83.4822" y2="-0.15" transform="matrix(0.646239 0.763136 -0.761882 0.647716 230.68 185.627)" stroke="black" stroke-width="0.3"/>
<circle cx="375.5" cy="86.5" r="7.5" fill="#C4C4C4" fill-opacity="0.2"/>
<line x1="362.725" y1="12.7634" x2="427.061" y2="62.9211" stroke="black" stroke-width="0.2"/>
<line y1="-0.1" x2="65.5464" y2="-0.1" transform="matrix(0.235163 0.971956 -0.971744 0.236037 357.847 15.7383)" stroke="black" stroke-width="0.2"/>
<ellipse rx="8.20485" ry="7.70706" transform="matrix(0.0144343 0.999896 -0.999895 0.0144911 110.757 189.836)" fill="#C4C4C4"/>
<line y1="-0.1" x2="102.189" y2="-0.1" transform="matrix(0.909099 0.41658 -0.415228 0.909717 11.0293 143.155)" stroke="black" stroke-width="0.2"/>
<path d="M109.386 198.146L135.787 277.811" stroke="black" stroke-width="0.2"/>
<line y1="-0.1" x2="182.232" y2="-0.1" transform="matrix(0.67668 0.736277 -0.734951 0.67812 8.13867 147.016)" stroke="black" stroke-width="0.2"/>
<path d="M16 142C16 146.418 12.4183 150 8 150C3.58172 150 0 146.418 0 142C0 137.582 3.58172 134 8 134C12.4183 134 16 137.582 16 142Z" fill="#C4C4C4"/>
<ellipse cx="357" cy="8.27246" rx="8" ry="7.5" fill="#C4C4C4" fill-opacity="0.2"/>
<circle cx="290.5" cy="254.272" r="7.5" fill="#C4C4C4" fill-opacity="0.5"/>
<ellipse cx="362.5" cy="150.272" rx="8.5" ry="7.5" fill="#C4C4C4"/>
<circle cx="462.5" cy="114.5" r="7.5" fill="#C4C4C4" fill-opacity="0.2"/>
<line y1="-0.1" x2="111.466" y2="-0.1" transform="matrix(0.549381 -0.835572 0.834579 0.550888 297.154 250.3)" stroke="black" stroke-width="0.2"/>
<ellipse cx="225" cy="180.272" rx="8" ry="8.5" fill="#C4C4C4"/>
<line y1="-0.15" x2="83.4822" y2="-0.15" transform="matrix(0.646239 0.763136 -0.761882 0.647716 230.68 185.627)" stroke="black" stroke-width="0.3"/>
<ellipse rx="8.20485" ry="7.70706" transform="matrix(0.0144343 0.999896 -0.999895 0.0144911 110.757 189.836)" fill="#C4C4C4"/>
<line y1="-0.1" x2="102.189" y2="-0.1" transform="matrix(0.909099 0.41658 -0.415228 0.909717 11.0293 143.155)" stroke="black" stroke-width="0.2"/>
<path d="M109.386 198.146L135.941 278.265" stroke="black" stroke-width="0.2"/>
<line y1="-0.1" x2="182.232" y2="-0.1" transform="matrix(0.67668 0.736277 -0.734951 0.67812 8.13867 147.016)" stroke="black" stroke-width="0.2"/>
<ellipse cx="1052.5" cy="232.772" rx="7.5" ry="8" fill="#C4C4C4"/>
<ellipse rx="7.72221" ry="7.70706" transform="matrix(0.0144343 0.999896 -0.999895 0.0144911 1090.28 105.002)" fill="#C4C4C4" fill-opacity="0.5"/>
<ellipse cx="1287.5" cy="160.272" rx="8.5" ry="7.5" fill="#C4C4C4"/>
<circle cx="1217.5" cy="190.272" r="7.5" fill="#C4C4C4" fill-opacity="0.2"/>
<line y1="-0.1" x2="86.2347" y2="-0.1" transform="matrix(0.791195 0.611564 -0.61006 0.792355 1212.52 103.926)" stroke="black" stroke-width="0.2"/>
<line y1="-0.1" x2="111.466" y2="-0.1" transform="matrix(0.549381 -0.835572 0.834579 0.550888 1222.15 260.3)" stroke="black" stroke-width="0.2"/>
<line y1="-0.1" x2="91.7008" y2="-0.1" transform="matrix(0.951186 -0.308619 0.28928 0.957245 1293.52 155.75)" stroke="black" stroke-width="0.2"/>
<line y1="-0.1" x2="76.0547" y2="-0.1" transform="matrix(0.139014 0.99029 -0.988832 0.149033 1206.74 106.909)" stroke="black" stroke-width="0.2"/>
<path d="M1213 101.272C1213 105.415 1209.42 108.772 1205 108.772C1200.58 108.772 1197 105.415 1197 101.272C1197 97.1303 1200.58 93.7725 1205 93.7725C1209.42 93.7725 1213 97.1303 1213 101.272Z" fill="#C4C4C4"/>
<line y1="-0.1" x2="173.345" y2="-0.1" transform="matrix(0.98954 0.144259 -0.143705 0.989621 1212.52 100.064)" stroke="black" stroke-width="0.2"/>
<ellipse cx="1150" cy="190.272" rx="8" ry="8.5" fill="#C4C4C4"/>
<ellipse cx="1100.5" cy="133.772" rx="7.5" ry="7" fill="#C4C4C4"/>
<line y1="-0.1" x2="94.0331" y2="-0.1" transform="matrix(0.432813 -0.901483 0.900818 0.434196 1055.49 225.55)" stroke="black" stroke-width="0.2"/>
<line y1="-0.1" x2="95.1153" y2="-0.1" transform="matrix(0.954489 -0.298245 0.29718 0.954822 1106.32 129.397)" stroke="black" stroke-width="0.2"/>
<line y1="-0.1" x2="187.653" y2="-0.1" transform="matrix(0.734139 -0.678999 0.677561 0.735467 1060.31 232.308)" stroke="black" stroke-width="0.2"/>
<line y1="-0.15" x2="83.4822" y2="-0.15" transform="matrix(0.646239 0.763136 -0.761882 0.647716 1155.68 195.627)" stroke="black" stroke-width="0.3"/>
<ellipse rx="8.20485" ry="7.70706" transform="matrix(0.0144343 0.999896 -0.999895 0.0144911 1035.76 199.836)" fill="#C4C4C4"/>
<ellipse rx="7.72221" ry="7.70706" transform="matrix(0.0144343 0.999896 -0.999895 0.0144911 1005.5 127.203)" fill="#C4C4C4" fill-opacity="0.2"/>
<line y1="-0.1" x2="77.6913" y2="-0.1" transform="matrix(-0.703504 0.710692 -0.709309 -0.704898 1094.02 137.71)" stroke="black" stroke-width="0.2"/>
<line y1="-0.1" x2="102.189" y2="-0.1" transform="matrix(0.909099 0.41658 -0.415228 0.909717 936.029 153.155)" stroke="black" stroke-width="0.2"/>
<path d="M1034.39 208.146L1060.79 287.811" stroke="black" stroke-width="0.2"/>
<line y1="-0.1" x2="182.232" y2="-0.1" transform="matrix(0.67668 0.736277 -0.734951 0.67812 935.138 157.016)" stroke="black" stroke-width="0.2"/>
<line y1="-0.1" x2="75.0946" y2="-0.1" transform="matrix(-0.987827 0.155559 -0.154963 -0.98792 1085.35 110.683)" stroke="black" stroke-width="0.2"/>
<path d="M941 154C941 158.418 937.418 162 933 162C928.582 162 925 158.418 925 154C925 149.582 928.582 146 933 146C937.418 146 941 149.582 941 154Z" fill="#C4C4C4"/>
<ellipse cx="1052.5" cy="232.772" rx="7.5" ry="8" fill="#C4C4C4"/>
<ellipse rx="7.72221" ry="7.70706" transform="matrix(0.0144343 0.999896 -0.999895 0.0144911 1090.28 105.002)" fill="#C4C4C4" fill-opacity="0.5"/>
<ellipse cx="1287.5" cy="160.272" rx="8.5" ry="7.5" fill="#C4C4C4"/>
<circle cx="1217.5" cy="190.272" r="7.5" fill="#C4C4C4" fill-opacity="0.2"/>
<line y1="-0.1" x2="86.2347" y2="-0.1" transform="matrix(0.791195 0.611564 -0.61006 0.792355 1212.52 103.926)" stroke="black" stroke-width="0.2"/>
<line y1="-0.1" x2="111.466" y2="-0.1" transform="matrix(0.549381 -0.835572 0.834579 0.550888 1222.15 260.3)" stroke="black" stroke-width="0.2"/>
<line y1="-0.1" x2="76.0547" y2="-0.1" transform="matrix(0.139014 0.99029 -0.988832 0.149033 1206.74 106.909)" stroke="black" stroke-width="0.2"/>
<path d="M1213 101.272C1213 105.415 1209.42 108.772 1205 108.772C1200.58 108.772 1197 105.415 1197 101.272C1197 97.1303 1200.58 93.7725 1205 93.7725C1209.42 93.7725 1213 97.1303 1213 101.272Z" fill="#C4C4C4"/>
<line y1="-0.1" x2="173.345" y2="-0.1" transform="matrix(0.98954 0.144259 -0.143705 0.989621 1212.52 100.064)" stroke="black" stroke-width="0.2"/>
<ellipse cx="1150" cy="190.272" rx="8" ry="8.5" fill="#C4C4C4"/>
<ellipse cx="1100.5" cy="133.772" rx="7.5" ry="7" fill="#C4C4C4"/>
<line y1="-0.1" x2="94.0331" y2="-0.1" transform="matrix(0.432813 -0.901483 0.900818 0.434196 1055.49 225.55)" stroke="black" stroke-width="0.2"/>
<line y1="-0.1" x2="95.1153" y2="-0.1" transform="matrix(0.954489 -0.298245 0.29718 0.954822 1106.32 129.397)" stroke="black" stroke-width="0.2"/>
<line y1="-0.1" x2="187.653" y2="-0.1" transform="matrix(0.734139 -0.678999 0.677561 0.735467 1060.31 232.308)" stroke="black" stroke-width="0.2"/>
<line y1="-0.15" x2="83.4822" y2="-0.15" transform="matrix(0.646239 0.763136 -0.761882 0.647716 1155.68 195.627)" stroke="black" stroke-width="0.3"/>
<ellipse rx="8.20485" ry="7.70706" transform="matrix(0.0144343 0.999896 -0.999895 0.0144911 1035.76 199.836)" fill="#C4C4C4"/>
<ellipse rx="7.72221" ry="7.70706" transform="matrix(0.0144343 0.999896 -0.999895 0.0144911 1005.5 127.203)" fill="#C4C4C4" fill-opacity="0.2"/>
<line y1="-0.1" x2="77.6913" y2="-0.1" transform="matrix(-0.703504 0.710692 -0.709309 -0.704898 1094.02 137.71)" stroke="black" stroke-width="0.2"/>
<line y1="-0.1" x2="75.0946" y2="-0.1" transform="matrix(-0.987827 0.155559 -0.154963 -0.98792 1085.35 110.683)" stroke="black" stroke-width="0.2"/>
</svg>
