<svg width="200" height="28" viewBox="0 0 200 28" fill="none" xmlns="http://www.w3.org/2000/svg">
<path d="M15.2341 27.9998L11.1686 20.5698H6.89759V27.9998H0V9.27545e-05H11.0658C13.012 -0.00872069 14.9151 0.61074 16.5247 1.77697C18.1344 2.94321 19.3751 4.60157 20.0836 6.53387C20.7922 8.46617 20.9355 10.5819 20.4945 12.6026C20.0536 14.6234 19.0491 16.4545 17.6132 17.855L23.1823 27.9998H15.2341ZM6.89759 14.2029H11.1686C11.663 14.2029 12.1526 14.099 12.6093 13.8973C13.0661 13.6957 13.4811 13.4001 13.8307 13.0274C14.1803 12.6547 14.4576 12.2123 14.6468 11.7254C14.836 11.2385 14.9334 10.7166 14.9334 10.1896C14.9334 9.66252 14.836 9.14065 14.6468 8.65374C14.4576 8.16682 14.1803 7.72439 13.8307 7.35173C13.4811 6.97906 13.0661 6.68345 12.6093 6.48176C12.1526 6.28008 11.663 6.17625 11.1686 6.17625H6.89759V14.2029Z" fill="#00485C"/>
<path d="M32.2534 0.000291674C34.8508 -0.00692213 37.3919 0.807106 39.5553 2.33943C41.7187 3.87174 43.4073 6.05352 44.4076 8.60889C45.4078 11.1643 45.6748 13.9784 45.1747 16.6955C44.6746 19.4126 43.4299 21.9107 41.5981 23.8737C39.7662 25.8367 37.4294 27.1765 34.8833 27.7238C32.3371 28.2711 29.6958 28.0012 27.2935 26.9483C24.8912 25.8953 22.8358 24.1066 21.3871 21.8084C19.9384 19.5102 19.1616 16.8056 19.1548 14.0367C19.1547 10.3266 20.5326 6.76743 22.9871 4.13719C25.4416 1.50694 28.7731 0.0195982 32.2534 0.000291674V0.000291674ZM32.2534 7.30458C31.0134 7.30458 29.8012 7.69655 28.7702 8.43094C27.7392 9.16532 26.9356 10.2091 26.4611 11.4304C25.9866 12.6516 25.8624 13.9954 26.1043 15.2919C26.3462 16.5883 26.9433 17.7792 27.8201 18.7139C28.697 19.6486 29.8141 20.2851 31.0302 20.543C32.2464 20.8009 33.507 20.6685 34.6526 20.1627C35.7982 19.6568 36.7774 18.8002 37.4663 17.7011C38.1552 16.602 38.5229 15.3098 38.5229 13.988C38.5234 13.1107 38.3614 12.242 38.0464 11.4316C37.7314 10.6211 37.2694 9.88496 36.687 9.26521C36.1046 8.64546 35.4131 8.15432 34.6523 7.81997C33.8915 7.48561 33.0763 7.3146 32.2534 7.31674V7.30458Z" fill="#00485C"/>
<path d="M42.2344 28L54.4917 0.000244141H57.6055L69.9694 28H63.0718L61.4578 24.3479H50.7079L49.132 28H42.2344ZM53.4068 18.1433H58.7627L56.0981 11.9833L53.4068 18.1433Z" fill="#00485C"/>
<path d="M67.2744 0.000244141H77.0079C80.491 0.000244141 83.8314 1.47522 86.2942 4.10071C88.7571 6.72619 90.1408 10.2871 90.1408 14.0001C90.1408 17.7131 88.7571 21.274 86.2942 23.8995C83.8314 26.525 80.491 28 77.0079 28H67.2744V0.000244141ZM74.1263 20.7566H77.0346C78.6832 20.7566 80.2643 20.0584 81.4301 18.8157C82.5959 17.573 83.2508 15.8875 83.2508 14.13C83.2508 12.3725 82.5959 10.687 81.4301 9.44426C80.2643 8.20153 78.6832 7.50336 77.0346 7.50336H74.1263V20.7566Z" fill="#00485C"/>
<path d="M102.539 10.3764L113.22 0.000244141H116.334V28H109.402V13.6268L102.55 20.3061L95.6526 13.6633V28H88.7056V0.000244141H91.8232L102.539 10.3764Z" fill="#00485C"/>
<path d="M113.669 28L125.927 0.000244141H129.041L141.405 28H134.511L132.901 24.3479H122.151L120.575 28H113.669ZM124.838 18.1433H130.198L127.533 11.9833L124.838 18.1433Z" fill="#00485C"/>
<path d="M138.717 0.000244141H149.783C152.311 0.0303585 154.728 1.11708 156.512 3.02666C158.296 4.93624 159.306 7.51612 159.325 10.2114C159.343 12.9067 158.369 15.502 156.611 17.4391C154.853 19.3763 152.452 20.5005 149.924 20.5699H145.615V28H138.717V0.000244141ZM145.615 14.203H149.886C150.38 14.203 150.87 14.0992 151.327 13.8975C151.783 13.6958 152.198 13.4002 152.548 13.0275C152.898 12.6549 153.175 12.2125 153.364 11.7255C153.553 11.2386 153.651 10.7168 153.651 10.1897C153.651 9.66268 153.553 9.14081 153.364 8.6539C153.175 8.16698 152.898 7.72455 152.548 7.35189C152.198 6.97922 151.783 6.68361 151.327 6.48192C150.87 6.28023 150.38 6.17641 149.886 6.17641H145.615V14.203Z" fill="#00485C"/>
<path d="M178.763 23.8934C176.93 25.8499 174.594 27.1838 172.051 27.727C169.507 28.2702 166.87 27.9983 164.471 26.9455C162.073 25.8928 160.02 24.1064 158.573 21.8116C157.126 19.5169 156.348 16.8166 156.338 14.0514C156.329 11.2862 157.088 8.57983 158.519 6.27381C159.951 3.96778 161.991 2.16532 164.382 1.0938C166.774 0.0222701 169.409 -0.270316 171.956 0.25291C174.503 0.776136 176.848 2.09175 178.695 4.03382L178.203 4.51672C176.45 2.65471 174.217 1.38942 171.788 0.881092C169.359 0.372761 166.844 0.644261 164.56 1.6612C162.276 2.67814 160.326 4.39477 158.958 6.59368C157.59 8.7926 156.865 11.3749 156.875 14.0134C156.884 16.652 157.628 19.2282 159.012 21.4157C160.396 23.6032 162.358 25.3037 164.649 26.3017C166.941 27.2997 169.458 27.5504 171.883 27.022C174.308 26.4935 176.532 25.2098 178.272 23.3334L178.763 23.8934Z" fill="#00485C"/>
<path d="M200 23.8934C198.167 25.8499 195.831 27.1838 193.288 27.727C190.744 28.2702 188.107 27.9983 185.708 26.9455C183.31 25.8928 181.257 24.1064 179.81 21.8116C178.362 19.5169 177.585 16.8166 177.575 14.0514C177.566 11.2862 178.325 8.57983 179.756 6.27381C181.188 3.96778 183.228 2.16532 185.619 1.0938C188.01 0.0222701 190.646 -0.270316 193.193 0.25291C195.74 0.776136 198.085 2.09175 199.931 4.03382L199.44 4.51672C197.687 2.65471 195.454 1.38942 193.025 0.881092C190.596 0.372761 188.081 0.644261 185.797 1.6612C183.513 2.67814 181.563 4.39477 180.195 6.59368C178.827 8.7926 178.102 11.3749 178.111 14.0134C178.121 16.652 178.865 19.2282 180.249 21.4157C181.633 23.6032 183.595 25.3037 185.886 26.3017C188.178 27.2997 190.695 27.5504 193.12 27.022C195.545 26.4935 197.769 25.2098 199.509 23.3334L200 23.8934Z" fill="#00485C"/>
</svg>
