<svg id="Camada_1" data-name="Camada 1" xmlns="http://www.w3.org/2000/svg" viewBox="0 0 418.32 607.67"><defs><style>.cls-1{fill:#002626;}.cls-2{fill:#0e4749;}.cls-3{fill:#95c623;}.cls-4{fill:#efe7da;}.cls-11,.cls-12,.cls-5,.cls-6,.cls-7,.cls-8{fill:none;stroke-width:5px;}.cls-11,.cls-12,.cls-5,.cls-6,.cls-7{stroke:#fff;}.cls-10,.cls-11,.cls-12,.cls-5,.cls-6,.cls-7,.cls-8{stroke-miterlimit:10;}.cls-6{stroke-dasharray:12.39 12.39;}.cls-7,.cls-8{stroke-linecap:round;}.cls-10,.cls-8{stroke:#bc0000;}.cls-8{opacity:0.8;}.cls-9{fill:#fff;}.cls-10{fill:#bc0000;}.cls-11{stroke-dasharray:11.48 11.48;}.cls-12{stroke-dasharray:11.36 11.36;}.cls-13{fill:#490202;}</style></defs><title>RoadMapCCLogo</title><rect class="cls-1" x="1.98" y="2.14" width="93.33" height="603.39" rx="46.66" ry="46.66"/><rect class="cls-2" x="108.99" y="2.14" width="93.33" height="603.39" rx="46.66" ry="46.66"/><rect class="cls-3" x="216" y="2.14" width="93.33" height="603.39" rx="46.66" ry="46.66"/><rect class="cls-4" x="323.01" y="2.14" width="93.33" height="603.39" rx="46.66" ry="46.66"/><line class="cls-5" x1="262.67" y1="213.76" x2="266.38" y2="218.48"/><line class="cls-6" x1="274.04" y1="228.22" x2="362.14" y2="340.27"/><line class="cls-5" x1="365.97" y1="345.14" x2="369.68" y2="349.85"/><circle class="cls-7" cx="48.64" cy="185.37" r="18.88"/><circle class="cls-7" cx="155.66" cy="414.83" r="18.88"/><circle class="cls-8" cx="369.68" cy="349.85" r="18.88"/><circle class="cls-7" cx="262.67" cy="213.76" r="18.88"/><circle class="cls-9" cx="48.64" cy="185.37" r="9.14"/><circle class="cls-9" cx="155.66" cy="414.83" r="9.14"/><circle class="cls-9" cx="262.67" cy="213.76" r="9.14"/><circle class="cls-10" cx="369.68" cy="349.85" r="9.14"/><line class="cls-5" x1="48.64" y1="185.37" x2="51.18" y2="190.81"/><line class="cls-11" x1="56.03" y1="201.22" x2="150.69" y2="404.19"/><line class="cls-5" x1="153.12" y1="409.39" x2="155.66" y2="414.83"/><line class="cls-5" x1="155.66" y1="414.83" x2="158.47" y2="409.53"/><line class="cls-12" x1="163.81" y1="399.51" x2="257.18" y2="224.07"/><line class="cls-5" x1="259.85" y1="219.06" x2="262.67" y2="213.76"/><path class="cls-13" d="M369.68,297.91c-9.2,0-17.54,7.46-17.54,16.66s7.61,20.19,17.54,35.95c9.93-15.76,17.54-26.74,17.54-35.95S378.89,297.91,369.68,297.91Zm0,24.11a6.58,6.58,0,1,1,6.58-6.57A6.58,6.58,0,0,1,369.68,322Z"/></svg>