<svg width="38" height="38" viewBox="0 0 38 38" fill="none" xmlns="http://www.w3.org/2000/svg">
<g clip-path="url(#clip0)">
<path d="M36.3947 19.493C36.2249 19.381 36.0102 19.3617 35.8233 19.442C33.9124 20.2609 32.9034 20.285 31.6703 19.5415C30.2511 18.6857 21.16 8.80271 21.16 8.80271C20.5582 8.20079 19.7579 7.86926 18.9066 7.86926C18.0554 7.86926 17.2551 8.20079 16.6531 8.80263L13.4298 12.026L11.2905 9.8866C11.0542 9.65036 10.6711 9.65036 10.4348 9.8866C10.1985 10.123 10.1985 10.506 10.4348 10.7423L12.5742 12.8817L9.77878 15.6771L1.53516 7.43374C1.26782 7.16641 1.26782 6.73119 1.53516 6.46393L3.36079 4.63829C3.62508 4.374 4.06631 4.37408 4.33061 4.63837L8.49866 8.80642C8.73497 9.04266 9.11809 9.04266 9.35432 8.80642C9.59064 8.57003 9.59064 8.18699 9.35432 7.95068L5.18635 3.78255C4.82824 3.42437 4.35213 3.22717 3.84559 3.22717C3.33919 3.22717 2.86308 3.42437 2.50497 3.78248L0.679414 5.60811C-0.0598047 6.34733 -0.0598047 7.55012 0.679414 8.28941L8.92297 16.5329L5.69972 19.7561C5.0978 20.358 4.76634 21.1584 4.76634 22.0096C4.76634 22.8609 5.0978 23.6612 5.69972 24.2631C5.69972 24.2631 9.96908 28.5217 10.6786 29.2219C10.93 29.47 11.3512 29.4453 11.5737 29.1721C11.7678 28.9338 11.7472 28.5761 11.5287 28.3604C10.867 27.7075 10.157 27.0055 8.80934 25.6603L11.9825 22.4872L13.998 24.5026C14.244 24.7486 14.6596 24.7322 14.8858 24.4678C15.0887 24.2309 15.074 23.8671 14.8536 23.6468L12.8383 21.6313L15.4272 19.0424L18.7714 22.3867C19.0175 22.6326 19.4331 22.6162 19.6593 22.3519C19.8621 22.115 19.8474 21.7511 19.6271 21.5308L16.2829 18.1866L19.0126 15.4569L20.8666 17.311C21.1127 17.557 21.5283 17.5406 21.7545 17.2762C21.9573 17.0393 21.9426 16.6755 21.7223 16.4551L19.8683 14.6012L22.5189 11.9506C23.3226 12.8304 24.062 13.6476 24.7194 14.3745C27.6839 17.6517 29.4732 19.6297 31.0453 20.5777C32.5541 21.4875 33.8846 21.4305 35.4016 20.9053C35.2573 22.1242 34.8389 23.3342 34.2868 24.4696C34.2835 24.4733 34.28 24.4767 34.2768 24.4806C34.0636 24.6281 32.9637 24.9969 31.7347 24.5873C29.9672 23.9981 28.7553 22.8085 28.7432 22.7965C28.5068 22.5608 28.1242 22.5612 27.8883 22.7972C27.652 23.0336 27.652 23.4167 27.8883 23.653C27.9452 23.7098 29.3037 25.0527 31.352 25.7355C31.872 25.9088 32.4044 25.9817 32.9038 25.9817C33.1 25.9817 33.2908 25.9699 33.4739 25.9491C32.4914 27.5576 31.3435 28.9231 30.5246 29.812C30.4674 29.7832 30.405 29.7625 30.3381 29.753C29.9382 29.6958 29.1026 29.4803 27.9995 28.679C27.3588 28.2136 25.7676 26.6781 25.7516 26.6626C25.5112 26.4303 25.1281 26.437 24.896 26.6774C24.6638 26.9177 24.6705 27.3008 24.9107 27.5329C24.9785 27.5985 26.5793 29.1432 27.2884 29.6582C28.1812 30.3066 28.949 30.6422 29.5427 30.8139C28.6102 31.6819 27.1877 32.7279 25.5273 33.5414C25.1878 33.4061 24.4426 33.05 23.5068 32.246C22.6761 31.5323 21.646 30.5438 21.6357 30.534C21.3947 30.3025 21.0116 30.3103 20.7802 30.5512C20.5486 30.7922 20.5563 31.1752 20.7974 31.4068C20.8404 31.4482 21.8616 32.428 22.7182 33.1639C23.2245 33.5989 23.6876 33.9219 24.0826 34.1604C23.8637 34.2407 23.6425 34.3162 23.4189 34.3851C21.3836 35.0124 18.5142 35.3165 16.4014 33.2036C15.2909 32.0931 14.4699 31.2744 13.8214 30.6295C13.5844 30.394 13.2013 30.3949 12.9657 30.632C12.7301 30.869 12.7311 31.2521 12.9681 31.4877C13.616 32.1319 14.4362 32.9499 15.5457 34.0594C16.8783 35.3919 18.5781 36.0662 20.5562 36.0661C21.5613 36.0661 22.6386 35.892 23.7754 35.5416C24.4538 35.3324 25.1144 35.0708 25.7461 34.7761C25.8039 34.7589 25.8583 34.7331 25.9084 34.7C27.9497 33.7222 29.6724 32.4063 30.6804 31.3985C32.4803 29.5985 36.6666 24.8847 36.6666 19.9982C36.6668 19.7948 36.5645 19.605 36.3947 19.493ZM18.5848 14.1734C18.5848 14.1734 18.5847 14.1734 18.5847 14.1735C18.5847 14.1735 18.5846 14.1735 18.5846 14.1735L7.95315 24.805L6.55546 23.4072C6.18214 23.0339 5.97648 22.5376 5.97648 22.0096C5.97648 21.4816 6.18207 20.9853 6.55546 20.6119L17.5088 9.6586C17.8821 9.2852 18.3785 9.07954 18.9065 9.07954C19.4345 9.07954 19.9309 9.2852 20.3042 9.6586L21.7019 11.0562L18.5848 14.1734Z" fill="#505050"/>
<path d="M16.3672 3.3725C16.1595 3.19475 15.9648 3.00007 15.7886 2.79389C15.2295 2.13936 14.8384 1.35575 14.6263 0.464981C14.5614 0.192449 14.3178 0 14.0377 0C13.7575 0 13.5139 0.192449 13.449 0.464981C13.2369 1.35575 12.8459 2.13936 12.2868 2.79382C12.1106 3.00014 11.9158 3.19482 11.7081 3.3725C11.43 3.61022 11.43 4.05435 11.7081 4.29207C11.9158 4.46982 12.1106 4.6645 12.2867 4.87068C12.8459 5.52522 13.2369 6.30882 13.449 7.19959C13.5139 7.47212 13.7575 7.66457 14.0377 7.66457C14.3178 7.66457 14.5614 7.47212 14.6263 7.19959C14.8384 6.30882 15.2295 5.52522 15.7886 4.87075C15.9648 4.66443 16.1595 4.46975 16.3672 4.29207C16.6453 4.0542 16.6453 3.61022 16.3672 3.3725ZM14.8683 4.0847C14.5447 4.46359 14.2672 4.87647 14.0376 5.32045C13.8079 4.87639 13.5305 4.46352 13.2068 4.08463C13.1335 3.99876 13.0575 3.91467 12.9793 3.83229C13.0577 3.7499 13.1335 3.66574 13.2069 3.57987C13.5306 3.20098 13.8081 2.7881 14.0377 2.34413C14.2674 2.78818 14.5447 3.20106 14.8685 3.57994C14.9418 3.66581 15.0177 3.7499 15.096 3.83229C15.0177 3.91467 14.9417 3.99876 14.8683 4.0847Z" fill="#505050"/>
<path d="M37.6666 33.7079C37.4588 33.5302 37.2641 33.3355 37.0879 33.1293C36.5288 32.4748 36.1377 31.6912 35.9256 30.8004C35.8607 30.5279 35.6172 30.3354 35.337 30.3354C35.0568 30.3354 34.8132 30.5279 34.7483 30.8004C34.5362 31.6912 34.1452 32.4748 33.5861 33.1293C33.4099 33.3356 33.2151 33.5303 33.0074 33.7079C32.7293 33.9458 32.7293 34.3898 33.0074 34.6275C33.2151 34.8053 33.4099 34.9999 33.586 35.2061C34.1452 35.8607 34.5362 36.6443 34.7483 37.535C34.8132 37.8076 35.0568 38 35.337 38C35.6172 38 35.8607 37.8076 35.9256 37.535C36.1377 36.6443 36.5288 35.8607 37.0879 35.2062C37.2641 34.9999 37.4588 34.8052 37.6666 34.6275C37.9446 34.3898 37.9446 33.9457 37.6666 33.7079ZM36.1677 34.4202C35.844 34.7991 35.5665 35.212 35.337 35.656C35.1073 35.2119 34.8299 34.799 34.5062 34.4202C34.4328 34.3343 34.3569 34.2502 34.2787 34.1678C34.3569 34.0854 34.4328 34.0013 34.5063 33.9154C34.83 33.5365 35.1075 33.1236 35.3371 32.6796C35.5668 33.1237 35.8441 33.5366 36.1679 33.9155C36.2412 34.0013 36.3171 34.0854 36.3953 34.1678C36.317 34.2501 36.2411 34.3343 36.1677 34.4202Z" fill="#505050"/>
<path d="M10.5582 33.7079C10.3504 33.5302 10.1557 33.3355 9.97955 33.1293C9.42039 32.4748 9.02933 31.6912 8.81721 30.8004C8.75234 30.5279 8.50876 30.3354 8.22858 30.3354C7.94841 30.3354 7.70482 30.5279 7.63995 30.8004C7.42784 31.6912 7.03678 32.4748 6.47769 33.1293C6.30149 33.3356 6.10674 33.5303 5.899 33.7079C5.62091 33.9458 5.62091 34.3898 5.899 34.6275C6.10674 34.8053 6.30149 34.9999 6.47761 35.2061C7.03678 35.8607 7.42784 36.6443 7.63995 37.535C7.70482 37.8076 7.94841 38 8.22858 38C8.50876 38 8.75234 37.8076 8.81721 37.535C9.02933 36.6443 9.42039 35.8607 9.97948 35.2062C10.1557 34.9999 10.3504 34.8052 10.5582 34.6275C10.8362 34.3898 10.8362 33.9457 10.5582 33.7079ZM9.05924 34.4202C8.73557 34.7991 8.45807 35.212 8.22851 35.656C7.9988 35.2119 7.72144 34.799 7.3977 34.4202C7.32437 34.3343 7.24845 34.2502 7.17022 34.1678C7.24845 34.0854 7.32437 34.0013 7.39785 33.9154C7.72152 33.5365 7.99902 33.1236 8.22858 32.6796C8.45829 33.1237 8.73564 33.5366 9.05939 33.9155C9.13271 34.0013 9.20864 34.0854 9.28687 34.1678C9.20849 34.2501 9.13271 34.3343 9.05924 34.4202Z" fill="#505050"/>
</g>
<defs>
<clipPath id="clip0">
<rect width="38" height="38" fill="white"/>
</clipPath>
</defs>
</svg>
