<?xml version="1.0" ?><svg viewBox="0 0 64 64" xmlns="http://www.w3.org/2000/svg"><title/><g data-name="Day 9" id="c090d880-b822-439b-a57f-c813dbb4f8aa"><polygon data-name="&lt;Path&gt;" fill="#6e9abd" id="c2d3760b-ecb1-4401-9cd9-36cb26e4f3e9" points="47 47 4 47 11.02 32.96 14.95 25.09 22 11 29.27 21.47 34.11 28.43 47 47"/><path d="M34.11,28.43,30,35s-6.75,3.25-9,4-8,0-8,0l-1-3a6.89,6.89,0,0,0-1-2c-.11-.13-.09-.5,0-1L15,25.09,21,32l8.27-10.53Z" data-name="&lt;Path&gt;" fill="#4a82b0" id="2e6f5fae-9e86-460e-b253-8a3cc90196f4"/><polygon data-name="&lt;Path&gt;" fill="none" id="c9538994-2fad-4064-946a-acd9c36206f1" points="4 47 22 11 47 47 4 47" stroke="#001c63" stroke-linecap="round" stroke-linejoin="round" stroke-width="2"/><polygon data-name="&lt;Path&gt;" fill="#b5cfe3" id="fee12494-bdbd-4c4d-bec8-3f46704c30e3" points="33 47 51 24 61 52 33 47" stroke="#001c63" stroke-linecap="round" stroke-linejoin="round" stroke-width="2"/><polygon data-name="&lt;Path&gt;" fill="#5e87a8" id="7e0917ff-df19-430e-b20c-52cefc085a2d" points="61 52 17.57 47.7 10.54 47 19.73 36.45 23.24 32.42 35.77 18.04 48.97 35.81 61 52"/><path d="M61,52,17.57,47.7A16.37,16.37,0,0,1,17,43l2.73-6.55L22,31l1.24,1.42L29,39l4-4,7,6,8-6,1,.81Z" data-name="&lt;Path&gt;" fill="#4d6f8a" id="87309de7-5025-48e0-982c-7cbb4e3d4b43"/><polygon data-name="&lt;Path&gt;" fill="none" id="f8639a9b-419c-490a-94f2-5191cd0f1f36" points="10.54 47 35.77 18.04 61 52 10.54 47" stroke="#001c63" stroke-linecap="round" stroke-linejoin="round" stroke-width="2"/><polygon data-name="&lt;Path&gt;" fill="#a5d2f2" id="450f9ed1-60a4-4b6c-be28-79d1c95b587d" points="8.65 23 35 52 3 52 8.65 23" stroke="#001c63" stroke-linecap="round" stroke-linejoin="round" stroke-width="2"/><polygon data-name="&lt;Path&gt;" fill="#7ec0f2" id="1b8aeb69-ad74-4dad-996f-9790f78882e5" points="3 52 14.29 39.04 25.58 52 3 52" stroke="#001c63" stroke-linecap="round" stroke-linejoin="round" stroke-width="2"/><polygon data-name="&lt;Path&gt;" fill="#7ec0f2" id="2547bfec-a81d-4350-9fe7-cb8129ffc3c4" points="42.91 36.04 36.58 43.29 32.88 39.04 21.58 52 29 52 44.17 52 61 52 42.91 36.04" stroke="#001c63" stroke-linecap="round" stroke-linejoin="round" stroke-width="2"/><circle cx="49.5" cy="12.5" data-name="&lt;Path&gt;" fill="#f7db5e" id="5cdccf37-d9a9-4ec2-98f0-8647db7cf3ec" r="6.5"/><circle cx="49.5" cy="12.5" data-name="&lt;Path&gt;" fill="none" id="8d786336-ea99-4f24-92b3-1d21173574cb" r="6.5" stroke="#001c63" stroke-linecap="round" stroke-linejoin="round" stroke-width="2"/><ellipse cx="22" cy="39.5" data-name="&lt;Path&gt;" fill="#49c98e" id="e7480860-79d2-4cc0-812e-97dc2fa87382" rx="3" ry="8.5" stroke="#001c63" stroke-linecap="round" stroke-linejoin="round" stroke-width="2"/><line data-name="&lt;Path&gt;" fill="none" id="826a19ae-0f6e-404e-8e7d-96915619d6f7" stroke="#001c63" stroke-linecap="round" stroke-linejoin="round" stroke-width="2" x1="22" x2="22" y1="52" y2="44"/><ellipse cx="17.21" cy="44.56" data-name="&lt;Path&gt;" fill="#49c98e" id="b5cf37e7-b9fc-4191-80d3-94cbf73b7733" rx="1.79" ry="5.06" stroke="#001c63" stroke-linecap="round" stroke-linejoin="round" stroke-width="2"/><line data-name="&lt;Path&gt;" fill="none" id="c2f08b83-fc56-4126-946c-bbeb05a66a01" stroke="#001c63" stroke-linecap="round" stroke-linejoin="round" stroke-width="2" x1="17" x2="17" y1="50" y2="52"/><line data-name="&lt;Path&gt;" fill="none" id="93df7e58-0daa-481f-83e9-a311d02e4571" stroke="#fff" stroke-linecap="round" stroke-linejoin="round" stroke-width="2" x1="44" x2="47" y1="41" y2="44"/><line data-name="&lt;Path&gt;" fill="none" id="483523e3-96e3-46ab-978d-17b2396b5340" stroke="#fff" stroke-linecap="round" stroke-linejoin="round" stroke-width="2" x1="36" x2="39" y1="24" y2="28"/><circle cx="41" cy="31" data-name="&lt;Path&gt;" fill="#fff" id="86509f11-d89d-4e8f-a2ab-5c8e15dd9316" r="1"/></g></svg>