<svg width="40" height="105" viewBox="0 0 40 105" fill="none" xmlns="http://www.w3.org/2000/svg">
<path d="M20.37 89.37H18.4V79.78H20.37V89.37ZM20.37 104.37H18.4V94.78H20.37V104.37Z" fill="#DCDCDC"/>
<path opacity="0.5" d="M18.9999 73C16.8243 73 14.6976 72.3548 12.8886 71.1461C11.0797 69.9374 9.66986 68.2194 8.83731 66.2094C8.00477 64.1995 7.78693 61.9877 8.21137 59.854C8.63581 57.7202 9.68346 55.7602 11.2218 54.2218C12.7602 52.6835 14.7202 51.6358 16.854 51.2114C18.9877 50.7869 21.1995 51.0048 23.2094 51.8373C25.2194 52.6698 26.9374 54.0797 28.1461 55.8886C29.3548 57.6976 30 59.8243 30 61.9999C29.9967 64.9163 28.8367 67.7123 26.7745 69.7745C24.7123 71.8367 21.9163 72.9967 18.9999 73ZM18.9999 52.1899C17.0596 52.1899 15.1629 52.7653 13.5497 53.8433C11.9364 54.9213 10.6791 56.4534 9.93659 58.246C9.19411 60.0385 8.99987 62.011 9.37843 63.914C9.75698 65.817 10.6913 67.565 12.0633 68.9369C13.4353 70.3088 15.1833 71.2431 17.0863 71.6216C18.9893 72.0001 20.9618 71.8058 22.7543 71.0633C24.5469 70.3208 26.079 69.0634 27.1569 67.4501C28.2348 65.8368 28.8101 63.9401 28.8101 61.9999C28.8071 59.399 27.7726 56.9054 25.9334 55.0663C24.0943 53.2272 21.6008 52.1928 18.9999 52.1899V52.1899Z" fill="#C4C2DB"/>
<path opacity="0.7" d="M19.5 31C18.3838 31 17.2785 31.2299 16.2472 31.6766C15.2159 32.1233 14.2789 32.7781 13.4896 33.6035C12.7003 34.4289 12.0742 35.4088 11.647 36.4873C11.2199 37.5657 11 38.7216 11 39.8889C11 44.7981 19.5 61 19.5 61C19.5 61 28 44.7981 28 39.8889C28 38.7216 27.7801 37.5657 27.353 36.4873C26.9258 35.4088 26.2997 34.4289 25.5104 33.6035C24.7211 32.7781 23.7841 32.1233 22.7528 31.6766C21.7215 31.2299 20.6162 31 19.5 31ZM19.5 44.5556C18.6174 44.5556 17.7546 44.2819 17.0208 43.7691C16.2869 43.2563 15.715 42.5275 15.3772 41.6747C15.0394 40.822 14.9511 39.8837 15.1233 38.9785C15.2954 38.0732 15.7205 37.2417 16.3445 36.5891C16.9686 35.9364 17.7638 35.492 18.6294 35.3119C19.495 35.1318 20.3923 35.2243 21.2077 35.5775C22.0231 35.9307 22.7201 36.5288 23.2104 37.2962C23.7008 38.0637 23.9625 38.9659 23.9625 39.8889C23.9625 41.1266 23.4923 42.3136 22.6555 43.1887C21.8186 44.0639 20.6835 44.5556 19.5 44.5556Z" fill="#94B3B4"/>
<path opacity="0.5" d="M20 76.1885C31.0457 76.1885 40 75.027 40 73.5942C40 72.1615 31.0457 71 20 71C8.95431 71 0 72.1615 0 73.5942C0 75.027 8.95431 76.1885 20 76.1885Z" fill="#0E4749"/>
<path d="M21.37 12.37H19.4V2.78H21.37V12.37ZM21.37 27.37H19.4V17.78H21.37V27.37Z" fill="#DCDCDC"/>
</svg>
