<svg width="284" height="127" viewBox="0 0 284 127" fill="none" xmlns="http://www.w3.org/2000/svg">
<path d="M9.71918 0.396973H9.71711C4.36991 0.396973 0.0351562 4.73173 0.0351562 10.0789V115.918C0.0351562 121.266 4.36991 125.6 9.71711 125.6H9.71918C15.0664 125.6 19.4011 121.266 19.4011 115.918V10.0789C19.4011 4.73173 15.0664 0.396973 9.71918 0.396973Z" fill="#002626"/>
<path d="M31.9238 0.396973H31.9217C26.5745 0.396973 22.2397 4.73173 22.2397 10.0789V115.918C22.2397 121.266 26.5745 125.6 31.9217 125.6H31.9238C37.271 125.6 41.6057 121.266 41.6057 115.918V10.0789C41.6057 4.73173 37.271 0.396973 31.9238 0.396973Z" fill="#0E4749"/>
<path d="M54.1303 0.396973H54.1282C48.781 0.396973 44.4463 4.73173 44.4463 10.0789V115.918C44.4463 121.266 48.781 125.6 54.1282 125.6H54.1303C59.4775 125.6 63.8122 121.266 63.8122 115.918V10.0789C63.8122 4.73173 59.4775 0.396973 54.1303 0.396973Z" fill="#95C623"/>
<path d="M77.684 1H77.682C72.3348 1 68 5.33476 68 10.6819V116.521C68 121.869 72.3348 126.203 77.682 126.203H77.684C83.0312 126.203 87.366 121.869 87.366 116.521V10.6819C87.366 5.33476 83.0312 1 77.684 1Z" fill="#EFE7DA"/>
<path d="M54.1282 42.7352L54.898 43.7126" stroke="white" stroke-width="5" stroke-miterlimit="10"/>
<path d="M56.4875 45.7357L74.7683 68.984" stroke="white" stroke-width="5" stroke-miterlimit="10" stroke-dasharray="12.39 12.39"/>
<path d="M75.563 69.9945L76.3328 70.9739" stroke="white" stroke-width="5" stroke-miterlimit="10"/>
<path d="M9.71912 40.7619C11.8827 40.7619 13.6367 39.008 13.6367 36.8443C13.6367 34.6807 11.8827 32.9268 9.71912 32.9268C7.55548 32.9268 5.80151 34.6807 5.80151 36.8443C5.80151 39.008 7.55548 40.7619 9.71912 40.7619Z" stroke="white" stroke-width="5" stroke-miterlimit="10" stroke-linecap="round"/>
<path d="M31.9237 88.3728C34.0873 88.3728 35.8413 86.6188 35.8413 84.4552C35.8413 82.2916 34.0873 80.5376 31.9237 80.5376C29.7601 80.5376 28.0061 82.2916 28.0061 84.4552C28.0061 86.6188 29.7601 88.3728 31.9237 88.3728Z" stroke="white" stroke-width="5" stroke-miterlimit="10" stroke-linecap="round"/>
<path opacity="0.8" d="M76.3329 74.8915C78.4965 74.8915 80.2505 73.1375 80.2505 70.9739C80.2505 68.8102 78.4965 67.0563 76.3329 67.0563C74.1693 67.0563 72.4153 68.8102 72.4153 70.9739C72.4153 73.1375 74.1693 74.8915 76.3329 74.8915Z" stroke="#BC0000" stroke-width="5" stroke-miterlimit="10" stroke-linecap="round"/>
<path d="M54.1283 46.6528C56.2919 46.6528 58.0459 44.8989 58.0459 42.7352C58.0459 40.5716 56.2919 38.8176 54.1283 38.8176C51.9647 38.8176 50.2107 40.5716 50.2107 42.7352C50.2107 44.8989 51.9647 46.6528 54.1283 46.6528Z" stroke="white" stroke-width="5" stroke-miterlimit="10" stroke-linecap="round"/>
<path d="M9.71906 38.7409C10.7665 38.7409 11.6156 37.8917 11.6156 36.8443C11.6156 35.7969 10.7665 34.9478 9.71906 34.9478C8.67162 34.9478 7.82251 35.7969 7.82251 36.8443C7.82251 37.8917 8.67162 38.7409 9.71906 38.7409Z" fill="white"/>
<path d="M31.9236 86.3517C32.9711 86.3517 33.8202 85.5026 33.8202 84.4551C33.8202 83.4077 32.9711 82.5586 31.9236 82.5586C30.8762 82.5586 30.0271 83.4077 30.0271 84.4551C30.0271 85.5026 30.8762 86.3517 31.9236 86.3517Z" fill="white"/>
<path d="M54.1282 44.6318C55.1757 44.6318 56.0248 43.7827 56.0248 42.7353C56.0248 41.6879 55.1757 40.8387 54.1282 40.8387C53.0808 40.8387 52.2317 41.6879 52.2317 42.7353C52.2317 43.7827 53.0808 44.6318 54.1282 44.6318Z" fill="white"/>
<path d="M76.3328 72.8705C77.3803 72.8705 78.2294 72.0214 78.2294 70.9739C78.2294 69.9265 77.3803 69.0774 76.3328 69.0774C75.2854 69.0774 74.4363 69.9265 74.4363 70.9739C74.4363 72.0214 75.2854 72.8705 76.3328 72.8705Z" fill="#BC0000" stroke="#BC0000" stroke-miterlimit="10"/>
<path d="M9.71899 36.8442L10.244 37.973" stroke="white" stroke-width="5" stroke-miterlimit="10"/>
<path d="M11.2524 40.1332L30.8944 82.2474" stroke="white" stroke-width="5" stroke-miterlimit="10" stroke-dasharray="11.48 11.48"/>
<path d="M31.3967 83.3284L31.9238 84.4551" stroke="white" stroke-width="5" stroke-miterlimit="10"/>
<path d="M31.9236 84.4552L32.5087 83.3575" stroke="white" stroke-width="5" stroke-miterlimit="10"/>
<path d="M33.6147 81.2762L52.989 44.8745" stroke="white" stroke-width="5" stroke-miterlimit="10" stroke-dasharray="11.36 11.36"/>
<path d="M53.543 43.8329L54.1281 42.7352" stroke="white" stroke-width="5" stroke-miterlimit="10"/>
<path d="M76.3328 60.1963C74.4238 60.1963 72.6953 61.7442 72.6953 63.6532C72.6953 65.5622 74.2723 67.8427 76.3328 71.1129C78.3953 67.8427 79.9723 65.5622 79.9723 63.6532C79.9723 61.7442 78.2439 60.1963 76.3328 60.1963ZM76.3328 65.1991C76.0628 65.1991 75.7988 65.119 75.5742 64.969C75.3497 64.819 75.1747 64.6057 75.0714 64.3563C74.968 64.1068 74.941 63.8322 74.9937 63.5674C75.0464 63.3025 75.1764 63.0593 75.3673 62.8683C75.5583 62.6774 75.8016 62.5473 76.0664 62.4946C76.3313 62.442 76.6058 62.469 76.8553 62.5723C77.1048 62.6757 77.318 62.8507 77.468 63.0752C77.6181 63.2997 77.6981 63.5637 77.6981 63.8338C77.6984 64.0131 77.6633 64.1908 77.5948 64.3566C77.5262 64.5224 77.4257 64.673 77.2988 64.7998C77.172 64.9267 77.0214 65.0272 76.8556 65.0957C76.6898 65.1643 76.5122 65.1994 76.3328 65.1991Z" fill="#490202"/>
<path d="M113.092 78.9998L109.331 72.6312H105.38V78.9998H99V55.0001H109.236C111.036 54.9925 112.796 55.5235 114.285 56.5231C115.774 57.5227 116.922 58.9442 117.577 60.6005C118.233 62.2567 118.365 64.0702 117.957 65.8022C117.55 67.5343 116.62 69.1038 115.292 70.3043L120.444 78.9998H113.092ZM105.38 67.1739H109.331C109.788 67.1739 110.241 67.0849 110.664 66.912C111.086 66.7391 111.47 66.4858 111.793 66.1663C112.117 65.8469 112.373 65.4677 112.548 65.0503C112.723 64.633 112.813 64.1856 112.813 63.7339C112.813 63.2822 112.723 62.8348 112.548 62.4175C112.373 62.0001 112.117 61.6209 111.793 61.3015C111.47 60.982 111.086 60.7287 110.664 60.5558C110.241 60.3829 109.788 60.2939 109.331 60.2939H105.38V67.1739Z" fill="#00485C"/>
<path d="M128.834 55.0002C131.237 54.994 133.588 55.6917 135.589 57.0051C137.59 58.3186 139.152 60.1886 140.077 62.379C141.002 64.5693 141.249 66.9814 140.787 69.3104C140.324 71.6393 139.173 73.7805 137.478 75.4631C135.784 77.1457 133.622 78.2941 131.267 78.7632C128.912 79.2323 126.469 79.0009 124.247 78.0984C122.024 77.1959 120.123 75.6628 118.783 73.6928C117.443 71.7229 116.725 69.4047 116.718 67.0314C116.718 63.8513 117.993 60.8006 120.263 58.5461C122.534 56.2916 125.615 55.0167 128.834 55.0002V55.0002ZM128.834 61.261C127.687 61.261 126.566 61.597 125.613 62.2264C124.659 62.8559 123.916 63.7506 123.477 64.7974C123.038 65.8441 122.923 66.996 123.147 68.1072C123.37 69.2185 123.923 70.2392 124.734 71.0404C125.545 71.8416 126.578 72.3872 127.703 72.6082C128.828 72.8292 129.994 72.7158 131.054 72.2822C132.113 71.8486 133.019 71.1144 133.656 70.1723C134.294 69.2302 134.634 68.1226 134.634 66.9896C134.634 66.2377 134.484 65.4931 134.193 64.7984C133.902 64.1037 133.474 63.4727 132.936 62.9415C132.397 62.4103 131.757 61.9893 131.053 61.7027C130.35 61.4162 129.596 61.2696 128.834 61.2714V61.261Z" fill="#00485C"/>
<path d="M138.067 79L149.405 55.0002H152.285L163.722 79H157.342L155.849 75.8696H145.905L144.447 79H138.067ZM148.401 70.5514H153.356L150.891 65.2715L148.401 70.5514Z" fill="#00485C"/>
<path d="M161.229 55.0002H170.233C173.454 55.0002 176.544 56.2645 178.822 58.5149C181.101 60.7653 182.38 63.8176 182.38 67.0001C182.38 70.1827 181.101 73.2349 178.822 75.4853C176.544 77.7358 173.454 79 170.233 79H161.229V55.0002ZM167.567 72.7914H170.257C171.782 72.7914 173.245 72.193 174.323 71.1278C175.401 70.0626 176.007 68.6179 176.007 67.1114C176.007 65.605 175.401 64.1603 174.323 63.0951C173.245 62.0299 171.782 61.4315 170.257 61.4315H167.567V72.7914Z" fill="#00485C"/>
<path d="M193.848 63.8941L203.729 55.0002H206.609V79H200.197V66.6802L193.859 72.4053L187.479 66.7114V79H181.053V55.0002H183.937L193.848 63.8941Z" fill="#00485C"/>
<path d="M204.144 79L215.482 55.0002H218.363L229.799 79H223.422L221.933 75.8696H211.989L210.532 79H204.144ZM214.475 70.5514H219.433L216.968 65.2715L214.475 70.5514Z" fill="#00485C"/>
<path d="M227.313 55.0002H237.549C239.888 55.0261 242.123 55.9575 243.774 57.5943C245.424 59.2311 246.358 61.4424 246.375 63.7527C246.393 66.0629 245.491 68.2874 243.865 69.9479C242.239 71.6083 240.018 72.5719 237.68 72.6314H233.694V79H227.313V55.0002ZM233.694 67.1741H237.644C238.102 67.1741 238.555 67.0851 238.977 66.9122C239.4 66.7393 239.784 66.4859 240.107 66.1665C240.43 65.8471 240.687 65.4679 240.862 65.0505C241.037 64.6331 241.127 64.1858 241.127 63.7341C241.127 63.2823 241.037 62.835 240.862 62.4177C240.687 62.0003 240.43 61.6211 240.107 61.3017C239.784 60.9822 239.4 60.7288 238.977 60.556C238.555 60.3831 238.102 60.2941 237.644 60.2941H233.694V67.1741Z" fill="#00485C"/>
<path d="M264.356 75.48C262.66 77.157 260.5 78.3004 258.147 78.766C255.794 79.2316 253.355 78.9985 251.136 78.0961C248.917 77.1938 247.019 75.6626 245.68 73.6957C244.341 71.7287 243.622 69.4142 243.613 67.044C243.604 64.6738 244.306 62.3541 245.63 60.3775C246.954 58.401 248.841 56.856 251.053 55.9375C253.265 55.0191 255.703 54.7683 258.059 55.2168C260.415 55.6653 262.584 56.7929 264.292 58.4576L263.838 58.8715C262.216 57.2755 260.151 56.1909 257.904 55.7552C255.657 55.3195 253.33 55.5522 251.218 56.4239C249.105 57.2955 247.302 58.7669 246.036 60.6517C244.771 62.5365 244.1 64.7499 244.109 67.0115C244.118 69.2732 244.806 71.4813 246.086 73.3563C247.366 75.2314 249.181 76.6889 251.301 77.5443C253.42 78.3998 255.749 78.6146 257.992 78.1617C260.235 77.7088 262.292 76.6084 263.901 75L264.356 75.48Z" fill="#00485C"/>
<path d="M284 75.48C282.304 77.157 280.144 78.3004 277.791 78.766C275.438 79.2316 272.999 78.9985 270.78 78.0961C268.561 77.1938 266.663 75.6626 265.324 73.6957C263.985 71.7287 263.266 69.4142 263.257 67.044C263.248 64.6738 263.95 62.3541 265.274 60.3775C266.599 58.401 268.486 56.856 270.698 55.9375C272.91 55.0191 275.347 54.7683 277.704 55.2168C280.06 55.6653 282.228 56.7929 283.937 58.4576L283.482 58.8715C281.86 57.2755 279.795 56.1909 277.548 55.7552C275.302 55.3195 272.975 55.5522 270.862 56.4239C268.749 57.2955 266.946 58.7669 265.68 60.6517C264.415 62.5365 263.744 64.7499 263.753 67.0115C263.762 69.2732 264.45 71.4813 265.73 73.3563C267.011 75.2314 268.825 76.6889 270.945 77.5443C273.064 78.3998 275.393 78.6146 277.636 78.1617C279.879 77.7088 281.936 76.6084 283.546 75L284 75.48Z" fill="#00485C"/>
</svg>
