<svg width="110" height="16" viewBox="0 0 110 16" fill="none" xmlns="http://www.w3.org/2000/svg">
<path d="M8.81245 15.1764L6.59635 11.3771H4.2682V15.1764H0.508301V0.858934H6.54033C7.6012 0.854427 8.63858 1.17118 9.51599 1.76753C10.3934 2.36388 11.0697 3.21187 11.456 4.19994C11.8422 5.18801 11.9203 6.26986 11.6799 7.30316C11.4396 8.33645 10.892 9.27277 10.1093 9.98893L13.1451 15.1764H8.81245ZM4.2682 8.12143H6.59635C6.86585 8.12143 7.1327 8.06834 7.38169 7.96521C7.63067 7.86208 7.8569 7.71092 8.04746 7.52036C8.23802 7.3298 8.38918 7.10356 8.49232 6.85458C8.59545 6.6056 8.64853 6.33875 8.64853 6.06925C8.64853 5.79976 8.59545 5.5329 8.49232 5.28392C8.38918 5.03494 8.23802 4.80871 8.04746 4.61815C7.8569 4.42758 7.63067 4.27643 7.38169 4.1733C7.1327 4.07016 6.86585 4.01708 6.59635 4.01708H4.2682V8.12143Z" fill="#00485C"/>
<path d="M18.0898 0.859033C19.5056 0.855344 20.8908 1.27159 22.0701 2.05513C23.2494 2.83868 24.1698 3.95432 24.7151 5.26099C25.2603 6.56766 25.4058 8.00667 25.1332 9.39604C24.8606 10.7854 24.1822 12.0628 23.1836 13.0665C22.1851 14.0703 20.9113 14.7554 19.5233 15.0353C18.1354 15.3151 16.6957 15.1771 15.3862 14.6387C14.0767 14.1003 12.9562 13.1857 12.1666 12.0105C11.3769 10.8353 10.9534 9.45231 10.9497 8.03645C10.9497 6.13934 11.7007 4.31937 13.0387 2.97441C14.3767 1.62945 16.1927 0.868905 18.0898 0.859033ZM18.0898 4.59403C17.4139 4.59403 16.7531 4.79447 16.1911 5.16999C15.6291 5.54551 15.1911 6.07925 14.9324 6.70372C14.6737 7.3282 14.6061 8.01535 14.7379 8.67828C14.8698 9.34122 15.1953 9.95016 15.6732 10.4281C16.1512 10.9061 16.7601 11.2316 17.4231 11.3634C18.086 11.4953 18.7731 11.4276 19.3976 11.1689C20.0221 10.9103 20.5558 10.4722 20.9313 9.91024C21.3069 9.34823 21.5073 8.68748 21.5073 8.01155C21.5076 7.56297 21.4193 7.11875 21.2476 6.70434C21.0759 6.28994 20.824 5.9135 20.5066 5.59659C20.1891 5.27969 19.8122 5.02855 19.3975 4.85758C18.9827 4.68661 18.5384 4.59916 18.0898 4.60025V4.59403Z" fill="#00485C"/>
<path d="M23.5305 15.1765L30.212 0.859009H31.9094L38.649 15.1765H34.8891L34.0093 13.309H28.1495L27.2904 15.1765H23.5305ZM29.6206 10.1363H32.5402L31.0877 6.98648L29.6206 10.1363Z" fill="#00485C"/>
<path d="M37.1799 0.859009H42.4857C44.3843 0.859009 46.2052 1.61323 47.5477 2.95575C48.8902 4.29828 49.6445 6.11914 49.6445 8.01776C49.6445 9.91638 48.8902 11.7372 47.5477 13.0798C46.2052 14.4223 44.3843 15.1765 42.4857 15.1765H37.1799V0.859009ZM40.9149 11.4726H42.5002C43.3989 11.4726 44.2608 11.1156 44.8962 10.4802C45.5317 9.84472 45.8887 8.98284 45.8887 8.08416C45.8887 7.18548 45.5317 6.32361 44.8962 5.68815C44.2608 5.05268 43.3989 4.69568 42.5002 4.69568H40.9149V11.4726Z" fill="#00485C"/>
<path d="M56.4026 6.16479L62.2251 0.859009H63.9224V15.1765H60.1438V7.82686L56.4088 11.2423L52.6489 7.84553V15.1765H48.8621V0.859009H50.5615L56.4026 6.16479Z" fill="#00485C"/>
<path d="M62.47 15.1765L69.1515 0.859009H70.8488L77.5884 15.1765H73.8306L72.9529 13.309H67.0931L66.234 15.1765H62.47ZM68.558 10.1363H71.4796L70.0271 6.98648L68.558 10.1363Z" fill="#00485C"/>
<path d="M76.1235 0.859009H82.1556C83.5337 0.874408 84.8508 1.43009 85.8235 2.40655C86.7961 3.383 87.3467 4.70221 87.3568 6.08041C87.3668 7.45862 86.8356 8.78572 85.8772 9.77627C84.9189 10.7668 83.6101 11.3417 82.2323 11.3772H79.8834V15.1765H76.1235V0.859009ZM79.8834 8.12151H82.2116C82.4811 8.12151 82.7479 8.06842 82.9969 7.96529C83.2459 7.86216 83.4721 7.711 83.6627 7.52044C83.8533 7.32988 84.0044 7.10365 84.1075 6.85466C84.2107 6.60568 84.2638 6.33883 84.2638 6.06933C84.2638 5.79984 84.2107 5.53298 84.1075 5.284C84.0044 5.03502 83.8533 4.80879 83.6627 4.61823C83.4721 4.42766 83.2459 4.27651 82.9969 4.17337C82.7479 4.07024 82.4811 4.01715 82.2116 4.01715H79.8834V8.12151Z" fill="#00485C"/>
<path d="M97.9525 13.0766C96.9533 14.077 95.6801 14.7592 94.2937 15.0369C92.9073 15.3147 91.4696 15.1756 90.1621 14.6373C88.8546 14.099 87.7358 13.1855 86.9468 12.0121C86.1578 10.8387 85.734 9.45795 85.7288 8.04397C85.7236 6.62999 86.1373 5.24613 86.9176 4.06696C87.6979 2.88779 88.81 1.96611 90.1135 1.41819C91.417 0.870274 92.8536 0.720662 94.242 0.988211C95.6305 1.25576 96.9086 1.92849 97.9152 2.92156L97.6475 3.16848C96.6915 2.21636 95.4745 1.56936 94.1505 1.30943C92.8266 1.0495 91.4553 1.18833 90.2103 1.70833C88.9653 2.22834 87.9026 3.10613 87.1568 4.23053C86.4111 5.35493 86.0158 6.67535 86.021 8.02457C86.0263 9.37379 86.4318 10.6911 87.1863 11.8097C87.9407 12.9283 89.0102 13.7978 90.2592 14.3081C91.5082 14.8184 92.8805 14.9466 94.2024 14.6764C95.5243 14.4062 96.7363 13.7498 97.6849 12.7903L97.9525 13.0766Z" fill="#00485C"/>
<path d="M109.529 13.0766C108.53 14.077 107.257 14.7592 105.87 15.0369C104.484 15.3147 103.046 15.1756 101.739 14.6373C100.431 14.099 99.3122 13.1855 98.5232 12.0121C97.7342 10.8387 97.3104 9.45795 97.3052 8.04397C97.3 6.62999 97.7137 5.24613 98.494 4.06696C99.2743 2.88779 100.386 1.96611 101.69 1.41819C102.993 0.870274 104.43 0.720662 105.818 0.988211C107.207 1.25576 108.485 1.92849 109.492 2.92156L109.224 3.16848C108.268 2.21636 107.051 1.56936 105.727 1.30943C104.403 1.0495 103.032 1.18833 101.787 1.70833C100.542 2.22834 99.479 3.10613 98.7333 4.23053C97.9875 5.35493 97.5922 6.67535 97.5975 8.02457C97.6027 9.37379 98.0082 10.6911 98.7627 11.8097C99.5171 12.9283 100.587 13.7978 101.836 14.3081C103.085 14.8184 104.457 14.9466 105.779 14.6764C107.101 14.4062 108.313 13.7498 109.261 12.7903L109.529 13.0766Z" fill="#00485C"/>
</svg>
