<svg width="448" height="59" viewBox="0 0 448 59" fill="none" xmlns="http://www.w3.org/2000/svg">
<path d="M34.1244 58.9997L25.0177 43.3435H15.4506V58.9997H0V0.000256482H24.7875C29.147 -0.0183147 33.4099 1.28698 37.0154 3.7444C40.621 6.20182 43.4002 9.69623 44.9874 13.7679C46.5746 17.8395 46.8954 22.2976 45.9077 26.5556C44.92 30.8136 42.6699 34.672 39.4536 37.6231L51.9284 58.9997H34.1244ZM15.4506 29.9275H25.0177C26.1252 29.9275 27.2218 29.7087 28.2449 29.2838C29.268 28.8588 30.1977 28.2359 30.9808 27.4506C31.7638 26.6653 32.385 25.7331 32.8088 24.7071C33.2326 23.6811 33.4507 22.5814 33.4507 21.4709C33.4507 20.3604 33.2326 19.2607 32.8088 18.2347C32.385 17.2087 31.7638 16.2765 30.9808 15.4912C30.1977 14.7059 29.268 14.083 28.2449 13.6581C27.2218 13.2331 26.1252 13.0143 25.0177 13.0143H15.4506V29.9275Z" fill="#00485C"/>
<path d="M72.2478 0.000542664C78.066 -0.0146578 83.758 1.70062 88.6041 4.92943C93.4502 8.15825 97.2327 12.7556 99.4732 18.1401C101.714 23.5246 102.312 29.4545 101.192 35.1798C100.071 40.9051 97.2833 46.1688 93.18 50.3052C89.0766 54.4415 83.8422 57.2648 78.1388 58.418C72.4353 59.5712 66.5189 59.0025 61.1378 56.7838C55.7567 54.5651 51.1524 50.7961 47.9074 45.9534C44.6623 41.1106 42.9222 35.4117 42.907 29.5772C42.9069 21.7596 45.9932 14.2599 51.4913 8.71757C56.9894 3.17527 64.452 0.0412242 72.2478 0.000542664ZM72.2478 15.3917C69.4702 15.3917 66.755 16.2177 64.4455 17.7651C62.1361 19.3126 60.336 21.512 59.2731 24.0853C58.2102 26.6586 57.9321 29.4902 58.4739 32.2221C59.0158 34.9539 60.3534 37.4632 62.3174 39.4328C64.2814 41.4023 66.7838 42.7436 69.508 43.287C72.2322 43.8304 75.0559 43.5515 77.6221 42.4855C80.1882 41.4196 82.3815 39.6146 83.9247 37.2987C85.4678 34.9828 86.2915 32.26 86.2915 29.4746C86.2926 27.6261 85.9299 25.7956 85.2242 24.0879C84.5186 22.3802 83.4837 20.8289 82.1791 19.5231C80.8745 18.2172 79.3257 17.1823 77.6215 16.4777C75.9172 15.7732 74.0911 15.4128 72.2478 15.4173V15.3917Z" fill="#00485C"/>
<path d="M94.6055 59L122.062 0.000473022H129.037L156.732 59H141.281L137.666 51.3044H113.586L110.056 59H94.6055ZM119.632 38.2304H131.629L125.66 25.2505L119.632 38.2304Z" fill="#00485C"/>
<path d="M150.695 0.000473022H172.498C180.3 0.000473022 187.783 3.10846 193.299 8.64073C198.816 14.173 201.916 21.6764 201.916 29.5002C201.916 37.324 198.816 44.8274 193.299 50.3597C187.783 55.8919 180.3 59 172.498 59H150.695V0.000473022ZM166.043 43.737H172.558C176.251 43.737 179.793 42.2659 182.404 39.6473C185.015 37.0287 186.482 33.4771 186.482 29.7738C186.482 26.0706 185.015 22.519 182.404 19.9004C179.793 17.2817 176.251 15.8106 172.558 15.8106H166.043V43.737Z" fill="#00485C"/>
<path d="M229.687 21.8645L253.613 0.000473022H260.588V59H245.061V28.7136L229.713 42.7879L214.262 28.7905V59H198.701V0.000473022H205.684L229.687 21.8645Z" fill="#00485C"/>
<path d="M254.62 59L282.077 0.000473022H289.052L316.747 59H301.305L297.698 51.3044H273.618L270.088 59H254.62ZM279.638 38.2304H291.644L285.675 25.2505L279.638 38.2304Z" fill="#00485C"/>
<path d="M310.727 0.000473022H335.514C341.177 0.0639282 346.59 2.3538 350.587 6.37756C354.584 10.4013 356.846 15.8375 356.887 21.5168C356.929 27.1961 354.746 32.6648 350.808 36.7467C346.87 40.8285 341.491 43.1974 335.83 43.3437H326.177V59H310.727V0.000473022ZM326.177 29.9278H335.744C336.852 29.9278 337.948 29.709 338.971 29.284C339.995 28.859 340.924 28.2361 341.707 27.4509C342.49 26.6656 343.112 25.7333 343.535 24.7073C343.959 23.6813 344.177 22.5817 344.177 21.4711C344.177 20.3606 343.959 19.261 343.535 18.235C343.112 17.209 342.49 16.2767 341.707 15.4914C340.924 14.7062 339.995 14.0833 338.971 13.6583C337.948 13.2333 336.852 13.0145 335.744 13.0145H326.177V29.9278Z" fill="#00485C"/>
<path d="M400.429 50.3467C396.323 54.4693 391.091 57.2802 385.394 58.4247C379.696 59.5693 373.788 58.9963 368.416 56.778C363.043 54.5597 358.445 50.7955 355.203 45.9602C351.961 41.1248 350.219 35.435 350.198 29.6083C350.176 23.7815 351.876 18.0789 355.083 13.2198C358.289 8.36068 362.859 4.56265 368.216 2.30479C373.572 0.0469263 379.476 -0.569595 385.181 0.532917C390.887 1.63543 396.139 4.40762 400.275 8.49983L399.175 9.51736C395.247 5.59386 390.246 2.92771 384.805 1.85659C379.365 0.78546 373.729 1.35755 368.613 3.50039C363.497 5.64322 359.13 9.26041 356.066 13.8938C353.001 18.5273 351.377 23.9684 351.399 29.5283C351.42 35.0882 353.087 40.5166 356.187 45.126C359.287 49.7354 363.682 53.3185 368.814 55.4215C373.947 57.5244 379.586 58.0526 385.018 56.9391C390.45 55.8257 395.431 53.1207 399.329 49.1667L400.429 50.3467Z" fill="#00485C"/>
<path d="M448 50.3467C443.894 54.4693 438.662 57.2802 432.965 58.4247C427.268 59.5693 421.36 58.9963 415.987 56.778C410.614 54.5597 406.017 50.7955 402.774 45.9602C399.532 41.1248 397.791 35.435 397.769 29.6083C397.748 23.7815 399.448 18.0789 402.654 13.2198C405.861 8.36068 410.431 4.56265 415.787 2.30479C421.144 0.0469263 427.047 -0.569595 432.753 0.532917C438.458 1.63543 443.711 4.40762 447.847 8.49983L446.747 9.51736C442.819 5.59386 437.817 2.92771 432.377 1.85659C426.936 0.78546 421.301 1.35755 416.185 3.50039C411.069 5.64322 406.702 9.26041 403.638 13.8938C400.573 18.5273 398.949 23.9684 398.97 29.5283C398.992 35.0882 400.658 40.5166 403.758 45.126C406.859 49.7354 411.253 53.3185 416.386 55.4215C421.518 57.5244 427.158 58.0526 432.59 56.9391C438.022 55.8257 443.002 53.1207 446.9 49.1667L448 50.3467Z" fill="#00485C"/>
</svg>
