<svg width="1080" height="1080" viewBox="0 0 1080 1080" fill="none" xmlns="http://www.w3.org/2000/svg">
<path d="M227.515 0H227.485C149.345 0 86 63.2811 86 141.342V938.658C86 1016.72 149.345 1080 227.485 1080H227.515C305.655 1080 369 1016.72 369 938.658V141.342C369 63.2811 305.655 0 227.515 0Z" fill="#0E4749"/>
<path d="M851.515 0H851.485C773.345 0 710 63.2811 710 141.342V938.658C710 1016.72 773.345 1080 851.485 1080H851.515C929.655 1080 993 1016.72 993 938.658V141.342C993 63.2811 929.655 0 851.515 0Z" fill="#85E9A5"/>
<path d="M538.515 0H538.485C460.345 0 397 63.2811 397 141.342V938.658C397 1016.72 460.345 1080 538.485 1080H538.515C616.655 1080 680 1016.72 680 938.658V141.342C680 63.2811 616.655 0 538.515 0Z" fill="#00C599"/>
<path fill-rule="evenodd" clip-rule="evenodd" d="M176.463 344.288C176.463 316.055 199.351 293.167 227.584 293.167C255.817 293.167 278.704 316.055 278.704 344.288C278.704 372.521 255.817 395.409 227.584 395.409C199.351 395.409 176.463 372.521 176.463 344.288ZM227.584 273.167C188.305 273.167 156.463 305.009 156.463 344.288C156.463 383.567 188.305 415.409 227.584 415.409C266.863 415.409 298.704 383.567 298.704 344.288C298.704 305.009 266.863 273.167 227.584 273.167ZM257.757 344.288C257.757 360.952 244.248 374.462 227.584 374.462C210.919 374.462 197.41 360.952 197.41 344.288C197.41 327.624 210.919 314.115 227.584 314.115C244.248 314.115 257.757 327.624 257.757 344.288Z" fill="white"/>
<path fill-rule="evenodd" clip-rule="evenodd" d="M488.257 755.113C488.257 726.879 511.144 703.992 539.378 703.992C567.611 703.992 590.498 726.879 590.498 755.113C590.498 783.346 567.611 806.234 539.378 806.234C511.144 806.234 488.257 783.346 488.257 755.113ZM539.378 683.992C500.099 683.992 468.257 715.834 468.257 755.113C468.257 794.392 500.099 826.234 539.378 826.234C578.657 826.234 610.498 794.392 610.498 755.113C610.498 715.834 578.657 683.992 539.378 683.992ZM569.551 755.113C569.551 771.777 556.042 785.286 539.378 785.286C522.713 785.286 509.204 771.777 509.204 755.113C509.204 738.448 522.713 724.939 539.378 724.939C556.042 724.939 569.551 738.448 569.551 755.113Z" fill="white"/>
<line x1="219.889" y1="346.024" x2="524.866" y2="748.107" stroke="white" stroke-width="10" stroke-linecap="round" stroke-dasharray="30 30"/>
<line x1="851.33" y1="486.727" x2="530.948" y2="755.727" stroke="white" stroke-width="10" stroke-linecap="round" stroke-dasharray="30 30"/>
<path d="M851 338C824.25 338 800 359.553 800 386.134C800 412.714 822.127 444.466 851 490C879.873 444.466 902 412.743 902 386.134C902 359.524 877.779 338 851 338ZM851 407.658C847.215 407.658 843.515 406.543 840.368 404.452C837.221 402.362 834.768 399.391 833.321 395.916C831.874 392.44 831.497 388.616 832.237 384.928C832.978 381.239 834.803 377.852 837.482 375.194C840.16 372.537 843.572 370.729 847.285 369.998C850.998 369.268 854.846 369.649 858.342 371.092C861.837 372.535 864.823 374.976 866.922 378.107C869.021 381.237 870.138 384.915 870.132 388.676C870.109 393.703 868.083 398.516 864.498 402.063C860.912 405.609 856.059 407.601 851 407.6V407.658Z" fill="#418672"/>
<path fill-rule="evenodd" clip-rule="evenodd" d="M809.39 433.523C792.048 446.493 780.823 467.193 780.823 490.514C780.823 529.793 812.665 561.635 851.944 561.635C891.223 561.635 923.065 529.793 923.065 490.514C923.065 466.697 911.358 445.614 893.384 432.707C890.445 438.351 887.156 444.221 883.572 450.349C895.444 459.71 903.065 474.222 903.065 490.514C903.065 518.747 880.177 541.635 851.944 541.635C823.711 541.635 800.823 518.747 800.823 490.514C800.823 474.706 807.999 460.573 819.27 451.196C815.667 445.058 812.356 439.177 809.39 433.523ZM830.319 469.471C825.029 474.906 821.77 482.33 821.77 490.514C821.77 507.178 835.28 520.687 851.944 520.687C868.608 520.687 882.117 507.178 882.117 490.514C882.117 481.845 878.462 474.03 872.607 468.526C868.83 474.65 864.843 481.017 860.69 487.651C857.603 492.581 854.424 497.658 851.17 502.893C847.938 497.694 844.781 492.65 841.714 487.751C837.752 481.422 833.941 475.335 830.319 469.471Z" fill="#418672"/>
</svg>