<svg width="1426" height="504" viewBox="0 0 1426 504" fill="none" xmlns="http://www.w3.org/2000/svg">
<path d="M38.9354 0H38.927C17.4282 0 0 17.4282 0 38.927V464.463C0 485.962 17.4282 503.39 38.927 503.39H38.9354C60.4342 503.39 77.8624 485.962 77.8624 464.463V38.927C77.8624 17.4282 60.4342 0 38.9354 0Z" fill="#002626"/>
<path d="M128.211 0H128.202C106.704 0 89.2754 17.4282 89.2754 38.927V464.463C89.2754 485.962 106.704 503.39 128.202 503.39H128.211C149.71 503.39 167.138 485.962 167.138 464.463V38.927C167.138 17.4282 149.71 0 128.211 0Z" fill="#0E4749"/>
<path d="M217.485 0H217.477C195.978 0 178.55 17.4282 178.55 38.927V464.463C178.55 485.962 195.978 503.39 217.477 503.39H217.485C238.984 503.39 256.412 485.962 256.412 464.463V38.927C256.412 17.4282 238.984 0 217.485 0Z" fill="#95C623"/>
<path d="M306.761 0H306.752C285.253 0 267.825 17.4282 267.825 38.927V464.463C267.825 485.962 285.253 503.39 306.752 503.39H306.761C328.259 503.39 345.688 485.962 345.688 464.463V38.927C345.688 17.4282 328.259 0 306.761 0Z" fill="#EFE7DA"/>
<path d="M217.485 176.548L220.58 180.486" stroke="white" stroke-width="5" stroke-miterlimit="10"/>
<path d="M226.971 188.612L300.47 282.092" stroke="white" stroke-width="5" stroke-miterlimit="10" stroke-dasharray="12.39 12.39"/>
<path d="M303.665 286.155L306.76 290.084" stroke="white" stroke-width="5" stroke-miterlimit="10"/>
<path d="M38.9268 168.614C47.6258 168.614 54.6778 161.562 54.6778 152.863C54.6778 144.164 47.6258 137.112 38.9268 137.112C30.2277 137.112 23.1758 144.164 23.1758 152.863C23.1758 161.562 30.2277 168.614 38.9268 168.614Z" stroke="white" stroke-width="5" stroke-miterlimit="10" stroke-linecap="round"/>
<path d="M128.21 360.046C136.909 360.046 143.961 352.994 143.961 344.295C143.961 335.596 136.909 328.544 128.21 328.544C119.511 328.544 112.459 335.596 112.459 344.295C112.459 352.994 119.511 360.046 128.21 360.046Z" stroke="white" stroke-width="5" stroke-miterlimit="10" stroke-linecap="round"/>
<path opacity="0.8" d="M306.761 305.835C315.46 305.835 322.512 298.783 322.512 290.084C322.512 281.385 315.46 274.333 306.761 274.333C298.062 274.333 291.01 281.385 291.01 290.084C291.01 298.783 298.062 305.835 306.761 305.835Z" stroke="#BC0000" stroke-width="5" stroke-miterlimit="10" stroke-linecap="round"/>
<path d="M217.485 192.299C226.184 192.299 233.236 185.247 233.236 176.548C233.236 167.849 226.184 160.797 217.485 160.797C208.786 160.797 201.734 167.849 201.734 176.548C201.734 185.247 208.786 192.299 217.485 192.299Z" stroke="white" stroke-width="5" stroke-miterlimit="10" stroke-linecap="round"/>
<path d="M38.927 160.488C43.1383 160.488 46.5522 157.074 46.5522 152.863C46.5522 148.652 43.1383 145.238 38.927 145.238C34.7157 145.238 31.3018 148.652 31.3018 152.863C31.3018 157.074 34.7157 160.488 38.927 160.488Z" fill="white"/>
<path d="M128.21 351.92C132.421 351.92 135.835 348.506 135.835 344.295C135.835 340.083 132.421 336.67 128.21 336.67C123.999 336.67 120.585 340.083 120.585 344.295C120.585 348.506 123.999 351.92 128.21 351.92Z" fill="white"/>
<path d="M217.486 184.173C221.697 184.173 225.111 180.759 225.111 176.548C225.111 172.337 221.697 168.923 217.486 168.923C213.274 168.923 209.86 172.337 209.86 176.548C209.86 180.759 213.274 184.173 217.486 184.173Z" fill="white"/>
<path d="M306.761 297.709C310.972 297.709 314.386 294.295 314.386 290.084C314.386 285.873 310.972 282.459 306.761 282.459C302.55 282.459 299.136 285.873 299.136 290.084C299.136 294.295 302.55 297.709 306.761 297.709Z" fill="#BC0000" stroke="#BC0000" stroke-miterlimit="10"/>
<path d="M38.9268 152.863L41.0458 157.402" stroke="white" stroke-width="5" stroke-miterlimit="10"/>
<path d="M45.0918 166.086L124.064 335.418" stroke="white" stroke-width="5" stroke-miterlimit="10" stroke-dasharray="11.48 11.48"/>
<path d="M126.091 339.756L128.21 344.295" stroke="white" stroke-width="5" stroke-miterlimit="10"/>
<path d="M128.21 344.295L130.554 339.873" stroke="white" stroke-width="5" stroke-miterlimit="10"/>
<path d="M135.009 331.514L212.905 185.149" stroke="white" stroke-width="5" stroke-miterlimit="10" stroke-dasharray="11.36 11.36"/>
<path d="M215.133 180.97L217.485 176.548" stroke="white" stroke-width="5" stroke-miterlimit="10"/>
<path d="M306.76 246.752C299.085 246.752 292.127 252.976 292.127 260.651C292.127 268.326 298.476 277.495 306.76 290.643C315.044 277.495 321.393 268.335 321.393 260.651C321.393 252.967 314.444 246.752 306.76 246.752ZM306.76 266.866C305.674 266.866 304.612 266.544 303.709 265.94C302.806 265.337 302.103 264.479 301.688 263.476C301.272 262.472 301.164 261.368 301.377 260.303C301.589 259.238 302.113 258.259 302.881 257.492C303.65 256.725 304.629 256.203 305.694 255.992C306.76 255.781 307.864 255.891 308.867 256.307C309.869 256.724 310.726 257.429 311.328 258.333C311.931 259.237 312.251 260.299 312.25 261.385C312.243 262.837 311.662 264.226 310.633 265.251C309.604 266.275 308.212 266.85 306.76 266.85V266.866Z" fill="#490202"/>
<g clip-path="url(#clip0_326_19)">
<path d="M502.171 338.999L481.843 301.849H460.488V338.999H426V199H481.329C491.06 198.956 500.576 202.054 508.624 207.885C516.672 213.716 522.875 222.008 526.418 231.669C529.961 241.331 530.677 251.91 528.472 262.013C526.268 272.117 521.245 281.272 514.066 288.275L541.912 338.999H502.171ZM460.488 270.014H481.843C484.315 270.014 486.763 269.495 489.046 268.486C491.33 267.478 493.405 266.001 495.153 264.137C496.901 262.274 498.288 260.061 499.234 257.627C500.18 255.192 500.667 252.583 500.667 249.948C500.667 247.313 500.18 244.703 499.234 242.269C498.288 239.834 496.901 237.622 495.153 235.759C493.405 233.895 491.33 232.417 489.046 231.409C486.763 230.4 484.315 229.881 481.843 229.881H460.488V270.014Z" fill="#00485C"/>
<path d="M587.267 199.001C600.254 198.965 612.96 203.036 623.777 210.697C634.594 218.359 643.037 229.268 648.038 242.044C653.039 254.822 654.374 268.892 651.874 282.478C649.373 296.063 643.15 308.554 633.991 318.369C624.831 328.184 613.147 334.883 600.417 337.619C587.686 340.356 574.479 339.006 562.468 333.742C550.456 328.477 540.179 319.533 532.936 308.042C525.692 296.551 521.808 283.028 521.774 269.184C521.774 250.633 528.663 232.837 540.936 219.686C553.208 206.535 569.866 199.098 587.267 199.001ZM587.267 235.523C581.067 235.523 575.006 237.483 569.851 241.155C564.696 244.827 560.678 250.046 558.306 256.152C555.933 262.258 555.312 268.977 556.522 275.46C557.731 281.942 560.717 287.896 565.101 292.57C569.485 297.243 575.071 300.426 581.151 301.715C587.232 303.005 593.535 302.343 599.263 299.814C604.991 297.284 609.887 293.001 613.332 287.506C616.776 282.01 618.615 275.549 618.615 268.94C618.617 264.554 617.807 260.21 616.232 256.158C614.657 252.106 612.347 248.425 609.435 245.326C606.523 242.227 603.066 239.772 599.262 238.1C595.458 236.428 591.382 235.573 587.267 235.584V235.523Z" fill="#00485C"/>
<path d="M637.172 339L698.458 199.001H714.027L775.847 339H741.359L733.289 320.74H679.539L671.66 339H637.172ZM693.034 289.716H719.813L706.49 258.917L693.034 289.716Z" fill="#00485C"/>
<path d="M762.372 199.001H811.04C828.455 199.001 845.157 206.376 857.471 219.504C869.786 232.631 876.704 250.436 876.704 269.001C876.704 287.566 869.786 305.37 857.471 318.497C845.157 331.625 828.455 339 811.04 339H762.372V199.001ZM796.632 302.783H811.173C819.416 302.783 827.322 299.292 833.151 293.079C838.98 286.865 842.254 278.438 842.254 269.65C842.254 260.863 838.98 252.435 833.151 246.221C827.322 240.008 819.416 236.517 811.173 236.517H796.632V302.783Z" fill="#00485C"/>
<path d="M938.695 250.882L992.1 199.001H1007.67V339H973.01V267.134L938.75 300.531L904.263 267.316V339H869.528V199.001H885.116L938.695 250.882Z" fill="#00485C"/>
<path d="M994.345 339L1055.63 199.001H1071.2L1133.02 339H1098.55L1090.5 320.74H1036.75L1028.87 339H994.345ZM1050.19 289.716H1076.99L1063.66 258.917L1050.19 289.716Z" fill="#00485C"/>
<path d="M1119.58 199.001H1174.92C1187.56 199.152 1199.64 204.585 1208.56 214.133C1217.48 223.681 1222.53 236.581 1222.62 250.057C1222.71 263.534 1217.84 276.51 1209.05 286.196C1200.26 295.882 1188.26 301.503 1175.62 301.85H1154.08V339H1119.58V199.001ZM1154.08 270.015H1175.43C1177.9 270.015 1180.35 269.496 1182.63 268.488C1184.91 267.479 1186.99 266.001 1188.74 264.138C1190.49 262.275 1191.87 260.063 1192.82 257.628C1193.76 255.193 1194.25 252.584 1194.25 249.949C1194.25 247.313 1193.76 244.704 1192.82 242.27C1191.87 239.835 1190.49 237.623 1188.74 235.759C1186.99 233.896 1184.91 232.418 1182.63 231.41C1180.35 230.401 1177.9 229.882 1175.43 229.882H1154.08V270.015Z" fill="#00485C"/>
<path d="M1319.81 318.467C1310.65 328.25 1298.97 334.919 1286.25 337.635C1273.53 340.351 1260.35 338.992 1248.35 333.728C1236.36 328.464 1226.1 319.532 1218.86 308.058C1211.63 296.585 1207.74 283.083 1207.69 269.257C1207.64 255.431 1211.44 241.899 1218.59 230.369C1225.75 218.839 1235.95 209.827 1247.91 204.469C1259.87 199.111 1273.04 197.648 1285.78 200.265C1298.51 202.881 1310.24 209.459 1319.47 219.169L1317.01 221.584C1308.25 212.274 1297.08 205.947 1284.94 203.405C1272.79 200.864 1260.22 202.221 1248.8 207.306C1237.38 212.391 1227.63 220.974 1220.79 231.968C1213.95 242.963 1210.32 255.875 1210.37 269.067C1210.42 282.26 1214.14 295.141 1221.06 306.079C1227.98 317.016 1237.79 325.519 1249.24 330.509C1260.7 335.499 1273.29 336.752 1285.41 334.11C1297.54 331.468 1308.66 325.049 1317.36 315.667L1319.81 318.467Z" fill="#00485C"/>
<path d="M1426 318.467C1416.84 328.25 1405.16 334.919 1392.44 337.635C1379.72 340.351 1366.54 338.992 1354.54 333.728C1342.55 328.464 1332.29 319.532 1325.05 308.058C1317.81 296.585 1313.93 283.083 1313.88 269.257C1313.83 255.431 1317.63 241.899 1324.78 230.369C1331.94 218.839 1342.14 209.827 1354.1 204.469C1366.05 199.111 1379.23 197.648 1391.97 200.265C1404.7 202.881 1416.43 209.459 1425.66 219.169L1423.2 221.584C1414.44 212.274 1403.27 205.947 1391.13 203.405C1378.98 200.864 1366.41 202.221 1354.99 207.306C1343.57 212.391 1333.82 220.974 1326.98 231.968C1320.14 242.963 1316.51 255.875 1316.56 269.067C1316.61 282.26 1320.33 295.141 1327.25 306.079C1334.17 317.016 1343.98 325.519 1355.43 330.509C1366.89 335.499 1379.48 336.752 1391.6 334.11C1403.73 331.468 1414.85 325.049 1423.55 315.667L1426 318.467Z" fill="#00485C"/>
</g>
<defs>
<clipPath id="clip0_326_19">
<rect width="1000" height="140" fill="white" transform="translate(426 199)"/>
</clipPath>
</defs>
</svg>
