<svg width="52" height="61" viewBox="0 0 52 61" fill="none" xmlns="http://www.w3.org/2000/svg">
<path d="M26 60.7143C24.8288 60.7138 23.684 60.3362 22.7102 59.6293C21.7365 58.9224 20.9775 57.9178 20.5291 56.7426C20.0808 55.5673 19.9632 54.2741 20.1913 53.0263C20.4194 51.7785 20.9828 50.6322 21.8105 49.7321L39.6135 30.3923L21.8105 11.054C20.7274 9.84117 20.1269 8.21429 20.1388 6.52469C20.1507 4.83509 20.7739 3.21836 21.8739 2.02359C22.9739 0.828834 24.4624 0.151924 26.018 0.139035C27.5736 0.126146 29.0715 0.77831 30.1881 1.9547L48.9085 22.2877C49.8886 23.3519 50.6661 24.6154 51.1965 26.0059C51.727 27.3965 52 28.887 52 30.3923C52 31.8975 51.727 33.388 51.1965 34.7786C50.6661 36.1692 49.8886 37.4326 48.9085 38.4968L30.1881 58.8298C29.6389 59.4283 28.9861 59.903 28.2674 60.2264C27.5486 60.5498 26.778 60.7156 26 60.7143Z" fill="url(#paint0_linear)"/>
<path opacity="0.4" d="M26 60.7142C25.2217 60.7157 24.4509 60.55 23.7319 60.2265C23.0129 59.9031 22.3598 59.4284 21.8104 58.8298L3.09149 38.4968C2.11139 37.4326 1.33391 36.1691 0.803464 34.7785C0.27302 33.3879 0 31.8974 0 30.3922C0 28.887 0.27302 27.3965 0.803464 26.0059C1.33391 24.6153 2.11139 23.3519 3.09149 22.2877L21.8104 1.9547C22.3574 1.34218 23.0111 0.853944 23.7334 0.518397C24.4558 0.182851 25.2324 0.00669654 26.018 0.000187245C26.8036 -0.00632205 27.5825 0.156944 28.3095 0.480482C29.0365 0.80402 29.697 1.28137 30.2525 1.88475C30.808 2.48813 31.2475 3.20549 31.5454 3.99508C31.8433 4.78468 31.9936 5.63074 31.9876 6.48402C31.9816 7.33731 31.8194 8.18077 31.5105 8.96534C31.2015 9.74991 30.752 10.4599 30.1881 11.054L12.385 30.3922L30.1881 49.7304C31.0157 50.6305 31.5791 51.7767 31.8072 53.0243C32.0353 54.2719 31.9179 55.565 31.4697 56.7402C31.0215 57.9154 30.2628 58.9199 29.2893 59.627C28.3157 60.334 27.1711 60.7118 26 60.7127V60.7142Z" fill="url(#paint1_linear)"/>
<defs>
<linearGradient id="paint0_linear" x1="10.8142" y1="46.8863" x2="43.6884" y2="16.6178" gradientUnits="userSpaceOnUse">
<stop stop-color="#0E4749"/>
<stop offset="1" stop-color="#0E4749"/>
</linearGradient>
<linearGradient id="paint1_linear" x1="10.8141" y1="46.8862" x2="43.6883" y2="16.6177" gradientUnits="userSpaceOnUse">
<stop stop-color="#CDCDCD"/>
<stop offset="1" stop-color="#0E4749"/>
</linearGradient>
</defs>
</svg>
